<?xml version="1.0" encoding="UTF-8" standalone="no"?>
<!DOCTYPE svg PUBLIC "-//W3C//DTD SVG 1.1//EN" "http://www.w3.org/Graphics/SVG/1.1/DTD/svg11.dtd">
<svg width="100%" height="100%" viewBox="0 0 3465 5469" version="1.1" xmlns="http://www.w3.org/2000/svg" xmlns:xlink="http://www.w3.org/1999/xlink" xml:space="preserve" xmlns:serif="http://www.serif.com/" style="fill-rule:evenodd;clip-rule:evenodd;stroke-linecap:round;stroke-linejoin:round;stroke-miterlimit:1.5;">
		<g id="Artboard1" transform="matrix(1,0,0,1,0,-8575)">
				<rect x="0" y="8575" width="3465" height="5468.31" style="fill:none;"/>
				<clipPath id="_clip1">
						<rect x="0" y="8575" width="3465" height="5468.31"/>
				</clipPath>
				<g clip-path="url(#_clip1)">
						<g transform="matrix(1,0,0,1,-1374,4264.31)">
								<path d="M1374,4546L3373,4546L3373,4983L2858,5733L2639,6717L2264,7639L2483,7935L2483,8763L2264,9201L1374,9779L1374,4546Z" style="fill:url(#_Linear2);stroke:black;stroke-width:1px;"/>
						</g>
						<g transform="matrix(1,0,0,1,-1095.35,3511.31)">
								<path d="M1073.27,5262.04C1064.06,5263.95 1057.79,5272.52 1058.75,5281.88C1059.71,5291.23 1067.6,5298.35 1077,5298.35L1269.92,5298.35C1269.92,5298.35 1304.86,5344.13 1304.86,5344.13C1308.23,5348.55 1313.43,5351.2 1318.99,5351.34C1324.55,5351.48 1329.87,5349.09 1333.46,5344.84L1372.71,5298.35C1372.71,5298.35 1427.23,5298.35 1427.23,5298.35C1427.23,5298.35 1494.4,5381.53 1494.4,5381.53C1497.46,5385.32 1501.92,5387.74 1506.77,5388.25C1511.63,5388.75 1516.48,5387.3 1520.27,5384.22L1625.53,5298.35C1625.53,5298.35 1728.01,5298.35 1728.01,5298.35C1728.01,5298.35 1763.59,5344.24 1763.59,5344.24C1766.74,5348.31 1771.46,5350.87 1776.59,5351.28C1781.73,5351.7 1786.8,5349.94 1790.57,5346.44L1842.34,5298.35C1842.34,5298.35 2007.06,5298.35 2052.51,5298.35C2052.51,5298.35 2091.16,5378.01 2091.16,5378.01C2095.36,5386.66 2105.53,5390.61 2114.47,5387.04L2336.56,5298.35C2336.56,5298.35 2565.29,5298.35 2598.89,5298.35C2598.89,5298.35 2707.78,5349.6 2707.78,5349.6C2712.95,5352.03 2718.96,5351.92 2724.03,5349.29L2822.31,5298.35C2856.57,5298.35 3076,5298.35 3076,5298.35C3083.68,5298.35 3090.54,5293.57 3093.21,5286.36C3095.87,5279.16 3093.77,5271.07 3087.94,5266.07L3038.94,5224.07C3035.61,5221.22 3031.38,5219.65 3027,5219.65L1279,5219.65C1277.75,5219.65 1276.49,5219.78 1275.27,5220.04L1073.27,5262.04Z" style="fill:url(#_Linear3);stroke:black;stroke-width:1px;"/>
						</g>
						<g>
								<g transform="matrix(6.12323e-17,1,-1,6.12323e-17,8607,7810.54)">
										<path d="M1467,6608L1541.91,6863.58L1603,6963.52L1587.75,7022.73L1619,7132L1541.91,7123.39L1499.31,7199.15L1467,7451L1524,7176.52L1561,7132L1655,7154L1603,7033.03L1619,6963.52L1561,6878.14L1467,6608Z" style="fill:rgb(183,183,183);"/>
								</g>
								<g transform="matrix(-2.16862e-16,1.20685,-0.995672,-1.87735e-16,7578.9,8957.57)">
										<path d="M2076.5,7451L2054.97,7212.81L2112.7,7066.66L2124.55,6826L2203.04,6669L2169.55,6669L1974.5,6608L2180.5,6702.81L2124.55,6790L1889,6826L2112.7,6810L2105.71,7084.35L2034.5,7223.81L2076.5,7451Z" style="fill:rgb(183,183,183);"/>
								</g>
								<g transform="matrix(1,0,0,1,-1223.65,3755.31)">
										<path d="M1655,8084L1620.08,8342L1572,8504L1610,8440L1655,8297L1692,8377.92L1692,8522L1737,8342L1667.43,8253.24L1655,8084Z" style="fill:rgb(183,183,183);"/>
								</g>
								<g transform="matrix(1,0,0,1,-1058.65,3530.31)">
										<path d="M1363,10073L1424,9790.21L1424,9464L1467,9617L1424,9955L1363,10073Z" style="fill:rgb(183,183,183);"/>
								</g>
								<g transform="matrix(1,0,0,1,-980.596,3516.6)">
										<path d="M1737,9617L1805.22,9371.73L1840.22,9193.99L1889,9085L1530.91,9008L1788,9085L1737,9127.5L1836.38,9109.01L1788,9305L1737,9617Z" style="fill:rgb(183,183,183);"/>
								</g>
								<g transform="matrix(1.34406,2.32864e-17,2.32864e-17,2.36162,-1811.59,-4589.26)">
										<path d="M1467,5819L1660.73,5903.12L1803.52,5938.12L1931.69,5915.32L2222,5951.35L1947.18,5903.12L1974.74,5868.47L2077.55,5859.27L2314,5819L2106.31,5850L1947.18,5863.94L1920.95,5906.55L1803.52,5930.68L1737,5915.32L1643.42,5891.57L1467,5819" style="fill:rgb(183,183,183);"/>
								</g>
								<g transform="matrix(-3.47493e-17,0.766121,0.567499,4.69114e-17,-3499.07,9069.8)">
										<path d="M1467,6608L1541.91,6863.58L1603,6963.52L1587.75,7022.73L1619,7132L1541.91,7123.39L1499.31,7199.15L1467,7451L1524,7176.52L1561,7132L1655,7154L1603,7033.03L1619,6963.52L1561,6878.14L1467,6608Z" style="fill:rgb(183,183,183);"/>
								</g>
								<g transform="matrix(0.958745,1.859e-16,-1.79892e-16,0.567499,-1129.77,6863.86)">
										<path d="M2076.5,7451L2054.97,7212.81L2112.7,7066.66L2124.55,6826L2203.04,6669L2169.55,6669L1974.5,6608L2180.5,6702.81L2124.55,6790L1889,6826L2112.7,6810L2105.71,7084.35L2034.5,7223.81L2076.5,7451Z" style="fill:rgb(183,183,183);"/>
								</g>
								<g transform="matrix(2.8865e-17,0.762755,-1.80928,1.24002e-16,11684.2,8519.17)">
										<path d="M1467,5819L1660.73,5903.12L1803.52,5938.12L1931.69,5915.32L2222,5951.35L1947.18,5903.12L1974.74,5868.47L2077.55,5859.27L2314,5819L2106.31,5850L1947.18,5863.94L1920.95,5906.55L1803.52,5930.68L1737,5915.32L1643.42,5891.57L1467,5819" style="fill:rgb(183,183,183);"/>
								</g>
						</g>
						<path d="M2870.14,10232.3C2853.35,10220.6 2830.67,10179.5 2818.96,10161.9C2788.96,10116.9 2741.2,10089.6 2716.58,10040.4C2667.29,9941.78 2744.11,9783.08 2767.77,9688.45C2786.77,9612.46 2773.95,9482.39 2761.37,9406.93C2746.86,9319.87 2652.6,9166.18 2652.6,9119" style="fill:none;stroke:black;stroke-width:1px;"/>
						<path d="M2556.62,9995.57C2514.37,9826.56 2437.81,9665.72 2415.86,9490.1C2391.44,9294.76 2444.37,9079.46 2396.66,8888.66C2383.79,8837.16 2365.48,8766.03 2332.68,8722.3C2317.05,8701.45 2268.7,8660.17 2268.7,8645.52" style="fill:none;stroke:black;stroke-width:1px;"/>
						<g transform="matrix(2.22014,0,0,2.22014,961.751,10321.3)">
								<path id="duck_1_28_" d="M782.9,45.2C782.9,45.2 761.6,46.1 753.2,60.5C746.7,73.1 751.6,87.8 763.2,97C771.1,103.7 771,108.6 768.1,111.8C763.4,116.6 747.5,121.9 741.1,104.9C735.3,92.7 720,116.9 734.2,148.2C748.4,179.6 787,180.5 816,161.6C838.1,149.2 840.6,116.5 820.5,104.5C807.1,95.9 806.2,87.2 808.5,83C810.8,78.8 813.1,75.6 813.1,75.6L805.4,60.9C805,61.2 798.1,45.9 782.9,45.2" style="fill:rgb(176,176,176);fill-rule:nonzero;stroke:black;stroke-width:0.45px;stroke-linecap:butt;stroke-miterlimit:2;"/>
								<g>
										<path d="M754.5,129.8C757.3,126.6 757.5,121.9 750.1,115.4C746.8,114 743.8,111.1 741.6,106.1C740.9,105 740.3,103.9 739.8,102.8C735.2,97.9 727.7,108 728.4,124.7C735.2,139.5 750,134.4 754.5,129.8Z" style="fill:rgb(190,190,190);fill-rule:nonzero;"/>
										<path d="M820.4,104.5C807,95.9 806.1,87.2 808.4,83C810.7,78.8 813,75.6 813,75.6L805.3,60.9C805,61.2 798.2,45.9 783,45.2C783,45.2 761.7,46.1 753.3,60.5C752,63.1 751.1,65.7 750.7,68.4C756,54.8 765.8,52 780.9,54.4C796,56.8 791.5,79.2 791.8,78.9L799.5,93.6C799.5,93.6 797.2,96.8 794.9,101C792.6,105.2 793.5,113.9 806.9,122.5C819.7,130.1 823.3,146.1 818.6,159.9C838.2,146.5 839.7,116 820.4,104.5Z" style="fill:rgb(190,190,190);fill-rule:nonzero;"/>
								</g>
								<path id="path13876_28_" d="M784.2,64.5C784.6,66.3 783.4,68.2 781.6,68.5C779.8,68.8 777.9,67.7 777.6,65.9C777.2,64.1 778.4,62.2 780.2,61.9C781.9,61.7 783.8,62.7 784.2,64.5M801,55.7C802.3,57 803,58.7 802.3,59.1C801.6,59.8 799.9,59.3 798.6,58C797.3,56.7 796.6,55.2 797.3,54.6C798.2,53.9 799.8,54.6 801,55.7" style="fill:rgb(56,56,56);fill-rule:nonzero;"/>
								<path id="path13878_28_" d="M775.6,75.7C775.6,75.7 783.4,75.9 787,70C790.6,64.1 790,61.6 796.7,61.5C803.7,61.6 804.5,62.8 806.3,61.3C808.1,59.8 812.5,59.1 815.5,63C818.2,66.9 815.1,72.6 815.1,72.6C815.1,72.6 821.5,77.3 816.9,82.6C811.4,88.6 802.3,88.3 795.9,87.7C789.6,86.9 776.1,84.1 775.6,75.7" style="fill:rgb(217,217,217);fill-rule:nonzero;stroke:black;stroke-width:0.2px;stroke-linecap:butt;stroke-miterlimit:2;"/>
								<path id="path13880_28_" d="M779,78.9C779,78.9 782.8,83.3 799.1,84.4C815.4,85.4 817.3,76.2 813.2,73.4C815.2,70.9 818.7,62.6 812.2,62.4C804.4,62.2 801.8,76.7 794.3,80C786.9,83.1 779.3,78.9 779,78.9" style="fill:rgb(155,155,155);fill-rule:nonzero;"/>
								<path d="M813.4,73.5C803.3,81.6 792.5,82.8 781.6,80.7C784.3,82.1 789.6,83.8 799.1,84.4C815.2,85.4 817.3,76.4 813.4,73.5Z" style="fill:rgb(155,155,155);fill-rule:nonzero;"/>
								<path d="M774.8,62.4C774.8,62.4 775.1,59 778.1,58.1" style="fill:rgb(89,89,89);fill-rule:nonzero;stroke:rgb(79,79,79);stroke-width:1.87px;stroke-linejoin:miter;stroke-miterlimit:10;"/>
								<path d="M795.2,51.4C795.2,51.4 798.4,50.3 800.5,52.6" style="fill:rgb(89,89,89);fill-rule:nonzero;stroke:rgb(79,79,79);stroke-width:1.87px;stroke-linejoin:miter;stroke-miterlimit:10;"/>
								<g transform="matrix(1,0,0,1,-2.28765,0.533945)">
										<path d="M801.5,79.9C801.5,79.9 809.8,81.3 811.3,79.8C812.9,78.3 809.7,76.1 809.7,76.1C809.7,76.1 806.3,78.8 801.5,79.9Z" style="fill:rgb(59,56,56);fill-rule:nonzero;"/>
								</g>
						</g>
						<g transform="matrix(2.01167,-0.919278,0.919278,2.01167,1198.68,11248.1)">
								<g>
										<g>
												<g>
														<path d="M882.2,253.9L644.9,320.5L586.6,174L859.5,150.3L882.2,253.9Z" style="fill:rgb(196,196,196);fill-rule:nonzero;"/>
														<path d="M644.9,320.5L884.2,253.2" style="fill:none;fill-rule:nonzero;stroke:rgb(70,70,70);stroke-width:5px;stroke-linejoin:miter;stroke-miterlimit:10;"/>
														<path d="M861.2,158L859.5,150.3L586.5,174L644.9,320.5L694.9,306.5C690.5,228.4 707.5,170.4 861.2,158Z" style="fill:rgb(219,219,219);fill-rule:nonzero;"/>
														<path d="M586.6,174L870.3,150.3" style="fill:none;fill-rule:nonzero;stroke:rgb(70,70,70);stroke-width:5px;stroke-linejoin:miter;stroke-miterlimit:10;"/>
														<g>
																<path d="M614.4,197.1L848.2,176.7" style="fill:none;fill-rule:nonzero;stroke:rgb(103,102,113);stroke-width:2.07px;stroke-miterlimit:10;"/>
																<path d="M625.5,226.6L853.3,195.3" style="fill:none;fill-rule:nonzero;stroke:rgb(103,102,113);stroke-width:2.07px;stroke-miterlimit:10;"/>
																<path d="M638.3,257.4L858,214.3" style="fill:none;fill-rule:nonzero;stroke:rgb(103,102,113);stroke-width:2.07px;stroke-miterlimit:10;"/>
																<path d="M649,287.3L862.9,235.9" style="fill:none;fill-rule:nonzero;stroke:rgb(103,102,113);stroke-width:2.07px;stroke-miterlimit:10;"/>
														</g>
														<path d="M662.4,368.9C660.2,368.9 658.2,367.6 657.3,365.4L573.4,156L524.3,151.8C521.3,151.5 519,148.9 519.3,145.9C519.6,142.9 522.2,140.6 525.2,140.9L577.6,145.4C579.7,145.6 581.5,146.9 582.2,148.8L667.3,361.3C668.4,364.1 667.1,367.3 664.2,368.5C663.8,368.8 663.1,368.9 662.4,368.9Z" style="fill:rgb(86,86,86);fill-rule:nonzero;"/>
														<path d="M566.3,144.4L525.3,140.9C522.3,140.6 519.6,142.9 519.4,145.9C519.1,148.9 521.4,151.6 524.4,151.8L565.3,155.3C565.2,151.7 565.6,148 566.3,144.4Z" style="fill:rgb(79,79,79);fill-rule:nonzero;stroke:rgb(70,70,70);stroke-width:3px;stroke-linejoin:miter;stroke-miterlimit:10;"/>
														<path d="M657.455,372.365C655.055,372.365 652.955,370.865 652.155,368.465C651.255,365.565 652.955,362.465 655.855,361.565C655.855,361.565 738.338,325.391 778.905,312.003C818.226,299.025 899.256,281.234 899.256,281.234C902.156,280.334 905.256,282.034 906.156,284.934C907.056,287.834 905.356,290.934 902.456,291.834C902.456,291.834 821.337,309.655 781.972,322.647C741.405,336.035 659.055,372.165 659.055,372.165C658.455,372.265 657.955,372.365 657.455,372.365Z" style="fill:rgb(86,86,86);fill-rule:nonzero;"/>
														<g>
																<g transform="matrix(0.7782,-0.628,0.628,0.7782,-81.296,496.576)">
																		<circle cx="662.4" cy="363.4" r="25.6" style="fill:rgb(38,38,38);"/>
																</g>
																<g transform="matrix(0.7782,-0.628,0.628,0.7782,-81.296,496.576)">
																		<circle cx="662.4" cy="363.4" r="10.9" style="fill:white;"/>
																</g>
														</g>
														<g transform="matrix(0.7782,-0.628,0.628,0.7782,14.891,623.247)">
																<circle cx="889.9" cy="290.5" r="25.6" style="fill:rgb(49,49,49);"/>
														</g>
														<g transform="matrix(0.7782,-0.628,0.628,0.7782,14.891,623.247)">
																<circle cx="889.9" cy="290.5" r="10.9" style="fill:white;"/>
														</g>
												</g>
										</g>
								</g>
						</g>
				</g>
		</g>
		<defs>
				<linearGradient id="_Linear2" x1="0" y1="0" x2="1" y2="0" gradientUnits="userSpaceOnUse" gradientTransform="matrix(-981,-303.307,303.307,-981,2192,8013)"><stop offset="0" style="stop-color:rgb(204,204,204);stop-opacity:1"/><stop offset="0.18" style="stop-color:rgb(210,210,210);stop-opacity:1"/><stop offset="0.76" style="stop-color:rgb(199,199,199);stop-opacity:1"/><stop offset="1" style="stop-color:rgb(223,223,223);stop-opacity:1"/></linearGradient>
				<linearGradient id="_Linear3" x1="0" y1="0" x2="1" y2="0" gradientUnits="userSpaceOnUse" gradientTransform="matrix(-8,173.307,-173.307,-8,2171.35,5130.69)"><stop offset="0" style="stop-color:rgb(198,198,198);stop-opacity:1"/><stop offset="1" style="stop-color:rgb(125,125,125);stop-opacity:1"/></linearGradient>
		</defs>
</svg>
