<svg width="512px" height="512px" version="1.1" xmlns="http://www.w3.org/2000/svg" style="fill-rule:evenodd;clip-rule:evenodd;stroke-linecap:round;stroke-linejoin:round;stroke-miterlimit:1.5;">
<path d="M506.207,223.447c0,-2.865 -250.962,-211.959 -255.776,-211.959c-4.065,-0 -244.995,210.221 -244.995,211.959l0,276.458c0,2.864 2.326,5.19 5.191,5.19l490.389,0c2.865,0 5.191,-2.326 5.191,-5.19l0,-276.458Zm-500.771,-0l246.537,134.174m-0,0l-244.473,145.171l244.473,-145.171Zm252.075,145.077l-252.075,-145.077m-0,0l254.234,-134.174" style="fill:#ebebeb;stroke:#2c2c2c;stroke-width:1.46px;"/>
<path d="M468.75,243.232l-216.784,114.275l-197.839,-107.693l0.762,-193.058l414.175,-0.968l-0.314,187.444Z" style="fill:#fff;stroke:#2c2c2c;stroke-width:1.46px;"/>
</svg>