<svg xmlns="http://www.w3.org/2000/svg" viewBox="0 0 512 512"><!--!Font Awesome Free 6.6.0 by @fontawesome - https://fontawesome.com License - https://fontawesome.com/license/free Copyright 2024 Fonticons, Inc.--><path d="M494.6 164.5c-4.7-3.9-111.7-90-135.3-108.7C337.2 38.2 299.4 0 256 0c-43.2 0-80.6 37.7-103.3 55.9-24.5 19.5-131.1 105.2-135.2 108.5A48 48 0 0 0 0 201.5V464c0 26.5 21.5 48 48 48h416c26.5 0 48-21.5 48-48V201.5a48 48 0 0 0 -17.4-37zM464 458a6 6 0 0 1 -6 6H54a6 6 0 0 1 -6-6V204.3c0-1.8 .8-3.5 2.2-4.7 15.9-12.8 108.8-87.6 132.4-106.3C200.8 78.9 232.4 48 256 48c23.7 0 55.9 31.4 73.4 45.4 23.6 18.7 116.5 93.5 132.4 106.3a6 6 0 0 1 2.2 4.7V458zm-32-187.7c4.2 5.2 3.5 12.8-1.7 17-29 23.3-59.3 47.6-70.9 56.9C336.6 362.3 299.2 400 256 400c-43.5 0-81.3-38.2-103.3-55.9-11.3-9-41.7-33.4-70.9-56.9-5.2-4.2-6-11.8-1.7-17l15.3-18.5c4.2-5.1 11.7-5.8 16.8-1.7 28.6 23 58.6 47 70.6 56.6C200.1 320.6 232.3 352 256 352c23.6 0 55.2-30.9 73.4-45.4 12-9.5 41.9-33.6 70.6-56.6 5.1-4.1 12.6-3.3 16.8 1.7l15.3 18.5z"/></svg>