<svg xmlns="http://www.w3.org/2000/svg" viewBox="0 0 384 512"><!--!Font Awesome Free 6.6.0 by @fontawesome - https://fontawesome.com License - https://fontawesome.com/license/free Copyright 2024 Fonticons, Inc.--><path d="M368 48h4c6.6 0 12-5.4 12-12V12c0-6.6-5.4-12-12-12H12C5.4 0 0 5.4 0 12v24c0 6.6 5.4 12 12 12h4c0 80.6 32.2 165.8 97.2 208C47.9 298.4 16 383.9 16 464h-4c-6.6 0-12 5.4-12 12v24c0 6.6 5.4 12 12 12h360c6.6 0 12-5.4 12-12v-24c0-6.6-5.4-12-12-12h-4c0-80.6-32.2-165.8-97.2-208C336.1 213.6 368 128.1 368 48zM64 48h256c0 101.6-57.3 184-128 184S64 149.6 64 48zm256 416H64c0-101.6 57.3-184 128-184s128 82.4 128 184z"/></svg>