<?xml version="1.0" encoding="UTF-8" standalone="no"?>
<!-- Created with Inkscape (http://www.inkscape.org/) -->

<svg
   xmlns:dc="http://purl.org/dc/elements/1.1/"
   xmlns:cc="http://creativecommons.org/ns#"
   xmlns:rdf="http://www.w3.org/1999/02/22-rdf-syntax-ns#"
   xmlns:svg="http://www.w3.org/2000/svg"
   xmlns="http://www.w3.org/2000/svg"
   version="1.1"
   width="400pt"
   height="110pt"
   viewBox="0 0 400 110"
   id="svg4028">
  <metadata
     id="metadata4068">
    <rdf:RDF>
      <cc:Work
         rdf:about="">
        <dc:format>image/svg+xml</dc:format>
        <dc:type
           rdf:resource="http://purl.org/dc/dcmitype/StillImage" />
        <dc:title></dc:title>
      </cc:Work>
    </rdf:RDF>
  </metadata>
  <defs
     id="defs4066" />
  <path
     d="m 56.34,15.51 c 3.6,-0.28 7.35,0.81 10.43,2.66 3.53,2.91 1.99,7.88 0.65,11.5 -0.89,3.06 -4.21,5.02 -7.32,4.3 -4.01,-0.53 -9.45,-2.06 -9.71,-6.94 0.36,-4.25 1.25,-10.02 5.95,-11.52 z"
     id="path4032"
     style="fill:#789ac7;fill-opacity:1" />
  <path
     d="m 154.06,28.85 c 2.71,0 5.43,0 8.14,0 0.01,2.66 0.03,5.31 0.04,7.97 -2.68,-0.02 -5.37,-0.03 -8.05,-0.05 -0.04,-2.64 -0.06,-5.28 -0.13,-7.92 z"
     id="path4034"
     style="fill:#9b9b9b;fill-opacity:1" />
  <path
     d="m 19.34,31.31 c 3.71,-2.37 7.75,0.44 10.7,2.69 2.68,1.75 4.05,5.52 2.37,8.4 -1.91,3.55 -4.6,8.23 -9.36,7.51 -3.39,-1.13 -6.85,-3.12 -8.81,-6.19 -1.5,-4.78 1.58,-9.48 5.1,-12.41 z"
     id="path4036"
     style="fill:#ff3c52;fill-opacity:1" />
  <path
     d="m 177.71,36.73 c 2.67,0.02 5.34,0.03 8.02,0.06 -0.02,2.7 -0.02,5.4 0,8.1 3.95,-0.01 7.89,0 11.84,0.08 0,2.55 0.01,5.09 0.02,7.64 -3.98,-0.04 -7.97,-0.05 -11.95,-0.07 0.2,6.5 -0.18,13 0.13,19.5 -0.2,1.91 1.36,3.66 3.25,3.81 2.83,0.27 5.67,0.1 8.51,0.15 0.01,2.75 0.02,5.51 0.04,8.26 -4.02,-0.11 -8.21,0.48 -12.08,-0.87 -4.09,-1.78 -7.6,-5.74 -7.67,-10.37 -0.27,-6.8 -0.04,-13.6 -0.02,-20.4 -1.3,-0.03 -2.59,-0.03 -3.89,-0.02 -0.05,-2.54 -0.09,-5.07 -0.14,-7.61 1.33,-0.07 2.66,-0.15 4,-0.23 -0.02,-2.68 -0.05,-5.35 -0.06,-8.03 z"
     id="path4038"
     style="fill:#9b9b9b;fill-opacity:1" />
  <path
     d="m 365.19,36.78 c 2.7,-0.02 5.41,-0.03 8.13,-0.04 0,2.69 -0.01,5.38 -0.02,8.06 4.02,0.1 8.04,0.1 12.07,0.1 0.01,2.57 0.02,5.14 0.05,7.71 -4.05,-0.03 -8.09,-0.04 -12.13,-0.09 0.32,6.97 -0.44,14 0.34,20.93 2.16,4.25 7.96,1.94 11.75,2.55 0,2.75 0,5.49 0.02,8.24 -4.17,-0.13 -8.56,0.6 -12.54,-0.97 -4.38,-1.93 -7.63,-6.42 -7.58,-11.28 -0.14,-6.48 0.01,-12.96 0.04,-19.44 -1.35,0.01 -2.7,0.03 -4.04,0.04 -0.03,-2.57 -0.02,-5.13 -0.05,-7.7 1.01,0 3.02,0 4.03,0 -0.01,-2.71 -0.04,-5.41 -0.07,-8.11 z"
     id="path4040"
     style="fill:#9b9b9b;fill-opacity:1" />
  <path
     d="m 122.78,44.75 c 2.81,0 5.63,0 8.45,0.01 -0.01,9.73 0.11,19.46 -0.07,29.19 4.34,3.78 10.57,1.39 15.77,2.05 -0.01,2.74 -0.03,5.48 -0.03,8.22 -6.44,-0.44 -13.94,1.67 -19.4,-2.78 -3.21,-2.45 -4.8,-6.46 -4.71,-10.44 -0.08,-8.75 0.04,-17.5 -0.01,-26.25 z"
     id="path4042"
     style="fill:#9b9b9b;fill-opacity:1" />
  <path
     d="m 154.06,44.66 c 2.72,-0.01 5.44,-0.01 8.16,-0.01 0.11,9.14 -0.15,18.28 0.07,27.41 -0.25,2.43 2.35,3.35 3.95,4.51 0.09,2.7 0.12,5.39 0.14,8.09 -2.88,-0.89 -6.08,-1.5 -8.27,-3.74 -2.75,-2.49 -3.97,-6.23 -3.94,-9.86 -0.12,-8.79 0.14,-17.6 -0.11,-26.4 z"
     id="path4044"
     style="fill:#9b9b9b;fill-opacity:1" />
  <path
     d="m 274.96875,55.875 c -2.49531,0.02031 -4.9875,0.14375 -7.46875,0.4375 -6.2,1.2375 -11.21875,7.26875 -11.03125,13.65625 -0.025,6.675 0.0125,13.35625 0,20.03125 -0.5,8.025 6.875,15.15625 14.75,15.21875 8.175,0.2625 16.34375,-0.0812 24.53125,0.0937 -0.05,-3.45 -0.075,-6.875 -0.125,-10.3125 -8.5375,-0.15 -17.08125,0.3625 -25.59375,-0.25 -4.275,-1.025 -3.4625,-6.14375 -3.75,-9.46875 9.8,0.025 19.60625,-0.025 29.40625,0.0625 -0.0375,-5.5 0.3125,-11.0125 -0.125,-16.5 -0.4625,-6.6125 -6.44375,-12.525 -13.09375,-12.75 -2.4875,-0.1625 -5.00469,-0.239063 -7.5,-0.21875 z m 0.71875,9.59375 c 2.27969,-0.0094 4.56875,0.1875 6.8125,0.46875 4.0125,1.025 2.7,6.125 3.375,9.1875 -6.5625,0.15 -13.14375,0.125 -19.71875,0 0.5875,-3 -0.30625,-7.075 2.78125,-8.9375 2.2125,-0.50625 4.47031,-0.709375 6.75,-0.71875 z"
     transform="scale(0.8,0.8)"
     id="path4046"
     style="fill:#9b9b9b;fill-opacity:1" />
  <path
     d="m 244.3,55.95 c -0.11,-5.11 3.92,-9.74 8.79,-10.89 4.62,-0.52 9.31,-0.52 13.93,0.04 5.25,1.21 8.44,6.32 9,11.43 -2.54,0.03 -5.07,0.01 -7.6,0.01 -1.27,-1.48 -2.09,-3.99 -4.4,-3.94 -3.23,-0.2 -6.6,-0.49 -9.75,0.38 -2.93,1.98 -1.63,6 -1.95,8.96 0.4,4.2 -0.92,8.86 0.91,12.77 3.89,2.59 9.3,1.2 13.65,0.4 0.27,-1.04 0.55,-2.07 0.83,-3.11 2.72,0 5.45,-0.02 8.19,0.01 -0.36,4.31 -2.37,8.58 -6.33,10.65 -4.16,2.16 -9.08,1.67 -13.6,1.53 -5.87,-0.21 -11.44,-5.13 -11.61,-11.14 -0.24,-5.69 -0.17,-11.4 -0.06,-17.1 z"
     id="path4048"
     style="fill:#9b9b9b;fill-opacity:1" />
  <path
     d="m 366.375,55.90625 c -4.10938,0.02031 -8.2,0.075 -12.3125,0.09375 0.0125,3.2 0.006,6.375 -0.0312,9.5625 8.6125,0.3375 17.225,-0.275 25.8125,0.25 4.2375,0.775 3.68125,6.11875 4.09375,9.34375 -6.025,0.1875 -12.0875,-0.3875 -18.0625,0.625 -6.6625,1.0875 -12.19375,7.4125 -11.78125,14.25 -0.3,7.9 6.75,15 14.5625,15.1875 8.2375,0.2875 16.48125,-0.05 24.71875,0.0625 -0.15,-11.775 0.10625,-23.56875 -0.0937,-35.34375 0.1375,-7.5875 -7,-14.3875 -14.5625,-13.9375 -4.1125,-0.1 -8.23437,-0.114063 -12.34375,-0.09375 z m 8.78125,29.28125 c 2.81563,0.02187 5.63125,0.15625 8.4375,0.09375 0.0125,3.2375 0.0125,6.48125 0.0625,9.71875 -5.3375,-0.1375 -10.70625,0.3375 -16.03125,-0.25 -4.2625,-0.775 -4.6375,-7.2375 -0.875,-9 2.76875,-0.4875 5.59062,-0.584375 8.40625,-0.5625 z"
     transform="scale(0.8,0.8)"
     id="path4050"
     style="fill:#9b9b9b;fill-opacity:1" />
  <path
     d="m 326.5,47.48 c 4.18,-3.84 10.3,-2.58 15.47,-2.69 4.27,-0.23 8.35,2.25 10.39,5.96 1.81,2.95 1.36,6.54 1.52,9.84 -2.64,-0.06 -5.28,-0.11 -7.92,-0.15 -0.34,-2.54 0.36,-5.8 -2,-7.56 -3.76,-0.67 -7.61,-0.31 -11.41,-0.44 -1.13,1.65 -2.42,3.39 -2.19,5.52 -0.02,8.77 0.04,17.54 0.04,26.31 -2.74,-0.04 -5.46,-0.06 -8.19,-0.09 0.08,-9.07 -0.05,-18.14 0.02,-27.21 -0.06,-3.6 1.41,-7.22 4.27,-9.49 z"
     id="path4052"
     style="fill:#9b9b9b;fill-opacity:1" />
  <path
     d="m 80.36,46.44 c 3.32,-0.87 7.08,-1.3 10.36,-0.12 3.74,1.68 3.77,6.24 3.78,9.73 0.47,3.73 -2.75,7.3 -6.49,7.29 -2.97,0.15 -6.41,0.67 -8.88,-1.4 -2.71,-2.12 -2.37,-5.91 -2.5,-8.98 -0.25,-2.68 1.2,-5.49 3.73,-6.52 z"
     id="path4054"
     style="fill:#00b1c0" />
  <path
     d="m 24.37,70.52 c 2.51,-1.26 5.78,-0.73 7.61,1.46 2.21,2.51 5.16,5.37 4.58,9.04 -0.66,3.32 -3.75,5.33 -6.31,7.19 -2.55,1.93 -6.48,1.63 -8.57,-0.86 -2.52,-2.73 -5.89,-6.19 -4.37,-10.26 1.46,-2.93 4.31,-4.94 7.06,-6.57 z"
     id="path4060"
     style="fill:#ee6232;fill-opacity:1" />
  <path
     d="m 65.34,79.3 c 2.49,-0.58 5.41,0.32 6.59,2.72 1.32,2.74 2.82,5.67 2.69,8.79 -0.57,3.97 -4.73,5.52 -8.08,6.53 -2.91,1.02 -6.8,0.4 -8.23,-2.65 -1.28,-2.7 -2.73,-5.6 -2.57,-8.65 0.81,-4.47 5.86,-5.71 9.6,-6.74 z"
     id="path4062"
     style="fill:#fbb829;fill-opacity:1" />
</svg>
