<svg viewBox="0 0 400 82" xmlns="http://www.w3.org/2000/svg" xml:space="preserve" style="fill-rule:evenodd;clip-rule:evenodd;stroke-linejoin:round;stroke-miterlimit:2">
  <path d="M63.036 21.692c3.6-.28 7.35.81 10.43 2.66 3.53 2.91 1.99 7.88.65 11.5-.89 3.06-4.21 5.02-7.32 4.3-4.01-.53-9.45-2.06-9.71-6.94.36-4.25 1.25-10.02 5.95-11.52Z" style="fill:#3bc6bd;fill-rule:nonzero" transform="translate(-29.222 -24.24) scale(1.13859)"/>
  <path d="M32.033 34.382c3.71-2.37 7.75.44 10.7 2.69 2.68 1.75 4.05 5.52 2.37 8.4-1.91 3.55-4.6 8.23-9.36 7.51-3.39-1.13-6.85-3.12-8.81-6.19-1.5-4.78 1.58-9.48 5.1-12.41Z" style="fill:#7d3cff;fill-rule:nonzero" transform="translate(-29.222 -24.24) scale(1.13859)"/>
  <path d="M82.031 47.652c3.32-.87 7.08-1.3 10.36-.12 3.74 1.68 3.77 6.24 3.78 9.73.47 3.73-2.75 7.3-6.49 7.29-2.97.15-6.41.67-8.88-1.4-2.71-2.12-2.37-5.91-2.5-8.98-.25-2.68 1.2-5.49 3.73-6.52Z" style="fill:#97c000;fill-rule:nonzero" transform="translate(-29.222 -24.24) scale(1.13859)"/>
  <path d="M36.931 67.857c2.51-1.26 5.78-.73 7.61 1.46 2.21 2.51 5.16 5.37 4.58 9.04-.66 3.32-3.75 5.33-6.31 7.19-2.55 1.93-6.48 1.63-8.57-.86-2.52-2.73-5.89-6.19-4.37-10.26 1.46-2.93 4.31-4.94 7.06-6.57Z" style="fill:#ee328d;fill-rule:nonzero" transform="translate(-29.222 -24.24) scale(1.13859)"/>
  <path d="M69.968 74.46c2.49-.58 5.41.32 6.59 2.72 1.32 2.74 2.82 5.67 2.69 8.79-.57 3.97-4.73 5.52-8.08 6.53-2.91 1.02-6.8.4-8.23-2.65-1.28-2.7-2.73-5.6-2.57-8.65.81-4.47 5.86-5.71 9.6-6.74Z" style="fill:#ffb413;fill-rule:nonzero" transform="translate(-29.222 -24.24) scale(1.13859)"/>
  <path d="M33.827 171.353V55.662H0v115.691c0 28.527 23.208 51.735 51.735 51.735h50.721v-33.827H51.735c-9.875 0-17.908-8.033-17.908-17.908ZM379.097 108.199a19.34 19.34 0 0 1 5.721-13.786c3.689-3.68 8.558-5.684 13.801-5.686l28.613.074c10.709.028 19.422 8.762 19.422 19.472v13.552h-67.557v-13.626Zm48.222-53.226-28.613-.073h-.141c-14.21 0-27.571 5.524-37.636 15.563-10.098 10.072-15.66 23.473-15.66 37.736v63.154c0 28.527 23.209 51.735 51.736 51.735h83.168v-33.827h-83.168c-9.875 0-17.908-8.033-17.908-17.908v-15.701h101.228v-15.727h.156v-31.652c0-29.313-23.848-53.223-53.162-53.3ZM594.056 54.973l-28.614-.073h-.141c-14.209 0-27.572 5.524-37.637 15.563-10.099 10.072-15.659 23.473-15.659 37.736v62.276c0 14.263 5.56 27.664 15.659 37.736 10.066 10.039 23.426 15.563 37.636 15.563h.142l28.614-.074c29.312-.076 53.161-23.986 53.161-53.299v-4.168h-33.828v4.168c0 10.709-8.712 19.444-19.421 19.471l-28.614.075h-.051a19.336 19.336 0 0 1-13.749-5.686 19.339 19.339 0 0 1-5.722-13.786v-62.276a19.34 19.34 0 0 1 5.722-13.786 19.338 19.338 0 0 1 13.75-5.686h.05l28.614.074c10.709.027 19.421 8.762 19.421 19.472v4.167h33.828v-4.167c0-29.313-23.849-53.223-53.161-53.3ZM263.557 20.875H229.73v33.931h-14.785v33.828h14.785v82.719c0 28.527 23.208 51.735 51.735 51.735h33.711v-33.827h-33.711c-9.874 0-17.908-8.033-17.908-17.908V88.634h51.619V54.806h-51.619V20.875ZM166.701 171.353V54.802h-33.827v116.551c0 28.527 23.208 51.735 51.736 51.735v-33.827c-9.875 0-17.909-8.033-17.909-17.908ZM1067.55 88.634V54.806h-51.62V20.875h-33.828v33.931h-14.785v33.828h14.785v82.719c0 28.527 23.208 51.735 51.738 51.735h33.71v-33.827h-33.71c-9.88 0-17.91-8.033-17.91-17.908V88.634h51.62ZM133.17.69h33.827v34.229H133.17zM777.876 190.457h-48.798c-9.596 0-17.403-7.806-17.403-17.402s7.807-17.403 17.403-17.403h48.798v34.805ZM759.968 54.9h-58.313v33.827h58.313c9.875 0 17.909 8.034 17.909 17.908v15.19h-48.799c-28.248 0-51.229 22.982-51.229 51.23 0 28.248 22.981 51.229 51.229 51.229h82.625V106.635c0-28.527-23.208-51.735-51.735-51.735ZM843.041 106.635V225h33.827V106.635c0-9.874 8.033-17.908 17.907-17.908h42.069V54.9h-42.069c-28.526 0-51.734 23.208-51.734 51.735Z" style="fill:#898595;fill-rule:nonzero" transform="matrix(.2682 0 0 .2682 111.692 11.4)"/>
</svg>
