<svg viewBox="0 0 352 74" width="352" height="74" xmlns="http://www.w3.org/2000/svg" xml:space="preserve" style="fill-rule:evenodd;clip-rule:evenodd;stroke-linejoin:round;stroke-miterlimit:2">
	<path style="fill:none" d="M23 16h354v77H23z" transform="matrix(.99435 0 0 .96104 -22.87 -15.377)"/>
	<path d="M63 21.7c3.6-.28 7.35.81 10.4 2.66 3.53 2.91 1.99 7.88.65 11.5-.89 3.06-4.21 5.02-7.32 4.3-4.01-.53-9.45-2.06-9.71-6.94.36-4.25 1.25-10 5.95-11.5l.03-.02Z" style="fill:#3ba5c6;fill-rule:nonzero" transform="matrix(1 0 0 1 -25 -20)"/>
	<path d="M154 32h8.14c.01 2.66.03 5.31.04 7.97-2.68-.02-5.37-.03-8.05-.05-.04-2.64-.06-5.28-.13-7.92Z" style="fill:#9b9b9b;fill-rule:nonzero" transform="matrix(1 0 0 1 -25 -20)"/>
	<path d="M32 34.4c3.71-2.37 7.75.44 10.7 2.69 2.68 1.75 4.05 5.52 2.37 8.4-1.91 3.55-4.6 8.23-9.36 7.51-3.39-1.13-6.85-3.12-8.81-6.19-1.5-4.78 1.58-9.48 5.1-12.4v-.01Z" style="fill:#d13cab;fill-rule:nonzero" transform="matrix(1 0 0 1 -25 -20)"/>
	<path d="M178 36.7c2 .1 5 .1 8 .1v8.1c4 0 8 0 12 .1v7.6c-4 0-8 0-12-.1 0 6.5-1 13 0 19.5 0 2 1 3.7 3 3.8 3 .3 6 .2 9 .2v8.3c-4-.1-9 .4-13-.9-4-1.8-7-5.8-7-10.4V52.6h-4V45c1-.1 2-.2 4-.2v-8.1ZM354 36.8c2.7-.02 5.41-.03 8.13-.04 0 2.69-.01 5.38-.02 8.06 4.02.1 8.04.1 12.1.1.01 2.57.02 5.14.05 7.71-4.05-.03-8.09-.04-12.1-.09.32 6.97-.44 14 .34 20.9 2.16 4.25 7.96 1.94 11.8 2.55 0 2.75 0 5.49.02 8.24-4.17-.13-8.56.6-12.5-.97-4.38-1.93-7.63-6.42-7.58-11.3-.14-6.48.01-13 .04-19.4-1.35.01-2.7.03-4.04.04-.03-2.57-.02-5.13-.05-7.7h4.03c-.01-2.71-.04-5.41-.07-8.11l-.15.01ZM123 44.8h8V74c5 3.7 11 1.3 16 2v8.2c-7-.4-14 1.7-19-2.8-4-2.4-5-6.4-5-10.4V44.8ZM154 44.7c3-.1 6-.1 8-.1v27.5c0 2.4 3 3.3 4 4.5v8.1c-2-.9-6-1.5-8-3.8-3-2.5-4-6.2-4-9.8V44.7Z" style="fill:#9b9b9b;fill-rule:nonzero" transform="matrix(1 0 0 1 -25 -20)"/>
	<path d="M275 55.9c-3 0-5 .1-7 .4-7 1.3-12 7.3-12 13.7v20c0 8 7 15 15 15h25V95c-9-.2-17 .4-26-.2-4-1.1-3-6.2-4-9.5h30V68.8c-1-6.6-7-12.5-14-12.7-2-.2-5-.2-7-.2Zm1 9.6c2 0 4 .2 6 .4 5 1.1 3 6.2 4 9.2-7 .2-13 .1-20 0 1-3 0-7.1 3-8.9 2-.5 4-.7 7-.7Z" style="fill:#9b9b9b;fill-rule:nonzero" transform="matrix(.8 0 0 .8 -25 -20)"/>
	<path d="M244 56c-.11-5.11 3.92-9.74 8.79-10.9 4.62-.52 9.31-.52 13.9.04 4.14.954 7 4.33 8.3 8.22.349 1.04.473 2.46-.527 3.32-2.54.03-3.84-.102-6.37-.102-1.27-1.48-2.09-3.99-4.4-3.94-3.23-.2-6.6-.49-9.75.38-2.93 1.98-1.63 6-1.95 8.96.4 4.2-.92 8.86.91 12.8 3.89 2.59 9.3 1.2 13.6.4.27-1.04.55-2.07.83-3.11 2.72 0 3.1.092 5.84.122 1.83.448 1.9 2.46 1.68 3.33-.839 3.33-2.53 5.56-5.67 7.2-4.16 2.16-9.08 1.67-13.6 1.53-5.87-.21-11.4-5.13-11.6-11.1-.24-5.69-.17-11.4-.06-17.1L244 56Z" style="fill:#9b9b9b;fill-rule:nonzero" transform="matrix(1 0 0 1 -25 -20)"/>
	<path d="M366 55.9c-4.11.02-.997-.065-5.11-.046.012 3.2.006 6.51-.031 9.7 8.61.338 10-.275 18.6.25 4.24.775 3.68 6.12 4.09 9.34-6.02.188-12.1-.388-18.1.625-6.66 1.09-12.2 7.41-11.8 14.2-.3 7.9 6.75 15 14.6 15.2 8.24.288 16.5-.05 24.7.062-.15-11.8.106-23.6-.094-35.3.138-7.59-7-14.4-14.6-13.9-4.11-.1-8.23-.114-12.3-.093L366 55.9Zm8.78 29.3c2.82.022 5.63.156 8.44.094.012 3.24.012 6.48.062 9.72-5.339-.138-10.699.338-16-.25-4.259-.775-4.639-7.24-.875-9 2.77-.488 5.59-.584 8.411-.562l-.038-.002Z" style="fill:#9b9b9b;fill-rule:nonzero" transform="matrix(.8 0 0 .8 -25 -20)"/>
	<path d="M326 47.5c4.18-3.84 10.3-2.58 15.5-2.69 3.66-.105 1.86 7.42 1.86 7.42.038.542-4.47.859-11.3.232-1.13 1.65-2.42 3.39-2.19 5.52-.02 8.77.04 17.5.04 26.3-2.74-.04-5.46-.06-8.19-.09.08-9.07-.05-18.1.02-27.2-.06-3.6 1.41-7.22 4.27-9.49L326 47.5Z" style="fill:#9b9b9b;fill-rule:nonzero" transform="matrix(1 0 0 1 -25 -20)"/>
	<path d="M82 47.7c3.32-.87 7.08-1.3 10.4-.12 3.74 1.68 3.77 6.24 3.78 9.73.47 3.73-2.75 7.3-6.49 7.29-2.97.15-6.41.67-8.88-1.4-2.71-2.12-2.37-5.91-2.5-8.98-.25-2.68 1.2-5.49 3.73-6.52H82Z" style="fill:#97c000;fill-rule:nonzero" transform="matrix(1 0 0 1 -25 -20)"/>
	<path d="M36.9 67.9c2.51-1.26 5.78-.73 7.61 1.46 2.21 2.51 5.16 5.37 4.58 9.04-.66 3.32-3.75 5.33-6.31 7.19-2.55 1.93-6.48 1.63-8.57-.86-2.52-2.73-5.89-6.19-4.37-10.3 1.46-2.93 4.31-4.94 7.06-6.57v.04Z" style="fill:#ed3c32;fill-rule:nonzero" transform="matrix(1 0 0 1 -25 -20)"/>
	<path d="M70 74.5c2.49-.58 5.41.32 6.59 2.72 1.32 2.74 2.82 5.67 2.69 8.79-.57 3.97-4.73 5.52-8.08 6.53-2.91 1.02-6.8.4-8.23-2.65-1.28-2.7-2.73-5.6-2.57-8.65.81-4.47 5.86-5.71 9.6-6.74Z" style="fill:#fbb829;fill-rule:nonzero" transform="matrix(1 0 0 1 -25 -20)"/>
</svg>