<?xml version="1.0" encoding="UTF-8" standalone="no"?>
<!DOCTYPE svg PUBLIC "-//W3C//DTD SVG 1.1//EN" "http://www.w3.org/Graphics/SVG/1.1/DTD/svg11.dtd">
<svg width="100%" height="100%" viewBox="0 0 980 430" version="1.1" xmlns="http://www.w3.org/2000/svg" xmlns:xlink="http://www.w3.org/1999/xlink" xml:space="preserve" xmlns:serif="http://www.serif.com/" style="fill-rule:evenodd;clip-rule:evenodd;">
  <path id="sky" d="M0,0l979.88,0l0,278.695l-979.88,2.391l0,-281.086Z" style="fill:url(#_Linear1);fill-rule:nonzero;"/>
  <g id="sun">
    <ellipse cx="618.829" cy="163.582" rx="59.241" ry="57.397" style="fill:url(#_Radial2);"/>
    <ellipse cx="618.829" cy="165.814" rx="34.424" ry="34.279" style="fill:#ff0;"/>
  </g>
  <path id="mountains_back" d="M2.402,240.908c23.216,-1.275 39.387,-60.426 61.963,-54.846c22.896,7.015 34.424,46.715 71.409,43.048c31.542,-3.029 59.722,-68.717 84.859,-66.166c32.983,-1.275 39.868,69.993 68.528,55.803c23.696,-14.031 44.991,-31.569 53.797,-21.046c8.806,10.682 81.176,71.268 114.639,67.601c33.464,-3.667 85.5,-46.715 111.918,-34.916c26.418,11.638 96.067,44.323 106.634,15.306c10.567,-29.337 23.697,-34.917 40.668,-21.046c16.652,14.03 89.022,-43.048 100.23,-61.064c22.415,-33.482 34.744,-23.756 60.202,-7.813c24.657,15.785 49.474,36.99 77.013,40.976c18.733,1.753 23.376,-2.233 25.938,6.058l0,75.892l-980.2,-1.435l0,-36.192l2.402,-0.16Z" style="fill:#afa3b2;fill-rule:nonzero;"/>
  <path id="mountains" d="M0,253.823c17.452,-5.899 52.837,-14.987 70.929,-28.539c9.927,-7.494 20.975,-29.177 32.823,-43.208c13.609,-18.175 29.46,-10.363 41.469,2.551c18.413,20.249 32.182,52.614 56.039,51.02c7.365,-1.275 14.089,-9.726 20.654,-16.422c12.329,-12.755 18.413,-6.377 29.3,1.276c15.051,10.363 34.584,22.161 45.312,15.146c15.05,-9.247 56.039,-77.646 81.496,-59.151c25.778,18.335 39.868,47.512 66.286,61.224c26.419,13.711 81.977,-13.074 111.117,-1.595c29.141,11.32 37.947,25.988 56.359,2.392c18.413,-23.756 36.986,-24.553 54.758,-11.32c17.613,12.914 41.309,-24.553 64.365,-52.774c22.896,-28.379 41.469,-10.682 73.331,29.815c31.702,40.497 51.075,10.682 69.648,-19.132c18.573,-29.974 24.657,-66.007 43.23,-55.963c18.573,9.886 38.747,85.777 50.275,93.271c11.368,7.653 12.809,8.769 12.809,16.581c0,7.653 0,40.178 0,40.178l-980.2,-0.638l0,-24.712Z" style="fill:#c0c4ca;fill-rule:nonzero;"/>
  <path id="water" d="M0,278.695l979.56,0l0.32,151.305l-979.88,0l0,-151.305Z" style="fill:url(#_Radial3);fill-rule:nonzero;"/>
  <path id="mountains_reflection" d="M0.16,298.624c17.612,4.305 52.677,10.842 70.929,20.408c10.087,5.262 21.295,20.727 33.143,30.612c13.77,12.914 29.621,7.334 41.789,-1.754c18.573,-14.19 32.503,-37.148 56.359,-36.192c7.526,0.957 14.25,7.015 20.815,11.639c12.328,8.928 18.413,4.624 29.46,-0.957c15.051,-7.493 34.744,-15.624 45.632,-10.841c15.05,6.537 56.359,55.005 82.137,41.932c25.778,-13.074 40.028,-33.801 66.606,-43.527c26.579,-9.725 82.617,9.248 111.918,1.116c29.3,-8.131 38.266,-18.335 56.839,-1.594c18.733,16.741 37.306,17.379 55.078,8.131c17.773,-9.247 41.629,17.379 64.845,37.468c23.216,20.089 41.789,7.493 73.651,-21.205c32.023,-28.699 51.396,-7.494 70.129,13.552c18.733,21.205 24.977,46.555 43.55,39.54c18.733,-7.174 39.067,-60.745 50.595,-66.166c5.925,-5.421 6.565,-6.059 6.565,-11.479c0,-5.421 0,-30.612 0,-30.612l-980.2,0l0.16,19.929Z" style="fill:#9b959a;fill-opacity:0.137255;fill-rule:nonzero;"/>
  <g>
    <path id="duck_1" d="M345.14,319.483c0,0 -12.808,-2.232 -19.693,5.261c-6.885,7.653 -4.483,17.538 0,22.003c4.483,4.464 5.444,7.653 2.722,9.566c-2.882,1.913 -12.809,-9.885 -15.851,-11.001c-2.882,-1.116 -8.006,5.261 -9.447,18.494c-1.601,13.234 -1.601,24.075 7.205,27.264c8.806,3.189 28.02,3.029 41.789,1.275c13.77,-1.753 13.93,-11.16 14.57,-14.508c0.48,-3.348 -2.241,-14.19 -9.286,-17.538c-7.045,-3.348 -3.683,-12.755 -1.762,-14.987c1.922,-2.232 3.683,-3.827 3.683,-3.827l-2.722,-9.725c-0.16,0.159 -2.241,-9.885 -11.208,-12.277" style="fill:#fff065;fill-rule:nonzero;"/>
    <path id="path13874" d="M344.34,330.006c0.64,1.913 -0.16,3.986 -1.921,4.624c-1.762,0.478 -3.683,-0.479 -4.323,-2.551c-0.641,-2.073 0.16,-3.986 1.921,-4.624c1.761,-0.478 3.682,0.638 4.323,2.551m10.407,-2.392c0.961,1.435 0.961,3.189 0.16,3.667c-0.8,0.479 -2.241,-0.478 -3.042,-1.913c-0.961,-1.435 -0.961,-3.029 -0.16,-3.507c0.8,-0.638 2.081,0.159 3.042,1.753" style="fill:#fff;fill-rule:nonzero;"/>
    <path id="path13876" d="M343.379,331.122c0,1.116 -0.96,2.073 -2.081,2.073c-1.121,0 -2.082,-0.957 -2.082,-2.073c0,-1.116 0.961,-2.073 2.082,-2.073c1.121,0.16 2.081,0.957 2.081,2.073m11.208,-3.029c0.64,0.956 0.8,2.072 0.32,2.232c-0.48,0.319 -1.441,-0.16 -2.081,-1.116c-0.641,-0.957 -0.801,-1.914 -0.321,-2.232c0.641,-0.319 1.441,0.318 2.082,1.116" style="fill-rule:nonzero;"/>
    <path id="path13878" d="M336.815,336.702c0,0 4.643,1.116 7.525,-1.913c2.882,-3.029 2.882,-4.624 6.885,-3.827c4.162,0.957 4.483,1.754 5.764,1.117c1.28,-0.638 4.002,-0.479 5.283,2.232c1.121,2.71 -2.722,5.899 -2.722,5.899c0,0 2.242,0.319 -0.32,2.391c-2.562,2.073 -7.685,3.827 -12.168,3.986c-4.323,0.16 -11.048,-4.783 -10.247,-9.885" style="fill:#f7a934;fill-rule:nonzero;"/>
    <path id="path13880" d="M338.416,339.094c0,0 3.362,3.188 8.966,3.507c5.444,0.319 12.809,-2.551 13.609,-3.348c0.801,-0.797 4.003,-4.623 -0.64,-5.74c-4.643,-1.116 -6.244,5.421 -10.567,6.378c-4.483,0.797 -11.208,-0.797 -11.368,-0.797" style="fill:#d28011;fill-rule:nonzero;"/>
  </g>
  <g id="duck_2">
    <path d="M259.86,342.742c0,0 -2.779,1.101 -2.61,8.206c0.168,7.204 1.263,10.506 1.263,10.506l30.145,0c0,0 0.842,-4.302 -0.421,-6.804c-1.179,-2.602 -4.968,-8.005 -3.789,-11.107c1.179,-3.102 4.547,-3.102 4.547,-3.102l-2.274,-5.704c0,0 -1.094,-4.002 -3.62,-5.804c-2.274,-2.001 -4.547,-1.3 -7.747,0c-3.2,1.201 -5.895,5.204 -4.8,9.406c1.095,4.303 3.368,4.503 2.61,7.205c-0.757,2.602 -5.81,4.103 -8.757,1.701c-2.863,-2.101 -2.526,-4.803 -4.547,-4.503" style="fill:#fff065;fill-rule:nonzero;"/>
    <path d="M284.027,336.138c0,0 0.505,3.903 2.358,4.503c1.852,0.6 2.694,0 2.694,0l1.853,-0.4l0.252,-0.701c0,0 -1.852,-0.9 -1.768,-1.301c0.084,-0.4 1.768,-1.501 1.937,-3.202c0.084,-1.801 -3.705,1.401 -7.326,1.101" style="fill:#f7a934;fill-rule:nonzero;"/>
    <path d="M285.543,337.839c0,0 1.431,0.801 2.442,1.101c1.01,0.2 1.852,0 1.852,0l-0.505,-0.801l-3.789,-0.3Z" style="fill:#d28011;fill-rule:nonzero;"/>
    <path d="M282.325,334.402c-0.707,-1.011 -0.691,-2.24 0.034,-2.743c0.725,-0.502 1.888,-0.089 2.594,0.922c0.707,1.012 0.692,2.241 -0.034,2.743c-0.725,0.503 -1.888,0.09 -2.594,-0.922Z" style="fill:#fff;"/>
    <clipPath id="_clip4">
      <path d="M282.325,334.402c-0.707,-1.011 -0.691,-2.24 0.034,-2.743c0.725,-0.502 1.888,-0.089 2.594,0.922c0.707,1.012 0.692,2.241 -0.034,2.743c-0.725,0.503 -1.888,0.09 -2.594,-0.922Z"/>
    </clipPath>
    <g clip-path="url(#_clip4)">
      <path d="M283.199,333.431c-0.276,-0.648 -0.17,-1.313 0.237,-1.485c0.406,-0.172 0.961,0.214 1.237,0.862c0.276,0.648 0.171,1.313 -0.236,1.485c-0.407,0.172 -0.961,-0.214 -1.238,-0.862Z"/>
    </g>
  </g>
  <g>
    <path id="field" d="M0,430l0,-152.581c123.766,21.524 202.701,87.372 287.559,152.581l-287.559,0Z" style="fill:#abd224;fill-rule:nonzero;"/>
    <path id="path14108_1_" d="M287.559,429.841c0,-25.351 -167.155,-126.434 -246.731,-143.174c13.77,58.035 55.947,103.474 139.685,143.333" style="fill:#c3e64a;fill-rule:nonzero;"/>
  </g>
  <g id="beach">
    <path id="path14050" d="M979.88,430l-350.643,0c98.628,-74.776 218.711,-123.404 350.643,-124.998l0,124.998Z" style="fill:#fbb829;fill-rule:nonzero;"/>
    <path id="path14110_1_" d="M738.697,430c0,0 79.631,-97.256 212.523,-123.882c-123.766,7.653 -253.616,57.556 -321.983,123.882" style="fill:#fff065;fill-rule:nonzero;"/>
  </g>
  <g id="cloud_3">
    <path id="path14116" d="M924.897,160.373c0,10.431 -8.386,18.776 -18.869,18.776c-10.482,0 -18.869,-8.345 -18.869,-18.776c0,-10.431 8.387,-18.775 18.869,-18.775c10.184,0 18.869,8.643 18.869,18.775Z" style="fill:#fff;fill-rule:nonzero;"/>
    <path id="path14118" d="M942.269,161.863c0,8.643 -7.188,15.796 -15.874,15.796c-8.686,0 -15.874,-7.153 -15.874,-15.796c0,-8.642 7.188,-15.795 15.874,-15.795c8.686,0.298 15.874,6.855 15.874,15.795c0,-0.298 0,-0.298 0,0Zm-47.023,1.491c0,5.066 -4.193,9.238 -9.285,9.238c-5.091,0 -9.284,-4.172 -9.284,-9.238c0,-5.067 4.193,-9.239 9.284,-9.239c5.092,0.298 9.285,4.172 9.285,9.239Zm-26.357,0c0,2.682 -2.096,4.768 -4.792,4.768c-2.695,0 -4.792,-2.086 -5.091,-4.768c0,-2.683 2.096,-4.769 4.792,-5.067l0.299,0c2.696,0.298 4.792,2.384 4.792,5.067Zm89.254,0c0,2.682 -2.097,4.768 -4.792,4.768c-2.696,0 -4.792,-2.086 -4.792,-4.768c0,-2.683 2.096,-4.769 4.792,-5.067c2.695,0.298 4.792,2.384 4.792,5.067Z" style="fill:#fff;fill-rule:nonzero;"/>
  </g>
  <g id="cloud_2">
    <g id="g16356">
      <path id="path14088" d="M754.662,99.7c0,20.815 -17.417,37.467 -38.437,37.467c-21.019,0 -37.835,-16.652 -37.835,-37.467c0,-20.815 16.816,-37.467 37.835,-37.467c21.02,0 38.437,16.652 38.437,37.467Z" style="fill:#fff;fill-rule:nonzero;"/>
      <path id="path14090" d="M789.494,102.674c0,17.246 -14.413,31.52 -31.83,31.52c-17.416,0 -31.83,-13.679 -31.83,-31.52c0,-17.247 14.414,-31.52 31.83,-31.52c17.417,0 31.83,13.678 31.83,31.52Zm-94.288,2.973c0,10.11 -8.408,18.436 -18.618,18.436c-10.209,0 -18.617,-8.326 -18.617,-18.436c0,-10.11 8.408,-18.436 18.617,-18.436c9.609,0.595 18.618,8.326 18.618,18.436Z" style="fill:#fff;fill-rule:nonzero;"/>
    </g>
    <ellipse id="circle14102" cx="652.773" cy="71.268" rx="4.483" ry="4.464" style="fill:#fff;"/>
    <g id="g16401">
      <path id="path14122" d="M786.892,75.958c2.443,14.425 -9.775,27.819 -26.88,29.88c-17.105,2.061 -32.988,-8.243 -35.432,-21.637c-2.443,-14.425 8.553,-27.819 25.658,-29.88c18.327,-3.091 34.21,7.212 36.654,21.637Z" style="fill:#fff;fill-rule:nonzero;"/>
      <path id="path14124" d="M835.763,68.746c3.666,16.485 -10.996,31.94 -30.545,35.031c-19.548,2.061 -37.875,-9.273 -41.541,-25.758c-3.665,-16.486 10.997,-31.941 30.545,-35.032c19.549,-2.06 39.098,9.273 41.541,25.759Zm-97.743,14.425c1.222,8.242 -4.887,15.455 -15.883,17.515c-9.775,1.031 -19.549,-4.121 -20.771,-13.394c-1.222,-8.243 4.887,-16.485 14.662,-17.516c10.996,-1.03 20.77,4.122 21.992,13.395Z" style="fill:#fff;fill-rule:nonzero;"/>
      <path id="path14126" d="M872.417,71.837c2.443,12.364 -8.553,24.728 -23.214,26.789c-15.883,2.06 -29.323,-7.213 -31.767,-19.577c-2.443,-12.364 8.553,-24.728 23.214,-26.789c15.884,-2.06 29.323,6.182 31.767,19.577Z" style="fill:#fff;fill-rule:nonzero;"/>
    </g>
  </g>
  <g id="duck_3">
    <path id="towel" d="M963.709,378.502l-112.559,12.117c-0.64,0 -0.96,0.638 -0.8,1.276l9.927,31.728c0.16,0.478 0.64,0.797 1.121,0.637l117.521,-16.741c0.641,-0.159 1.121,-0.797 0.801,-1.434l-15.051,-27.105c-0.16,-0.319 -0.48,-0.478 -0.96,-0.478Z" style="fill:#d14fab;fill-rule:nonzero;"/>
    <path id="path14038" d="M900.947,322.553c0,0 14.834,-2.769 22.56,6.155c8.036,8.617 5.254,20.004 0,25.235c-5.253,5.232 -6.18,8.925 -3.09,11.079c3.09,2.154 14.834,-11.387 17.925,-12.618c3.399,-1.231 9.271,6.155 11.125,21.235c1.854,15.079 1.854,27.696 -8.344,31.389c-10.198,3.693 -32.141,3.386 -47.902,1.539c-16.07,-2.154 -16.07,-12.925 -16.688,-16.618c-0.618,-3.693 2.472,-16.31 10.816,-20.003c8.035,-3.693 4.018,-14.464 1.855,-17.234c-2.164,-2.769 -4.327,-4.308 -4.327,-4.308l3.09,-11.079c0.309,-0.308 1.546,-8.001 12.98,-14.772" style="fill:#fff065;fill-rule:nonzero;"/>
    <path id="path14040" d="M902.183,334.863c-0.618,2.154 0.309,4.616 2.164,5.232c1.854,0.615 4.326,-0.616 4.944,-2.77c0.619,-2.154 -0.309,-4.616 -2.163,-5.232c-1.854,-0.615 -4.326,0.616 -4.945,2.77m-12.052,-2.77c-0.927,1.847 -0.927,3.693 0,4.001c0.927,0.616 2.472,-0.615 3.399,-2.154c0.927,-1.847 1.236,-3.693 0.309,-4.001c-0.927,-0.923 -2.781,0.308 -3.708,2.154" style="fill:#fff;fill-rule:nonzero;"/>
    <path id="path14042" d="M903.111,336.094c0,1.231 0.927,2.462 2.472,2.462c1.545,0 2.472,-0.923 2.472,-2.462c0,-1.231 -1.236,-2.462 -2.472,-2.462c-1.236,0.308 -2.472,1.231 -2.472,2.462m-12.98,-3.385c-0.618,1.231 -0.927,2.462 -0.309,2.77c0.618,0.307 1.545,-0.308 2.472,-1.231c0.618,-1.231 0.927,-2.462 0.309,-2.77c-0.618,-0.308 -1.854,0 -2.472,1.231" style="fill-rule:nonzero;"/>
    <path id="path14044" d="M910.837,342.557c0,0 -5.254,1.231 -8.654,-2.155c-3.09,-3.385 -3.399,-5.539 -8.035,-4.308c-4.635,0.923 -5.253,2.154 -6.799,1.231c-1.545,-0.615 -4.635,-0.308 -6.181,2.77c-1.236,3.077 3.091,6.77 3.091,6.77c0,0 -2.473,0.308 0.309,2.77c3.09,2.154 8.962,4.308 13.907,4.308c5.563,0 13.289,-5.539 12.362,-11.386" style="fill:#f7a934;fill-rule:nonzero;"/>
    <path id="path14046" d="M908.673,345.326c0,0 -3.708,3.693 -10.198,4.001c-6.49,0.308 -14.834,-2.77 -15.452,-4.001c-0.618,-0.923 -4.327,-5.539 0.618,-6.77c5.254,-1.231 7.108,6.463 12.052,7.386c5.254,1.231 12.98,-0.616 12.98,-0.616" style="fill:#d28011;fill-rule:nonzero;"/>
  </g>
  <g id="cloud">
    <path id="path14122-7" d="M210.252,92.898c3.875,24.25 -15.499,46.768 -42.624,50.232c-27.125,3.465 -52.312,-13.857 -56.187,-36.375c-3.875,-24.25 13.562,-46.768 40.687,-50.232c29.062,-3.464 52.312,12.125 58.124,36.375Z" style="fill:#fff;fill-rule:nonzero;"/>
    <path id="path14124-0" d="M287.752,79.041c5.812,27.714 -17.438,53.696 -48.437,58.893c-31,3.464 -60.062,-15.589 -65.875,-43.304c-3.875,-27.714 17.438,-53.696 48.437,-58.893c31,-1.732 60.062,17.322 65.875,43.304Zm-154.999,25.982c1.938,13.857 -7.75,25.982 -25.187,29.447c-15.5,1.732 -31,-6.929 -32.937,-22.518c-1.938,-13.857 7.75,-27.715 23.249,-29.447c17.438,-3.464 32.938,8.661 34.875,22.518Z" style="fill:#fff;fill-rule:nonzero;"/>
    <path id="path14126-7" d="M322.626,98.095c3.875,20.785 -13.562,41.571 -36.812,45.035c-25.187,3.465 -46.499,-12.125 -50.374,-32.91c-3.875,-20.786 13.562,-41.572 36.812,-45.036c23.25,-3.464 46.499,12.125 50.374,32.911Z" style="fill:#fff;fill-rule:nonzero;"/>
    <ellipse id="circle14106" cx="100.71" cy="62.659" rx="14.25" ry="12.436" style="fill:#fff;"/>
  </g>
  <g id="flying-shopping-bag" serif:id="flying shopping bag">
    <g id="shopping-bag" serif:id="shopping bag">
      <path id="path3931_1_" d="M495.224,260.838c-8.807,-12.436 -14.731,-19.451 -19.214,-22.162" style="fill:none;stroke:#9a9a9b;stroke-width:3.2px;"/>
      <path id="path3931_2_" d="M468.805,254.62c1.761,-11.639 3.042,-10.523 7.365,-15.944" style="fill:none;stroke:#9a9a9b;stroke-width:3.2px;"/>
      <path id="path3044" d="M455.676,247.027l63.084,14.509l-12.169,68.239l-61.482,-24.713l10.567,-58.035Z" style="fill:#aaa;fill-rule:nonzero;"/>
      <g id="duck_4">
        <path id="path13926_1_" d="M492.982,240.908c-0.48,0.16 -7.205,0.16 -10.888,7.175c-3.842,7.015 0.961,10.363 0.961,10.363c0,0 -0.16,4.784 -3.843,5.421c-3.682,0.638 -7.044,3.508 -7.365,8.929c-0.32,5.421 1.601,7.972 1.601,7.972l22.256,5.101c0,0 6.564,-2.869 7.365,-8.769c1.121,-5.899 -7.845,-10.044 -7.205,-14.987c0.64,-4.942 4.483,-0.478 5.124,-10.203c0.48,-9.248 -7.686,-11.002 -8.006,-11.002" style="fill:#fff065;fill-rule:nonzero;"/>
        <path id="path13928_1_" d="M490.58,247.605c0,0 -6.564,-0.319 -7.525,2.072c-0.961,2.392 1.601,3.349 1.601,3.349l11.528,1.753c0,0 2.722,-1.753 0.641,-4.304c-2.082,-1.595 -6.565,-3.03 -6.245,-2.87" style="fill:#f7a934;fill-rule:nonzero;"/>
        <path id="path13930_1_" d="M484.016,251.431c0,0 4.163,-1.116 5.444,-0.478c1.441,0.319 6.244,2.073 6.244,2.073c0,0 -3.042,-2.073 -5.444,-2.87c-2.402,-0.957 -6.084,0 -6.244,1.275m1.601,1.276c0,0 -0.32,0.319 1.601,0.797c1.601,0.478 7.525,0.957 7.525,0.957c0,0 1.121,-0.16 -1.921,-0.957c-3.042,-0.797 -7.205,-0.797 -7.205,-0.797" style="fill:#d28011;fill-rule:nonzero;"/>
        <path d="M488.979,245.692c-0.16,0.956 -0.8,1.753 -1.921,1.594c-1.121,-0.16 -1.281,-0.957 -1.121,-1.913c0.16,-0.957 0.641,-1.754 1.761,-1.435c1.281,0.159 1.601,0.797 1.281,1.754Z" style="fill:#fff;fill-rule:nonzero;"/>
        <path id="path13934_1_" d="M488.499,245.851c-0.16,0.478 -0.801,0.957 -1.281,0.957c-0.48,-0.16 -0.801,-0.638 -0.64,-1.435c0.16,-0.798 0.8,-0.957 1.28,-0.957c0.641,0 0.961,0.478 0.641,1.435" style="fill-rule:nonzero;"/>
        <path d="M494.263,248.402c-0.801,-0.478 -1.121,-1.435 -0.48,-2.392c0.64,-0.956 1.28,-1.116 2.241,-0.637c0.961,0.478 1.281,1.435 0.641,2.391c-0.801,0.957 -1.602,1.116 -2.402,0.638Z" style="fill:#fff;fill-rule:nonzero;"/>
        <clipPath id="_clip5">
          <path d="M494.263,248.402c-0.801,-0.478 -1.121,-1.435 -0.48,-2.392c0.64,-0.956 1.28,-1.116 2.241,-0.637c0.961,0.478 1.281,1.435 0.641,2.391c-0.801,0.957 -1.602,1.116 -2.402,0.638Z" clip-rule="nonzero"/>
        </clipPath>
        <g clip-path="url(#_clip5)">
          <path id="path13934_2_" d="M495.864,247.126c-0.16,0.479 -0.801,0.957 -1.281,0.957c-0.48,-0.159 -0.8,-0.638 -0.64,-1.435c0.16,-0.797 0.8,-0.956 1.281,-0.956c0.64,-0.16 0.96,0.478 0.64,1.434" style="fill-rule:nonzero;"/>
        </g>
      </g>
      <path id="path3040" d="M485.137,338.544l25.297,-7.175l-22.095,-8.291l-3.202,15.466Z" style="fill:#d8d8d8;fill-rule:nonzero;"/>
      <path id="path3042" d="M510.274,331.529l-1.761,-12.436l10.087,-57.398l-20.014,-0.797l-0.48,5.581l-9.607,56.918l21.775,8.132Z" style="fill:#dbdcdd;fill-rule:nonzero;"/>
      <path id="path3854" d="M455.676,247.027l0.961,2.87l-8.006,47.831l7.045,-50.701Z" style="fill:#c3c3c3;fill-rule:nonzero;"/>
      <path id="path3856" d="M502.429,265.203l-3.683,-4.305l-10.888,62.659l14.571,-58.354Z" style="fill:#cecece;fill-rule:nonzero;"/>
      <path id="path3046" d="M438.704,247.027l17.933,3.03l-13.45,54.367l-16.011,-0.956l5.604,-15.944l5.924,-40.497Z" style="fill:#d4d4d4;fill-rule:nonzero;"/>
      <path id="path3038" d="M438.544,247.027l63.724,18.017l-9.286,52.773l-8.006,20.727l-58.12,-35.076l5.604,-15.944l6.084,-40.497Z" style="fill:#f2f2f2;fill-rule:nonzero;"/>
      <path id="path3931" d="M456.317,261.536c3.042,-1.594 15.69,-21.683 19.533,-22.321c1.601,5.74 -0.48,18.973 2.082,29.336" style="fill:none;stroke:#afafaf;stroke-width:3.2px;"/>
      <path d="M492.982,317.916l-7.845,20.727l-58.121,-35.076l5.604,-15.944l60.362,30.293Z" style="fill:#f9f9f9;fill-rule:nonzero;"/>
      <path d="M486.898,378.98l-69.488,-34.597c-0.481,-0.319 -0.321,-0.957 0.16,-1.276l16.971,-5.74c0.161,0 0.321,0 0.481,0l78.935,33.004c0.48,0.319 0.64,0.478 0,0.638l-27.059,7.971c-0.16,0 0.16,0 0,0Z" style="fill-opacity:0.1;fill-rule:nonzero;"/>
    </g>
    <g id="balloons">
      <g>
        <path id="path14796_14_" d="M450.873,130.26c0.8,-0.16 0.96,-1.435 5.924,5.42c-0.16,0.638 -6.405,2.551 -7.045,1.914c-0.801,-8.769 0.32,-7.175 1.121,-7.334Z" style="fill:url(#_Radial6);fill-rule:nonzero;"/>
        <path id="path14798_14_" d="M468.965,86.893c2.722,16.103 -7.045,42.41 -20.974,44.642c-14.57,2.392 -31.702,-19.451 -34.264,-35.554c-2.722,-16.103 7.205,-32.844 22.576,-35.395c15.05,-2.392 29.94,10.363 32.662,26.307Z" style="fill:url(#_Radial7);fill-rule:nonzero;"/>
      </g>
      <g>
        <path id="path14796_13_" d="M487.058,115.113c0.8,0 1.441,-0.957 4.483,6.696c-0.32,0.638 -7.365,0.638 -7.845,-0.159c1.28,-8.45 2.721,-6.537 3.362,-6.537Z" style="fill:url(#_Radial8);fill-rule:nonzero;"/>
        <path id="path14798_13_" d="M516.518,76.848c-1.12,16.103 -16.491,39.381 -30.901,38.425c-14.57,-0.957 -26.258,-26.148 -25.138,-42.411c1.121,-16.103 14.731,-30.133 30.101,-29.176c15.211,0.956 26.899,17.059 25.938,33.162Z" style="fill:url(#_Radial9);fill-rule:nonzero;"/>
      </g>
      <g>
        <path id="path14796_12_" d="M520.521,138.391c0.801,0 1.441,-0.957 4.003,7.174c-0.48,0.638 -7.365,0 -7.846,-0.797c2.082,-8.609 3.203,-6.537 3.843,-6.377Z" style="fill:url(#_Radial10);fill-rule:nonzero;"/>
        <path id="path14798_12_" d="M555.265,102.518c-2.401,16.103 -19.693,38.105 -33.783,35.873c-14.41,-2.232 -24.017,-28.22 -21.615,-44.164c2.401,-16.103 16.972,-29.018 32.502,-26.626c15.531,2.392 25.458,18.814 22.896,34.917Z" style="fill:url(#_Radial11);fill-rule:nonzero;"/>
      </g>
      <g>
        <path id="path14796_11_" d="M463.682,106.663c0.8,-0.159 0.96,-1.435 5.924,5.421c-0.16,0.638 -7.045,2.232 -7.686,1.594c-0.64,-8.45 1.121,-6.696 1.762,-7.015Z" style="fill:url(#_Radial12);fill-rule:nonzero;"/>
        <path id="path14798_11_" d="M483.696,62.977c2.561,16.103 -7.366,42.251 -21.295,44.483c-14.57,2.392 -31.542,-19.611 -34.104,-35.714c-2.562,-16.103 7.525,-32.844 22.896,-35.235c15.371,-2.392 30.101,10.363 32.503,26.466Z" style="fill:url(#_Radial13);fill-rule:nonzero;"/>
      </g>
      <g>
        <path id="path14796_10_" d="M502.909,123.723c0.8,0.319 1.601,-0.798 2.562,7.653c-0.321,0.478 -7.365,-1.435 -7.526,-2.233c3.523,-7.971 4.163,-5.739 4.964,-5.42Z" style="fill:url(#_Radial14);fill-rule:nonzero;"/>
        <path id="path14798_10_" d="M541.496,94.705c-5.444,15.306 -26.739,33.641 -40.028,29.018c-13.93,-4.943 -18.413,-32.207 -12.969,-47.512c5.444,-15.306 22.255,-25.351 36.986,-20.089c14.41,4.783 21.454,23.118 16.011,38.583Z" style="fill:url(#_Radial15);fill-rule:nonzero;"/>
      </g>
      <path d="M502.909,123.723c0,0 -26.739,86.892 -26.739,117.504" style="fill:none;stroke:#9b9b9b;stroke-width:0.16px;stroke-miterlimit:10;"/>
      <path d="M451.513,130.419c0,0 23.216,78.283 24.657,110.808" style="fill:none;stroke:#9b9b9b;stroke-width:0.16px;stroke-miterlimit:10;"/>
      <path d="M520.521,138.391c0,0 -39.227,67.601 -44.351,102.199" style="fill:none;stroke:#9b9b9b;stroke-width:0.16px;stroke-miterlimit:10;"/>
      <path d="M487.858,115.432c0,0 -11.688,94.546 -11.688,126.274" style="fill:none;"/>
      <clipPath id="_clip16">
        <path d="M487.858,115.432c0,0 -11.688,94.546 -11.688,126.274" clip-rule="nonzero"/>
      </clipPath>
      <g clip-path="url(#_clip16)">
        <path d="M463.682,106.663c0,0 2.203,13.458 4.776,34.602c3.105,25.511 6.749,62.212 7.712,99.962" style="fill:none;stroke:#9b9b9b;stroke-width:0.16px;stroke-miterlimit:10;"/>
      </g>
      <path d="M487.858,115.432c0,0 -11.688,94.546 -11.688,126.274" style="fill:none;stroke:#9b9b9b;stroke-width:0.16px;stroke-miterlimit:10;"/>
    </g>
  </g>
  <defs>
    <linearGradient id="_Linear1" x1="0" y1="0" x2="1" y2="0" gradientUnits="userSpaceOnUse" gradientTransform="matrix(1.72905e-14,-281.185,282.375,1.72176e-14,489.927,281.151)">
      <stop offset="0" style="stop-color:#fff;stop-opacity:1"/>
      <stop offset="0.29" style="stop-color:#def2ff;stop-opacity:1"/>
      <stop offset="1" style="stop-color:#6bacdd;stop-opacity:1"/>
    </linearGradient>
    <radialGradient id="_Radial2" cx="0" cy="0" r="1" gradientUnits="userSpaceOnUse" gradientTransform="matrix(59.2559,0,0,57.3572,619.018,163.586)">
      <stop offset="0" style="stop-color:#fff;stop-opacity:1"/>
      <stop offset="0.12" style="stop-color:#fffef7;stop-opacity:0.878431"/>
      <stop offset="0.31" style="stop-color:#fffbe1;stop-opacity:0.690196"/>
      <stop offset="0.54" style="stop-color:#fff7bc;stop-opacity:0.454902"/>
      <stop offset="0.81" style="stop-color:#fff18a;stop-opacity:0.188235"/>
      <stop offset="1" style="stop-color:#ffec62;stop-opacity:0"/>
    </radialGradient>
    <radialGradient id="_Radial3" cx="0" cy="0" r="1" gradientUnits="userSpaceOnUse" gradientTransform="matrix(350.433,0,0,-348.956,489.73,354.209)">
      <stop offset="0" style="stop-color:#a6e4ff;stop-opacity:1"/>
      <stop offset="1" style="stop-color:#126da6;stop-opacity:1"/>
    </radialGradient>
    <radialGradient id="_Radial6" cx="0" cy="0" r="1" gradientUnits="userSpaceOnUse" gradientTransform="matrix(5.24447,-1.63064,-3.04358,-10.1854,477.086,50.8562)">
      <stop offset="0" style="stop-color:#a0dfff;stop-opacity:1"/>
      <stop offset="1" style="stop-color:#00a6d4;stop-opacity:0.980392"/>
    </radialGradient>
    <radialGradient id="_Radial7" cx="0" cy="0" r="1" gradientUnits="userSpaceOnUse" gradientTransform="matrix(23.3941,23.2447,22.4936,-24.8094,431.862,84.6189)">
      <stop offset="0" style="stop-color:#91e8ff;stop-opacity:0.9"/>
      <stop offset="1" style="stop-color:#2e8de9;stop-opacity:0.9"/>
    </radialGradient>
    <radialGradient id="_Radial8" cx="0" cy="0" r="1" gradientUnits="userSpaceOnUse" gradientTransform="matrix(4.55488,7.36525,1.85213,-4.36812,534.284,43.919)">
      <stop offset="0" style="stop-color:#a0dfff;stop-opacity:0.698039"/>
      <stop offset="1" style="stop-color:#fff655;stop-opacity:0.898039"/>
    </radialGradient>
    <radialGradient id="_Radial9" cx="0" cy="0" r="1" gradientUnits="userSpaceOnUse" gradientTransform="matrix(17.3205,28.0272,26.4873,-18.1058,480.917,66.1196)">
      <stop offset="0" style="stop-color:#efff94;stop-opacity:0.628235"/>
      <stop offset="1" style="stop-color:#ffe82a;stop-opacity:0.9"/>
    </radialGradient>
    <radialGradient id="_Radial10" cx="0" cy="0" r="1" gradientUnits="userSpaceOnUse" gradientTransform="matrix(3.9468,7.708,2.19597,-4.20436,573.264,71.1125)">
      <stop offset="0" style="stop-color:#a0dfff;stop-opacity:0.698039"/>
      <stop offset="1" style="stop-color:#ff1515;stop-opacity:0.898039"/>
    </radialGradient>
    <radialGradient id="_Radial11" cx="0" cy="0" r="1" gradientUnits="userSpaceOnUse" gradientTransform="matrix(15.0199,29.3138,27.8534,-15.944,520.828,88.791)">
      <stop offset="0" style="stop-color:#ffcaca;stop-opacity:0.808235"/>
      <stop offset="1" style="stop-color:#bd1e1e;stop-opacity:0.9"/>
    </radialGradient>
    <radialGradient id="_Radial12" cx="0" cy="0" r="1" gradientUnits="userSpaceOnUse" gradientTransform="matrix(6.10759,6.1504,0.813736,-4.66897,493.669,26.6979)">
      <stop offset="0" style="stop-color:#a0dfff;stop-opacity:0.698039"/>
      <stop offset="1" style="stop-color:#00bf0c;stop-opacity:0.898039"/>
    </radialGradient>
    <radialGradient id="_Radial13" cx="0" cy="0" r="1" gradientUnits="userSpaceOnUse" gradientTransform="matrix(23.232,23.4054,21.6941,-23.5971,446.703,60.4249)">
      <stop offset="0" style="stop-color:#63f0c8;stop-opacity:0.9"/>
      <stop offset="1" style="stop-color:#00b88f;stop-opacity:0.9"/>
    </radialGradient>
    <radialGradient id="_Radial14" cx="0" cy="0" r="1" gradientUnits="userSpaceOnUse" gradientTransform="matrix(2.43249,8.3059,2.94719,-3.72091,567.498,67.3479)">
      <stop offset="0" style="stop-color:#a0dfff;stop-opacity:0.698039"/>
      <stop offset="1" style="stop-color:#7e3fff;stop-opacity:0.898039"/>
    </radialGradient>
    <radialGradient id="_Radial15" cx="0" cy="0" r="1" gradientUnits="userSpaceOnUse" gradientTransform="matrix(9.24653,31.5946,30.3574,-10.4727,510.06,74.7417)">
      <stop offset="0" style="stop-color:#ccb3ff;stop-opacity:0.854118"/>
      <stop offset="0.58" style="stop-color:#b14bff;stop-opacity:0.885882"/>
      <stop offset="1" style="stop-color:#a41aff;stop-opacity:0.9"/>
    </radialGradient>
  </defs>
</svg>