<svg xmlns="http://www.w3.org/2000/svg" xmlns:serif="http://www.serif.com/" fill-rule="evenodd" clip-rule="evenodd" viewBox="0 0 980 430">
  <path id="sky" fill="url(#_Linear1)" fill-rule="nonzero" d="M0 0h980l-.1 278.7H0V0z" transform="translate(-.2)"/>
  <g id="sun">
    <ellipse cx="618.8" cy="163.6" fill="url(#_Radial2)" rx="59.2" ry="57.4" transform="translate(-1.2)"/>
    <ellipse cx="618.8" cy="165.8" fill="#ff0" rx="34.4" ry="34.3" transform="translate(-1.2)"/>
  </g>
  <path id="mountains_back" fill="#afa3b2" fill-rule="nonzero" d="M2.4 241c23.2-1.4 39.4-60.5 62-55 22.9 7 34.4 46.8 71.4 43.1 31.5-3 59.7-68.7 84.8-66.2 33-1.2 39.9 70 68.6 55.8 23.7-14 45-31.5 53.8-21 8.8 10.7 81.1 71.3 114.6 67.6 33.5-3.7 85.5-46.7 112-35 26.3 11.7 96 44.4 106.5 15.4 10.6-29.3 23.7-35 40.7-21 16.7 14 89-43.1 100.2-61.1 22.5-33.5 34.8-23.8 60.2-7.8 24.7 15.8 49.5 37 77 41 18.8 1.7 23.4-2.3 26 6v75.9L0 277.3V241l2.4-.2z" transform="translate(-.2)"/>
  <path id="mountains" fill="#c0c4ca" fill-rule="nonzero" d="M0 253.8c17.5-5.9 52.8-15 71-28.5 9.9-7.5 20.9-29.2 32.8-43.2 13.6-18.2 29.4-10.4 41.4 2.5 18.4 20.3 32.2 52.6 56 51 7.4-1.2 14.1-9.7 20.7-16.4 12.3-12.7 18.4-6.4 29.3 1.3 15 10.4 34.6 22.2 45.3 15.1 15-9.2 56-77.6 81.5-59.1 25.8 18.3 39.9 47.5 66.3 61.2 26.4 13.7 82-13 111.1-1.6 29.2 11.3 38 26 56.4 2.4 18.4-23.7 37-24.5 54.7-11.3 17.7 13 41.4-24.6 64.4-52.8 22.9-28.4 41.5-10.7 73.3 29.8 31.7 40.5 51.1 10.7 69.7-19 18.6-30 24.6-66.1 43.2-56 18.6 9.8 38.8 85.7 50.3 93.2 11.4 7.7 12.8 8.8 12.8 16.6v40.2L0 278.5v-24.7z" transform="translate(-.2)"/>
  <path id="water" fill="url(#_Radial3)" fill-rule="nonzero" d="M0 278.7l980 .1V430H0V278.7z" transform="translate(-.2)"/>
  <path id="mountains_reflection" fill="#9b959a" fill-opacity=".1" fill-rule="nonzero" d="M.2 297.6c17.6 4.3 52.6 11.9 70.9 21.4 10 5.3 21.3 20.8 33.1 30.6 13.8 13 29.7 7.4 41.8-1.7 18.6-14.2 32.5-37.2 56.4-36.2 7.5 1 14.2 7 20.8 11.6 12.3 9 18.4 4.7 29.5-1 15-7.4 34.7-15.5 45.6-10.8 15 6.6 56.3 55 82.1 42 25.8-13.1 40-33.8 66.6-43.6 26.6-9.7 82.6 9.3 112 1.2 29.2-8.2 38.2-18.4 56.8-1.6 18.7 16.7 37.3 17.3 55 8.1 17.8-9.3 41.7 17.4 65 37.5 23.1 20 41.7 7.5 73.6-21.2 32-28.7 51.4-7.5 70 13.5 18.8 21.2 25 46.6 43.6 39.6 18.8-7.2 39.1-60.8 50.6-66.2 6-5.4 6.4-6 6.4-11.4l.2-30.7H0l.2 19z" transform="translate(-.2)"/>
  <g transform="translate(-.2)">
    <path id="duck_1" fill="#fff065" fill-rule="nonzero" d="M345.1 319.5s-12.8-2.2-19.7 5.2a16.2 16.2 0 0 0 0 22c4.5 4.5 5.5 7.7 2.8 9.6-3 2-12.8-9.9-15.9-11-2.9-1.1-8 5.3-9.4 18.5-1.6 13.2-1.6 24 7.2 27.3 8.8 3.2 28 3 41.8 1.2 13.7-1.7 13.9-11.1 14.5-14.5.5-3.3-2.2-14.2-9.3-17.5-7-3.3-3.6-12.8-1.7-15 2-2.2 3.7-3.8 3.7-3.8l-2.8-9.7c-.1.1-2.2-10-11.2-12.3"/>
    <path id="path13874" fill="#fff" fill-rule="nonzero" d="M344.3 330c.7 2-.1 4-1.9 4.6-1.7.5-3.7-.4-4.3-2.5-.6-2 .2-4 2-4.6 1.7-.5 3.6.6 4.2 2.5m10.4-2.4c1 1.4 1 3.2.2 3.7s-2.2-.5-3-2c-1-1.4-1-3-.2-3.4.8-.7 2 .1 3 1.7"/>
    <path id="path13876" fill-rule="nonzero" d="M343.4 331.1c0 1.1-1 2-2.1 2s-2-.9-2-2c0-1 .9-2 2-2 1.1.1 2 1 2 2m11.3-3c.6 1 .8 2 .3 2.2-.5.3-1.4-.1-2-1-.7-1-.9-2-.4-2.3.6-.3 1.4.3 2 1"/>
    <path id="path13878" fill="#f7a934" fill-rule="nonzero" d="M336.8 336.7s4.7 1.1 7.5-2c3-3 3-4.5 7-3.7 4 1 4.4 1.7 5.7 1 1.3-.6 4-.4 5.3 2.3 1 2.7-2.8 6-2.8 6s2.3.2-.3 2.3a23 23 0 0 1-12.1 4c-4.4.1-11-4.8-10.3-9.9"/>
    <path id="path13880" fill="#d28011" fill-rule="nonzero" d="M338.4 339s3.4 3.3 9 3.6c5.4.3 12.8-2.6 13.6-3.3.8-.8 4-4.7-.6-5.8-4.7-1.1-6.3 5.4-10.6 6.4-4.5.8-11.2-.8-11.4-.8"/>
  </g>
  <g id="duck_2">
    <path fill="#fff065" fill-rule="nonzero" d="M259.9 342.7s-2.8 1.1-2.6 8.2c.1 7.3 1.2 10.6 1.2 10.6h30.2s.8-4.3-.5-6.9c-1.1-2.6-5-8-3.8-11 1.2-3.2 4.6-3.2 4.6-3.2l-2.3-5.7s-1-4-3.6-5.8c-2.3-2-4.5-1.3-7.7 0a8.1 8.1 0 0 0-4.8 9.4c1 4.3 3.3 4.5 2.6 7.2-.8 2.6-5.8 4.1-8.8 1.7-2.9-2-2.5-4.8-4.5-4.5" transform="translate(-.2)"/>
    <path fill="#f7a934" fill-rule="nonzero" d="M284 336.1s.5 4 2.4 4.5c1.8.6 2.7 0 2.7 0l1.8-.4.3-.7s-1.9-.9-1.8-1.3c.1-.4 1.8-1.5 2-3.2 0-1.8-3.8 1.4-7.4 1.1" transform="translate(-.2)"/>
    <path fill="#d28011" fill-rule="nonzero" d="M285.5 337.8s1.5.8 2.5 1.1c1 .2 1.8 0 1.8 0l-.5-.8-3.8-.3z" transform="translate(-.2)"/>
    <path fill="#fff" d="M282.3 334.4c-.7-1-.7-2.2 0-2.7.8-.5 2-.1 2.7.9.7 1 .6 2.2 0 2.7-.8.5-2 .1-2.7-.9z" transform="translate(-.2)"/>
    <g transform="translate(-.2)">
      <clipPath id="_clip4">
        <path d="M282.3 334.4c-.7-1-.7-2.2 0-2.7.8-.5 2-.1 2.7.9.7 1 .6 2.2 0 2.7-.8.5-2 .1-2.7-.9z"/>
      </clipPath>
      <g clip-path="url(#_clip4)">
        <path d="M283.2 333.4c-.3-.6-.2-1.3.2-1.5.4-.1 1 .3 1.3 1 .2.6.1 1.2-.3 1.4-.4.2-1-.2-1.2-.9z"/>
      </g>
    </g>
  </g>
  <g transform="translate(-.2)">
    <path id="field" fill="#abd224" fill-rule="nonzero" d="M0 430V277.4C123.8 299 202.7 364.8 287.6 430H0z"/>
    <path id="path14108_1_" fill="#c3e64a" fill-rule="nonzero" d="M287.6 430c0-25.4-167.2-126.6-246.8-143.3 13.8 58 56 103.4 139.7 143.3"/>
  </g>
  <g id="beach" transform="translate(-.2)">
    <path id="path14050" fill="#fbb829" fill-rule="nonzero" d="M980 430H629.2C728 355.2 848.1 306.6 980 305v125z"/>
    <path id="path14110_1_" fill="#fff065" fill-rule="nonzero" d="M738.7 430s79.6-97.3 212.5-123.9c-123.7 7.7-253.6 57.6-322 123.9"/>
  </g>
  <g id="cloud_3" transform="translate(-.2)">
    <path id="path14116" fill="#fff" fill-rule="nonzero" d="M924.9 160.4c0 10.4-8.4 18.7-18.9 18.7a18.7 18.7 0 1 1 0-37.5c10.2 0 18.9 8.6 18.9 18.8z"/>
    <path id="path14118" fill="#fff" fill-rule="nonzero" d="M942.3 161.9a16 16 0 0 1-15.9 15.8 16 16 0 0 1-15.9-15.8 16 16 0 0 1 15.9-15.8 16 16 0 0 1 15.9 15.8c0-.3 0-.3 0 0zm-47 1.5a9.3 9.3 0 0 1-18.6 0c0-5.1 4.2-9.3 9.3-9.3 5 .3 9.2 4.2 9.2 9.3zm-26.4 0c0 2.6-2.1 4.7-4.8 4.7-2.7 0-4.8-2-5-4.7 0-2.7 2-4.8 4.7-5.1h.3c2.7.3 4.8 2.4 4.8 5zm89.2 0c0 2.6-2 4.7-4.7 4.7s-4.8-2-4.8-4.7 2-4.8 4.8-5.1c2.6.3 4.7 2.4 4.7 5z"/>
  </g>
  <g id="cloud_2" transform="translate(-.2)">
    <g id="g16356" fill="#fff" fill-rule="nonzero">
      <path id="path14088" d="M754.7 99.7a38 38 0 0 1-38.5 37.5 37.5 37.5 0 1 1 0-75 38 38 0 0 1 38.5 37.5z"/>
      <path id="path14090" d="M789.5 102.7a31.9 31.9 0 0 1-63.7 0 31.9 31.9 0 0 1 63.7 0zm-94.3 3a18.6 18.6 0 0 1-37.2 0c0-10.2 8.4-18.5 18.6-18.5 9.6.6 18.6 8.3 18.6 18.4z"/>
    </g>
    <ellipse id="circle14102" cx="652.8" cy="71.3" fill="#fff" rx="4.5" ry="4.5"/>
    <g id="g16401" fill="#fff" fill-rule="nonzero">
      <path id="path14122" d="M786.9 76c2.4 14.4-9.8 27.8-26.9 29.8-17 2.1-33-8.2-35.4-21.6-2.5-14.4 8.5-27.8 25.6-29.9 18.4-3 34.2 7.2 36.7 21.7z"/>
      <path id="path14124" d="M835.8 68.7c3.6 16.5-11 32-30.6 35-19.5 2.1-37.9-9.2-41.5-25.7-3.7-16.5 11-32 30.5-35 19.6-2 39.1 9.3 41.6 25.7zM738 83.2c1.2 8.2-4.9 15.4-15.9 17.5-9.7 1-19.5-4.1-20.7-13.4-1.3-8.3 4.9-16.5 14.6-17.5 11-1 20.8 4.1 22 13.4z"/>
      <path id="path14126" d="M872.4 71.8c2.5 12.4-8.5 24.8-23.2 26.8-15.9 2-29.3-7.2-31.8-19.6-2.4-12.3 8.6-24.7 23.3-26.7 15.8-2.1 29.3 6.1 31.7 19.5z"/>
    </g>
  </g>
  <g id="duck_3" transform="translate(-.2)">
    <path id="towel" fill="#d14fab" fill-rule="nonzero" d="M963.7 378.5l-112.6 12.1c-.6 0-1 .7-.8 1.3l10 31.7c.1.5.6.8 1.1.7l117.5-16.8c.7-.1 1.1-.8.8-1.4l-15-27.1c-.2-.3-.5-.5-1-.5z"/>
    <path id="path14038" fill="#fff065" fill-rule="nonzero" d="M901 322.6s14.8-2.8 22.5 6.1c8 8.6 5.3 20 0 25.2-5.2 5.3-6.2 9-3 11.1 3 2.2 14.8-11.4 17.8-12.6 3.4-1.2 9.3 6.2 11.2 21.2 1.8 15.1 1.8 27.7-8.4 31.4-10.2 3.7-32.1 3.4-47.9 1.6-16-2.2-16-13-16.7-16.7-.6-3.6 2.5-16.3 10.8-20 8-3.6 4-14.4 1.9-17.2-2.2-2.8-4.3-4.3-4.3-4.3l3-11c.4-.4 1.6-8 13-14.8"/>
    <path id="path14040" fill="#fff" fill-rule="nonzero" d="M902.2 334.9c-.6 2.1.3 4.6 2.1 5.2 1.9.6 4.4-.6 5-2.8.6-2.1-.3-4.6-2.2-5.2-1.8-.6-4.3.6-5 2.8m-12-2.8c-.9 1.8-.9 3.7 0 4 1 .6 2.5-.6 3.4-2.2 1-1.8 1.3-3.7.3-4-.9-.9-2.7.3-3.7 2.2"/>
    <path id="path14042" fill-rule="nonzero" d="M903.1 336c0 1.3 1 2.6 2.5 2.6s2.5-1 2.5-2.5c0-1.2-1.3-2.5-2.5-2.5-1.3.3-2.5 1.3-2.5 2.5m-13-3.4c-.6 1.2-.9 2.5-.3 2.8.6.3 1.6-.3 2.5-1.3.6-1.2 1-2.4.3-2.7-.6-.3-1.9 0-2.5 1.2"/>
    <path id="path14044" fill="#f7a934" fill-rule="nonzero" d="M910.8 342.6s-5.2 1.2-8.6-2.2c-3.1-3.4-3.4-5.5-8-4.3-4.7 1-5.3 2.1-6.9 1.2a5 5 0 0 0-6.1 2.8c-1.3 3 3 6.8 3 6.8s-2.4.3.4 2.7c3 2.2 9 4.3 13.9 4.3 5.5 0 13.3-5.5 12.3-11.3"/>
    <path id="path14046" fill="#d28011" fill-rule="nonzero" d="M908.7 345.3s-3.7 3.7-10.2 4c-6.5.3-14.9-2.7-15.5-4-.6-.9-4.3-5.5.6-6.7 5.3-1.3 7.1 6.4 12 7.3 5.3 1.3 13-.6 13-.6"/>
  </g>
  <g id="cloud" transform="translate(-.2)">
    <path id="path14122-7" fill="#fff" fill-rule="nonzero" d="M210.3 92.9c3.8 24.2-15.5 46.8-42.7 50.2-27.1 3.5-52.3-13.8-56.2-36.3-3.8-24.3 13.6-46.8 40.7-50.3 29-3.4 52.3 12.1 58.2 36.4z"/>
    <path id="path14124-0" fill="#fff" fill-rule="nonzero" d="M287.8 79c5.8 27.8-17.5 53.7-48.5 59-31 3.4-60-15.7-65.9-43.4C169.6 67 191 41 222 35.7c31-1.7 60 17.4 65.9 43.3zm-155 26c1.9 13.9-7.8 26-25.2 29.5-15.5 1.7-31-7-33-22.5A26.1 26.1 0 0 1 98 82.5c17.4-3.5 33 8.7 34.9 22.5z"/>
    <path id="path14126-7" fill="#fff" fill-rule="nonzero" d="M322.6 98c3.9 20.9-13.5 41.7-36.8 45.1-25.2 3.5-46.5-12-50.4-32.9-3.8-20.8 13.6-41.6 36.9-45 23.2-3.5 46.5 12.1 50.3 32.9z"/>
    <ellipse id="circle14106" cx="100.7" cy="62.7" fill="#fff" rx="14.3" ry="12.4"/>
  </g>
  <g id="flying-shopping-bag" transform="translate(-.2)" serif:id="flying shopping bag">
    <g id="shopping-bag" serif:id="shopping bag">
      <path id="path3931_1_" fill="none" stroke="#9a9a9b" stroke-width="3.2" d="M495.2 260.8c-8.8-12.4-14.7-19.4-19.2-22.1"/>
      <path id="path3931_2_" fill="none" stroke="#9a9a9b" stroke-width="3.2" d="M468.8 254.6c1.8-11.6 3-10.5 7.4-16"/>
      <path id="path3044" fill="#aaa" fill-rule="nonzero" d="M455.7 247l63 14.5-12.1 68.3L445 305l10.6-58z"/>
      <g id="duck_4">
        <path id="path13926_1_" fill="#fff065" fill-rule="nonzero" d="M493 241c-.5 0-7.2 0-11 7-3.7 7.1 1 10.4 1 10.4s-.1 4.8-3.8 5.5c-3.7.6-7 3.5-7.4 8.9-.3 5.4 1.6 8 1.6 8l22.3 5s6.6-2.8 7.4-8.7c1-5.9-7.9-10-7.2-15 .6-5 4.4-.5 5-10.2.6-9.2-7.6-11-8-11"/>
        <path id="path13928_1_" fill="#f7a934" fill-rule="nonzero" d="M490.6 247.6s-6.6-.3-7.5 2c-1 2.5 1.6 3.4 1.6 3.4l11.5 1.8s2.7-1.8.6-4.3a24 24 0 0 0-6.2-2.9"/>
        <path id="path13930_1_" fill="#d28011" fill-rule="nonzero" d="M484 251.4s4.2-1 5.5-.4c1.4.3 6.2 2 6.2 2s-3-2-5.4-2.8c-2.4-1-6.1 0-6.3 1.2m1.6 1.3s-.3.3 1.6.8c1.6.5 7.5 1 7.5 1s1.2-.2-1.9-1c-3-.8-7.2-.8-7.2-.8"/>
        <path fill="#fff" fill-rule="nonzero" d="M489 245.7c-.2 1-.8 1.7-2 1.6-1-.2-1.2-1-1-2 .1-.9.6-1.7 1.7-1.4 1.3.2 1.6.8 1.3 1.8z"/>
        <path id="path13934_1_" fill-rule="nonzero" d="M488.5 245.9c-.2.4-.8 1-1.3 1-.5-.3-.8-.7-.6-1.5.1-.8.8-1 1.3-1 .6 0 1 .5.6 1.5"/>
        <path fill="#fff" fill-rule="nonzero" d="M494.3 248.4c-.8-.5-1.2-1.4-.5-2.4.6-1 1.3-1.1 2.2-.6 1 .5 1.3 1.4.7 2.4-.8 1-1.6 1-2.4.6z"/>
        <clipPath id="_clip5">
          <path d="M494.3 248.4c-.8-.5-1.2-1.4-.5-2.4.6-1 1.3-1.1 2.2-.6 1 .5 1.3 1.4.7 2.4-.8 1-1.6 1-2.4.6z"/>
        </clipPath>
        <g clip-path="url(#_clip5)">
          <path fill-rule="nonzero" d="M495.9 247.1c-.2.5-.8 1-1.3 1-.5-.2-.8-.7-.7-1.5.2-.7.8-1 1.3-1 .7 0 1 .6.7 1.5"/>
        </g>
      </g>
      <path id="path3040" fill="#d8d8d8" fill-rule="nonzero" d="M485.1 338.5l25.3-7.1-22-8.3-3.3 15.4z"/>
      <path id="path3042" fill="#dbdcdd" fill-rule="nonzero" d="M510.3 331.5l-1.8-12.4 10.1-57.4-20-.8-.5 5.6-9.6 56.9 21.8 8.1z"/>
      <path id="path3854" fill="#c3c3c3" fill-rule="nonzero" d="M455.7 247l1 2.9-8 47.8 7-50.7z"/>
      <path id="path3856" fill="#cecece" fill-rule="nonzero" d="M502.4 265.2l-3.7-4.3-10.8 62.7 14.5-58.4z"/>
      <path id="path3046" fill="#d4d4d4" fill-rule="nonzero" d="M438.7 247l18 3-13.5 54.4-16-1 5.6-15.9 5.9-40.5z"/>
      <path id="path3038" fill="#f2f2f2" fill-rule="nonzero" d="M438.5 247l63.8 18-9.3 52.8-8 20.7-58.1-35 5.6-16 6-40.5z"/>
      <path id="path3931" fill="none" stroke="#afafaf" stroke-width="3.2" d="M456.3 261.5c3-1.6 15.7-21.6 19.6-22.3 1.6 5.8-.5 19 2 29.4"/>
      <path fill="#f9f9f9" fill-rule="nonzero" d="M493 318l-7.9 20.6-58-35 5.5-16L493 318z"/>
      <path fill-opacity=".1" fill-rule="nonzero" d="M486.9 379l-69.5-34.6c-.5-.3-.3-1 .2-1.3l17-5.7h.4l79 33c.4.3.6.4 0 .6l-27.1 8c-.2 0 .2 0 0 0z"/>
    </g>
    <g id="balloons">
      <g fill-rule="nonzero">
        <path id="path14796_14_" fill="url(#_Radial6)" d="M450.9 130.3c.8-.2 1-1.5 5.9 5.4-.2.6-6.4 2.5-7 1.9-.8-8.8.3-7.2 1-7.3z"/>
        <path id="path14798_14_" fill="url(#_Radial7)" d="M469 86.9c2.7 16.1-7 42.4-21 44.6-14.6 2.4-31.7-19.4-34.3-35.5C411 79.9 421 63 436.3 60.6c15-2.4 30 10.3 32.7 26.3z"/>
      </g>
      <g fill-rule="nonzero">
        <path id="path14796_13_" fill="url(#_Radial8)" d="M487 115.1c.9 0 1.5-1 4.5 6.7-.3.6-7.3.6-7.8-.1 1.3-8.5 2.7-6.6 3.4-6.6z"/>
        <path id="path14798_13_" fill="url(#_Radial9)" d="M516.5 76.8c-1.1 16.2-16.5 39.4-30.9 38.5-14.6-1-26.2-26.2-25.1-42.4 1.1-16.1 14.7-30.2 30-29.2s27 17 26 33.1z"/>
      </g>
      <g fill-rule="nonzero">
        <path id="path14796_12_" fill="url(#_Radial10)" d="M520.5 138.4c.8 0 1.5-1 4 7.2-.5.6-7.3 0-7.8-.8 2-8.6 3.2-6.6 3.8-6.4z"/>
        <path id="path14798_12_" fill="url(#_Radial11)" d="M555.3 102.5c-2.4 16.1-19.7 38.1-33.8 35.9-14.4-2.2-24-28.2-21.6-44.2 2.4-16 17-29 32.5-26.6 15.5 2.4 25.4 18.8 22.9 35z"/>
      </g>
      <g fill-rule="nonzero">
        <path id="path14796_11_" fill="url(#_Radial12)" d="M463.7 106.7c.8-.2 1-1.5 6 5.4-.3.6-7.1 2.2-7.8 1.6-.6-8.5 1.1-6.7 1.8-7z"/>
        <path id="path14798_11_" fill="url(#_Radial13)" d="M483.7 63c2.6 16-7.4 42.2-21.3 44.5-14.6 2.4-31.5-19.7-34.1-35.8-2.6-16 7.5-32.8 22.9-35.2 15.4-2.4 30 10.4 32.5 26.5z"/>
      </g>
      <g fill-rule="nonzero">
        <path id="path14796_10_" fill="url(#_Radial14)" d="M503 123.7c.7.3 1.5-.8 2.5 7.7-.4.5-7.4-1.5-7.6-2.3 3.6-8 4.2-5.7 5-5.4z"/>
        <path id="path14798_10_" fill="url(#_Radial15)" d="M541.5 94.7c-5.4 15.3-26.7 33.6-40 29-14-5-18.4-32.2-13-47.5 5.4-15.3 22.3-25.3 37-20 14.4 4.7 21.4 23 16 38.5z"/>
      </g>
      <path fill="none" stroke="#9b9b9b" stroke-miterlimit="10" stroke-width=".2" d="M503 123.7s-26.8 87-26.8 117.5M451.5 130.4s23.2 78.3 24.7 110.8M520.5 138.4s-39.2 67.6-44.3 102.2"/>
      <path fill="none" d="M487.9 115.4s-11.7 94.6-11.7 126.3"/>
      <clipPath id="_clip16">
        <path d="M487.9 115.4s-11.7 94.6-11.7 126.3"/>
      </clipPath>
      <g clip-path="url(#_clip16)">
        <path fill="none" stroke="#9b9b9b" stroke-miterlimit="10" stroke-width=".2" d="M463.7 106.7s2.2 13.4 4.8 34.6c3 25.5 6.7 62.2 7.7 100"/>
      </g>
      <path fill="none" stroke="#9b9b9b" stroke-miterlimit="10" stroke-width=".2" d="M487.9 115.4s-11.7 94.6-11.7 126.3"/>
    </g>
  </g>
  <defs>
    <linearGradient id="_Linear1" x2="1" gradientTransform="matrix(0 -281.185 281.185 0 490 281.2)" gradientUnits="userSpaceOnUse">
      <stop offset="0" stop-color="#fff"/>
      <stop offset=".3" stop-color="#def2ff"/>
      <stop offset="1" stop-color="#6bacdd"/>
    </linearGradient>
    <radialGradient id="_Radial2" cx="0" cy="0" r="1" gradientTransform="matrix(59.2559 0 0 57.3572 619 163.6)" gradientUnits="userSpaceOnUse">
      <stop offset="0" stop-color="#fff"/>
      <stop offset=".1" stop-color="#fffef7" stop-opacity=".9"/>
      <stop offset=".3" stop-color="#fffbe1" stop-opacity=".7"/>
      <stop offset=".5" stop-color="#fff7bc" stop-opacity=".5"/>
      <stop offset=".8" stop-color="#fff18a" stop-opacity=".2"/>
      <stop offset="1" stop-color="#ffec62" stop-opacity="0"/>
    </radialGradient>
    <radialGradient id="_Radial3" cx="0" cy="0" r="1" gradientTransform="matrix(350.433 0 0 -348.956 489.7 354.2)" gradientUnits="userSpaceOnUse">
      <stop offset="0" stop-color="#a6e4ff"/>
      <stop offset="1" stop-color="#126da6"/>
    </radialGradient>
    <radialGradient id="_Radial6" cx="0" cy="0" r="1" gradientTransform="matrix(5.24447 -1.63064 -3.04358 -10.1854 477 50.9)" gradientUnits="userSpaceOnUse">
      <stop offset="0" stop-color="#a0dfff"/>
      <stop offset="1" stop-color="#00a6d4"/>
    </radialGradient>
    <radialGradient id="_Radial7" cx="0" cy="0" r="1" gradientTransform="matrix(23.3941 23.2447 22.4936 -24.8094 431.9 84.6)" gradientUnits="userSpaceOnUse">
      <stop offset="0" stop-color="#91e8ff" stop-opacity=".9"/>
      <stop offset="1" stop-color="#2e8de9" stop-opacity=".9"/>
    </radialGradient>
    <radialGradient id="_Radial8" cx="0" cy="0" r="1" gradientTransform="matrix(4.55488 7.36525 1.85213 -4.36812 534.3 44)" gradientUnits="userSpaceOnUse">
      <stop offset="0" stop-color="#a0dfff" stop-opacity=".7"/>
      <stop offset="1" stop-color="#fff655" stop-opacity=".9"/>
    </radialGradient>
    <radialGradient id="_Radial9" cx="0" cy="0" r="1" gradientTransform="matrix(17.3205 28.0272 26.4873 -18.1058 481 66.1)" gradientUnits="userSpaceOnUse">
      <stop offset="0" stop-color="#efff94" stop-opacity=".6"/>
      <stop offset="1" stop-color="#ffe82a" stop-opacity=".9"/>
    </radialGradient>
    <radialGradient id="_Radial10" cx="0" cy="0" r="1" gradientTransform="matrix(3.9468 7.708 2.19597 -4.20436 573.3 71.1)" gradientUnits="userSpaceOnUse">
      <stop offset="0" stop-color="#a0dfff" stop-opacity=".7"/>
      <stop offset="1" stop-color="#ff1515" stop-opacity=".9"/>
    </radialGradient>
    <radialGradient id="_Radial11" cx="0" cy="0" r="1" gradientTransform="matrix(15.0199 29.3138 27.8534 -15.944 520.8 88.8)" gradientUnits="userSpaceOnUse">
      <stop offset="0" stop-color="#ffcaca" stop-opacity=".8"/>
      <stop offset="1" stop-color="#bd1e1e" stop-opacity=".9"/>
    </radialGradient>
    <radialGradient id="_Radial12" cx="0" cy="0" r="1" gradientTransform="matrix(6.10759 6.1504 .81374 -4.66897 493.7 26.7)" gradientUnits="userSpaceOnUse">
      <stop offset="0" stop-color="#a0dfff" stop-opacity=".7"/>
      <stop offset="1" stop-color="#00bf0c" stop-opacity=".9"/>
    </radialGradient>
    <radialGradient id="_Radial13" cx="0" cy="0" r="1" gradientTransform="matrix(23.232 23.4054 21.6941 -23.5971 446.7 60.4)" gradientUnits="userSpaceOnUse">
      <stop offset="0" stop-color="#63f0c8" stop-opacity=".9"/>
      <stop offset="1" stop-color="#00b88f" stop-opacity=".9"/>
    </radialGradient>
    <radialGradient id="_Radial14" cx="0" cy="0" r="1" gradientTransform="matrix(2.43249 8.3059 2.94719 -3.72091 567.5 67.3)" gradientUnits="userSpaceOnUse">
      <stop offset="0" stop-color="#a0dfff" stop-opacity=".7"/>
      <stop offset="1" stop-color="#7e3fff" stop-opacity=".9"/>
    </radialGradient>
    <radialGradient id="_Radial15" cx="0" cy="0" r="1" gradientTransform="matrix(9.24653 31.5946 30.3574 -10.4727 510 74.7)" gradientUnits="userSpaceOnUse">
      <stop offset="0" stop-color="#ccb3ff" stop-opacity=".8"/>
      <stop offset=".6" stop-color="#b14bff" stop-opacity=".9"/>
      <stop offset="1" stop-color="#a41aff" stop-opacity=".9"/>
    </radialGradient>
  </defs>
</svg>
