<?xml version="1.0" encoding="UTF-8" standalone="no"?>
<!DOCTYPE svg PUBLIC "-//W3C//DTD SVG 1.1//EN" "http://www.w3.org/Graphics/SVG/1.1/DTD/svg11.dtd">
<svg width="100%" height="100%" viewBox="0 0 980 430" version="1.1" xmlns="http://www.w3.org/2000/svg" xmlns:xlink="http://www.w3.org/1999/xlink" xml:space="preserve" xmlns:serif="http://www.serif.com/" style="fill-rule:evenodd;clip-rule:evenodd;">
    <path id="sky" d="M0,0L979.996,-0.012L979.88,278.695L0,281.086L0,0Z" style="fill:url(#_Linear1);fill-rule:nonzero;"/>
    <g id="sun">
        <ellipse cx="618.829" cy="163.582" rx="59.241" ry="57.397" style="fill:url(#_Radial2);"/>
        <ellipse cx="618.829" cy="165.814" rx="34.424" ry="34.279" style="fill:rgb(255,255,0);"/>
    </g>
    <path id="mountains_back" d="M2.402,240.908C25.618,239.633 41.789,180.482 64.365,186.062C87.261,193.077 98.789,232.777 135.774,229.11C167.316,226.081 195.496,160.393 220.633,162.944C253.616,161.669 260.501,232.937 289.161,218.747C312.857,204.716 334.152,187.178 342.958,197.701C351.764,208.383 424.134,268.969 457.597,265.302C491.061,261.635 543.097,218.587 569.515,230.386C595.933,242.024 665.582,274.709 676.149,245.692C686.716,216.355 699.846,210.775 716.817,224.646C733.469,238.676 805.839,181.598 817.047,163.582C839.462,130.1 851.791,139.826 877.249,155.769C901.906,171.554 926.723,192.759 954.262,196.745C972.995,198.498 977.638,194.512 980.2,202.803L980.2,278.695L0,277.26L0,241.068L2.402,240.908Z" style="fill:rgb(175,163,178);fill-rule:nonzero;"/>
    <path id="mountains" d="M0,253.823C17.452,247.924 52.837,238.836 70.929,225.284C80.856,217.79 91.904,196.107 103.752,182.076C117.361,163.901 133.212,171.713 145.221,184.627C163.634,204.876 177.403,237.241 201.26,235.647C208.625,234.372 215.349,225.921 221.914,219.225C234.243,206.47 240.327,212.848 251.214,220.501C266.265,230.864 285.798,242.662 296.526,235.647C311.576,226.4 352.565,158.001 378.022,176.496C403.8,194.831 417.89,224.008 444.308,237.72C470.727,251.431 526.285,224.646 555.425,236.125C584.566,247.445 593.372,262.113 611.784,238.517C630.197,214.761 648.77,213.964 666.542,227.197C684.155,240.111 707.851,202.644 730.907,174.423C753.803,146.044 772.376,163.741 804.238,204.238C835.94,244.735 855.313,214.92 873.886,185.106C892.459,155.132 898.543,119.099 917.116,129.143C935.689,139.029 955.863,214.92 967.391,222.414C978.759,230.067 980.2,231.183 980.2,238.995C980.2,246.648 980.2,279.173 980.2,279.173L0,278.535L0,253.823Z" style="fill:rgb(192,196,202);fill-rule:nonzero;"/>
    <path id="water" d="M0,278.695L980.022,278.837L980.007,429.993L0,430L0,278.695Z" style="fill:url(#_Radial3);fill-rule:nonzero;"/>
    <path id="mountains_reflection" d="M0.16,298.624C17.772,302.929 52.837,309.466 71.089,319.032C81.176,324.294 92.384,339.759 104.232,349.644C118.002,362.558 133.853,356.978 146.021,347.89C164.594,333.7 178.524,310.742 202.38,311.698C209.906,312.655 216.63,318.713 223.195,323.337C235.523,332.265 241.608,327.961 252.655,322.38C267.706,314.887 287.399,306.756 298.287,311.539C313.337,318.076 354.646,366.544 380.424,353.471C406.202,340.397 420.452,319.67 447.03,309.944C473.609,300.219 529.647,319.192 558.948,311.06C588.248,302.929 597.214,292.725 615.787,309.466C634.52,326.207 653.093,326.845 670.865,317.597C688.638,308.35 712.494,334.976 735.71,355.065C758.926,375.154 777.499,362.558 809.361,333.86C841.384,305.161 860.757,326.366 879.49,347.412C898.223,368.617 904.467,393.967 923.04,386.952C941.773,379.778 962.107,326.207 973.635,320.786C979.56,315.365 980.022,314.798 980.022,309.378C980.022,303.957 980.2,278.695 980.2,278.695L0,278.695L0.16,298.624Z" style="fill:rgb(155,149,154);fill-opacity:0.137255;fill-rule:nonzero;"/>
    <g>
        <path id="duck_1" d="M345.14,319.483C345.14,319.483 332.332,317.251 325.447,324.744C318.562,332.397 320.964,342.282 325.447,346.747C329.93,351.211 330.891,354.4 328.169,356.313C325.287,358.226 315.36,346.428 312.318,345.312C309.436,344.196 304.312,350.573 302.871,363.806C301.27,377.04 301.27,387.881 310.076,391.07C318.882,394.259 338.096,394.099 351.865,392.345C365.635,390.592 365.795,381.185 366.435,377.837C366.915,374.489 364.194,363.647 357.149,360.299C350.104,356.951 353.466,347.544 355.387,345.312C357.309,343.08 359.07,341.485 359.07,341.485L356.348,331.76C356.188,331.919 354.107,321.875 345.14,319.483" style="fill:rgb(255,240,101);fill-rule:nonzero;"/>
        <path id="path13874" d="M344.34,330.006C344.98,331.919 344.18,333.992 342.419,334.63C340.657,335.108 338.736,334.151 338.096,332.079C337.455,330.006 338.256,328.093 340.017,327.455C341.778,326.977 343.699,328.093 344.34,330.006M354.747,327.614C355.708,329.049 355.708,330.803 354.907,331.281C354.107,331.76 352.666,330.803 351.865,329.368C350.904,327.933 350.904,326.339 351.705,325.861C352.505,325.223 353.786,326.02 354.747,327.614" style="fill:white;fill-rule:nonzero;"/>
        <path id="path13876" d="M343.379,331.122C343.379,332.238 342.419,333.195 341.298,333.195C340.177,333.195 339.216,332.238 339.216,331.122C339.216,330.006 340.177,329.049 341.298,329.049C342.419,329.209 343.379,330.006 343.379,331.122M354.587,328.093C355.227,329.049 355.387,330.165 354.907,330.325C354.427,330.644 353.466,330.165 352.826,329.209C352.185,328.252 352.025,327.295 352.505,326.977C353.146,326.658 353.946,327.295 354.587,328.093" style="fill-rule:nonzero;"/>
        <path id="path13878" d="M336.815,336.702C336.815,336.702 341.458,337.818 344.34,334.789C347.222,331.76 347.222,330.165 351.225,330.962C355.387,331.919 355.708,332.716 356.989,332.079C358.269,331.441 360.991,331.6 362.272,334.311C363.393,337.021 359.55,340.21 359.55,340.21C359.55,340.21 361.792,340.529 359.23,342.601C356.668,344.674 351.545,346.428 347.062,346.587C342.739,346.747 336.014,341.804 336.815,336.702" style="fill:rgb(247,169,52);fill-rule:nonzero;"/>
        <path id="path13880" d="M338.416,339.094C338.416,339.094 341.778,342.282 347.382,342.601C352.826,342.92 360.191,340.05 360.991,339.253C361.792,338.456 364.994,334.63 360.351,333.513C355.708,332.397 354.107,338.934 349.784,339.891C345.301,340.688 338.576,339.094 338.416,339.094" style="fill:rgb(210,128,17);fill-rule:nonzero;"/>
    </g>
    <g id="duck_2">
        <path d="M259.86,342.742C259.86,342.742 257.081,343.843 257.25,350.948C257.418,358.152 258.513,361.454 258.513,361.454L288.658,361.454C288.658,361.454 289.5,357.152 288.237,354.65C287.058,352.048 283.269,346.645 284.448,343.543C285.627,340.441 288.995,340.441 288.995,340.441L286.721,334.737C286.721,334.737 285.627,330.735 283.101,328.933C280.827,326.932 278.554,327.633 275.354,328.933C272.154,330.134 269.459,334.137 270.554,338.339C271.649,342.642 273.922,342.842 273.164,345.544C272.407,348.146 267.354,349.647 264.407,347.245C261.544,345.144 261.881,342.442 259.86,342.742" style="fill:rgb(255,240,101);fill-rule:nonzero;"/>
        <path d="M284.027,336.138C284.027,336.138 284.532,340.041 286.385,340.641C288.237,341.241 289.079,340.641 289.079,340.641L290.932,340.241L291.184,339.54C291.184,339.54 289.332,338.64 289.416,338.239C289.5,337.839 291.184,336.738 291.353,335.037C291.437,333.236 287.648,336.438 284.027,336.138" style="fill:rgb(247,169,52);fill-rule:nonzero;"/>
        <path d="M285.543,337.839C285.543,337.839 286.974,338.64 287.985,338.94C288.995,339.14 289.837,338.94 289.837,338.94L289.332,338.139L285.543,337.839Z" style="fill:rgb(210,128,17);fill-rule:nonzero;"/>
        <path d="M282.325,334.402C281.618,333.391 281.634,332.162 282.359,331.659C283.084,331.157 284.247,331.57 284.953,332.581C285.66,333.593 285.645,334.822 284.919,335.324C284.194,335.827 283.031,335.414 282.325,334.402Z" style="fill:white;"/>
        <clipPath id="_clip4">
            <path d="M282.325,334.402C281.618,333.391 281.634,332.162 282.359,331.659C283.084,331.157 284.247,331.57 284.953,332.581C285.66,333.593 285.645,334.822 284.919,335.324C284.194,335.827 283.031,335.414 282.325,334.402Z"/>
        </clipPath>
        <g clip-path="url(#_clip4)">
            <path d="M283.199,333.431C282.923,332.783 283.029,332.118 283.436,331.946C283.842,331.774 284.397,332.16 284.673,332.808C284.949,333.456 284.844,334.121 284.437,334.293C284.03,334.465 283.476,334.079 283.199,333.431Z"/>
        </g>
    </g>
    <g>
        <path id="field" d="M0,430L0,277.419C123.766,298.943 202.701,364.791 287.559,430L0,430Z" style="fill:rgb(171,210,36);fill-rule:nonzero;"/>
        <path id="path14108_1_" d="M287.561,429.997C287.561,404.646 120.404,303.407 40.828,286.667C54.598,344.702 96.775,390.141 180.513,430" style="fill:rgb(195,230,74);fill-rule:nonzero;"/>
    </g>
    <g id="beach">
        <path id="path14050" d="M980.014,430.007L629.237,430C727.865,355.224 848.097,306.641 980.029,305.047L980.014,430.007Z" style="fill:rgb(251,184,41);fill-rule:nonzero;"/>
        <path id="path14110_1_" d="M738.697,430C738.697,430 818.328,332.744 951.22,306.118C827.454,313.771 697.604,363.674 629.237,430" style="fill:rgb(255,240,101);fill-rule:nonzero;"/>
    </g>
    <g id="cloud_3">
        <path id="path14116" d="M924.897,160.373C924.897,170.804 916.511,179.149 906.028,179.149C895.546,179.149 887.159,170.804 887.159,160.373C887.159,149.942 895.546,141.598 906.028,141.598C916.212,141.598 924.897,150.241 924.897,160.373Z" style="fill:white;fill-rule:nonzero;"/>
        <path id="path14118" d="M942.269,161.863C942.269,170.506 935.081,177.659 926.395,177.659C917.709,177.659 910.521,170.506 910.521,161.863C910.521,153.221 917.709,146.068 926.395,146.068C935.081,146.366 942.269,152.923 942.269,161.863C942.269,161.565 942.269,161.565 942.269,161.863ZM895.246,163.354C895.246,168.42 891.053,172.592 885.961,172.592C880.87,172.592 876.677,168.42 876.677,163.354C876.677,158.287 880.87,154.115 885.961,154.115C891.053,154.413 895.246,158.287 895.246,163.354ZM868.889,163.354C868.889,166.036 866.793,168.122 864.097,168.122C861.402,168.122 859.305,166.036 859.006,163.354C859.006,160.671 861.102,158.585 863.798,158.287L864.097,158.287C866.793,158.585 868.889,160.671 868.889,163.354ZM958.143,163.354C958.143,166.036 956.046,168.122 953.351,168.122C950.655,168.122 948.559,166.036 948.559,163.354C948.559,160.671 950.655,158.585 953.351,158.287C956.046,158.585 958.143,160.671 958.143,163.354Z" style="fill:white;fill-rule:nonzero;"/>
    </g>
    <g id="cloud_2">
        <g id="g16356">
            <path id="path14088" d="M754.662,99.7C754.662,120.515 737.245,137.167 716.225,137.167C695.206,137.167 678.39,120.515 678.39,99.7C678.39,78.885 695.206,62.233 716.225,62.233C737.245,62.233 754.662,78.885 754.662,99.7Z" style="fill:white;fill-rule:nonzero;"/>
            <path id="path14090" d="M789.494,102.674C789.494,119.92 775.081,134.194 757.664,134.194C740.248,134.194 725.834,120.515 725.834,102.674C725.834,85.427 740.248,71.154 757.664,71.154C775.081,71.154 789.494,84.832 789.494,102.674ZM695.206,105.647C695.206,115.757 686.798,124.083 676.588,124.083C666.379,124.083 657.971,115.757 657.971,105.647C657.971,95.537 666.379,87.211 676.588,87.211C686.197,87.806 695.206,95.537 695.206,105.647Z" style="fill:white;fill-rule:nonzero;"/>
        </g>
        <ellipse id="circle14102" cx="652.773" cy="71.268" rx="4.483" ry="4.464" style="fill:white;"/>
        <g id="g16401">
            <path id="path14122" d="M786.892,75.958C789.335,90.383 777.117,103.777 760.012,105.838C742.907,107.899 727.024,97.595 724.58,84.201C722.137,69.776 733.133,56.382 750.238,54.321C768.565,51.23 784.448,61.533 786.892,75.958Z" style="fill:white;fill-rule:nonzero;"/>
            <path id="path14124" d="M835.763,68.746C839.429,85.231 824.767,100.686 805.218,103.777C785.67,105.838 767.343,94.504 763.677,78.019C760.012,61.533 774.674,46.078 794.222,42.987C813.771,40.927 833.32,52.26 835.763,68.746ZM738.02,83.171C739.242,91.413 733.133,98.626 722.137,100.686C712.362,101.717 702.588,96.565 701.366,87.292C700.144,79.049 706.253,70.807 716.028,69.776C727.024,68.746 736.798,73.898 738.02,83.171Z" style="fill:white;fill-rule:nonzero;"/>
            <path id="path14126" d="M872.417,71.837C874.86,84.201 863.864,96.565 849.203,98.626C833.32,100.686 819.88,91.413 817.436,79.049C814.993,66.685 825.989,54.321 840.65,52.26C856.534,50.2 869.973,58.442 872.417,71.837Z" style="fill:white;fill-rule:nonzero;"/>
        </g>
    </g>
    <g id="duck_3">
        <path id="towel" d="M963.709,378.502L851.15,390.619C850.51,390.619 850.19,391.257 850.35,391.895L860.277,423.623C860.437,424.101 860.917,424.42 861.398,424.26L978.919,407.519C979.56,407.36 980.04,406.722 979.72,406.085L964.669,378.98C964.509,378.661 964.189,378.502 963.709,378.502Z" style="fill:rgb(209,79,171);fill-rule:nonzero;"/>
        <path id="path14038" d="M900.947,322.553C900.947,322.553 915.781,319.784 923.507,328.708C931.543,337.325 928.761,348.712 923.507,353.943C918.254,359.175 917.327,362.868 920.417,365.022C923.507,367.176 935.251,353.635 938.342,352.404C941.741,351.173 947.613,358.559 949.467,373.639C951.321,388.718 951.321,401.335 941.123,405.028C930.925,408.721 908.982,408.414 893.221,406.567C877.151,404.413 877.151,393.642 876.533,389.949C875.915,386.256 879.005,373.639 887.349,369.946C895.384,366.253 891.367,355.482 889.204,352.712C887.04,349.943 884.877,348.404 884.877,348.404L887.967,337.325C888.276,337.017 889.513,329.324 900.947,322.553" style="fill:rgb(255,240,101);fill-rule:nonzero;"/>
        <path id="path14040" d="M902.183,334.863C901.565,337.017 902.492,339.479 904.347,340.095C906.201,340.71 908.673,339.479 909.291,337.325C909.91,335.171 908.982,332.709 907.128,332.093C905.274,331.478 902.802,332.709 902.183,334.863M890.131,332.093C889.204,333.94 889.204,335.786 890.131,336.094C891.058,336.71 892.603,335.479 893.53,333.94C894.457,332.093 894.766,330.247 893.839,329.939C892.912,329.016 891.058,330.247 890.131,332.093" style="fill:white;fill-rule:nonzero;"/>
        <path id="path14042" d="M903.111,336.094C903.111,337.325 904.038,338.556 905.583,338.556C907.128,338.556 908.055,337.633 908.055,336.094C908.055,334.863 906.819,333.632 905.583,333.632C904.347,333.94 903.111,334.863 903.111,336.094M890.131,332.709C889.513,333.94 889.204,335.171 889.822,335.479C890.44,335.786 891.367,335.171 892.294,334.248C892.912,333.017 893.221,331.786 892.603,331.478C891.985,331.17 890.749,331.478 890.131,332.709" style="fill-rule:nonzero;"/>
        <path id="path14044" d="M910.837,342.557C910.837,342.557 905.583,343.788 902.183,340.402C899.093,337.017 898.784,334.863 894.148,336.094C889.513,337.017 888.895,338.248 887.349,337.325C885.804,336.71 882.714,337.017 881.168,340.095C879.932,343.172 884.259,346.865 884.259,346.865C884.259,346.865 881.786,347.173 884.568,349.635C887.658,351.789 893.53,353.943 898.475,353.943C904.038,353.943 911.764,348.404 910.837,342.557" style="fill:rgb(247,169,52);fill-rule:nonzero;"/>
        <path id="path14046" d="M908.673,345.326C908.673,345.326 904.965,349.019 898.475,349.327C891.985,349.635 883.641,346.557 883.023,345.326C882.405,344.403 878.696,339.787 883.641,338.556C888.895,337.325 890.749,345.019 895.693,345.942C900.947,347.173 908.673,345.326 908.673,345.326" style="fill:rgb(210,128,17);fill-rule:nonzero;"/>
    </g>
    <g id="cloud">
        <path id="path14122-7" d="M210.252,92.898C214.127,117.148 194.753,139.666 167.628,143.13C140.503,146.595 115.316,129.273 111.441,106.755C107.566,82.505 125.003,59.987 152.128,56.523C181.19,53.059 204.44,68.648 210.252,92.898Z" style="fill:white;fill-rule:nonzero;"/>
        <path id="path14124-0" d="M287.752,79.041C293.564,106.755 270.314,132.737 239.315,137.934C208.315,141.398 179.253,122.345 173.44,94.63C169.565,66.916 190.878,40.934 221.877,35.737C252.877,34.005 281.939,53.059 287.752,79.041ZM132.753,105.023C134.691,118.88 125.003,131.005 107.566,134.47C92.066,136.202 76.566,127.541 74.629,111.952C72.691,98.095 82.379,84.237 97.878,82.505C115.316,79.041 130.816,91.166 132.753,105.023Z" style="fill:white;fill-rule:nonzero;"/>
        <path id="path14126-7" d="M322.626,98.095C326.501,118.88 309.064,139.666 285.814,143.13C260.627,146.595 239.315,131.005 235.44,110.22C231.565,89.434 249.002,68.648 272.252,65.184C295.502,61.72 318.751,77.309 322.626,98.095Z" style="fill:white;fill-rule:nonzero;"/>
        <ellipse id="circle14106" cx="100.71" cy="62.659" rx="14.25" ry="12.436" style="fill:white;"/>
    </g>
    <g id="flying-shopping-bag" serif:id="flying shopping bag">
        <g id="shopping-bag" serif:id="shopping bag">
            <path id="path3931_1_" d="M495.224,260.838C486.417,248.402 480.493,241.387 476.01,238.676" style="fill:none;stroke:rgb(154,154,155);stroke-width:3.2px;"/>
            <path id="path3931_2_" d="M468.805,254.62C470.566,242.981 471.847,244.097 476.17,238.676" style="fill:none;stroke:rgb(154,154,155);stroke-width:3.2px;"/>
            <path id="path3044" d="M455.676,247.027L518.76,261.536L506.591,329.775L445.109,305.062L455.676,247.027Z" style="fill:rgb(170,170,170);fill-rule:nonzero;"/>
            <g id="duck_4">
                <path id="path13926_1_" d="M492.982,240.908C492.502,241.068 485.777,241.068 482.094,248.083C478.252,255.098 483.055,258.446 483.055,258.446C483.055,258.446 482.895,263.23 479.212,263.867C475.53,264.505 472.168,267.375 471.847,272.796C471.527,278.217 473.448,280.768 473.448,280.768L495.704,285.869C495.704,285.869 502.268,283 503.069,277.1C504.19,271.201 495.224,267.056 495.864,262.113C496.504,257.171 500.347,261.635 500.988,251.91C501.468,242.662 493.302,240.908 492.982,240.908" style="fill:rgb(255,240,101);fill-rule:nonzero;"/>
                <path id="path13928_1_" d="M490.58,247.605C490.58,247.605 484.016,247.286 483.055,249.677C482.094,252.069 484.656,253.026 484.656,253.026L496.184,254.779C496.184,254.779 498.906,253.026 496.825,250.475C494.743,248.88 490.26,247.445 490.58,247.605" style="fill:rgb(247,169,52);fill-rule:nonzero;"/>
                <path id="path13930_1_" d="M484.016,251.431C484.016,251.431 488.179,250.315 489.46,250.953C490.901,251.272 495.704,253.026 495.704,253.026C495.704,253.026 492.662,250.953 490.26,250.156C487.858,249.199 484.176,250.156 484.016,251.431M485.617,252.707C485.617,252.707 485.297,253.026 487.218,253.504C488.819,253.982 494.743,254.461 494.743,254.461C494.743,254.461 495.864,254.301 492.822,253.504C489.78,252.707 485.617,252.707 485.617,252.707" style="fill:rgb(210,128,17);fill-rule:nonzero;"/>
                <path d="M488.979,245.692C488.819,246.648 488.179,247.445 487.058,247.286C485.937,247.126 485.777,246.329 485.937,245.373C486.097,244.416 486.578,243.619 487.698,243.938C488.979,244.097 489.299,244.735 488.979,245.692Z" style="fill:white;fill-rule:nonzero;"/>
                <path id="path13934_1_" d="M488.499,245.851C488.339,246.329 487.698,246.808 487.218,246.808C486.738,246.648 486.417,246.17 486.578,245.373C486.738,244.575 487.378,244.416 487.858,244.416C488.499,244.416 488.819,244.894 488.499,245.851" style="fill-rule:nonzero;"/>
                <path d="M494.263,248.402C493.462,247.924 493.142,246.967 493.783,246.01C494.423,245.054 495.063,244.894 496.024,245.373C496.985,245.851 497.305,246.808 496.665,247.764C495.864,248.721 495.063,248.88 494.263,248.402Z" style="fill:white;fill-rule:nonzero;"/>
                <clipPath id="_clip5">
                    <path id="path13934_2_" d="M494.263,248.402C493.462,247.924 493.142,246.967 493.783,246.01C494.423,245.054 495.063,244.894 496.024,245.373C496.985,245.851 497.305,246.808 496.665,247.764C495.864,248.721 495.063,248.88 494.263,248.402Z"/>
                </clipPath>
                <g clip-path="url(#_clip5)">
                    <path d="M495.864,247.126C495.704,247.605 495.063,248.083 494.583,248.083C494.103,247.924 493.783,247.445 493.943,246.648C494.103,245.851 494.743,245.692 495.224,245.692C495.864,245.532 496.184,246.17 495.864,247.126" style="fill-rule:nonzero;"/>
                </g>
            </g>
            <path id="path3040" d="M485.137,338.544L510.434,331.369L488.339,323.078L485.137,338.544Z" style="fill:rgb(216,216,216);fill-rule:nonzero;"/>
            <path id="path3042" d="M510.274,331.529L508.513,319.093L518.6,261.695L498.586,260.898L498.106,266.479L488.499,323.397L510.274,331.529Z" style="fill:rgb(219,220,221);fill-rule:nonzero;"/>
            <path id="path3854" d="M455.676,247.027L456.637,249.897L448.631,297.728L455.676,247.027Z" style="fill:rgb(195,195,195);fill-rule:nonzero;"/>
            <path id="path3856" d="M502.429,265.203L498.746,260.898L487.858,323.557L502.429,265.203Z" style="fill:rgb(206,206,206);fill-rule:nonzero;"/>
            <path id="path3046" d="M438.704,247.027L456.637,250.057L443.187,304.424L427.176,303.468L432.78,287.524L438.704,247.027Z" style="fill:rgb(212,212,212);fill-rule:nonzero;"/>
            <path id="path3038" d="M438.544,247.027L502.268,265.044L492.982,317.817L484.976,338.544L426.856,303.468L432.46,287.524L438.544,247.027Z" style="fill:rgb(242,242,242);fill-rule:nonzero;"/>
            <path id="path3931" d="M456.317,261.536C459.359,259.942 472.007,239.853 475.85,239.215C477.451,244.955 475.37,258.188 477.932,268.551" style="fill:none;stroke:rgb(175,175,175);stroke-width:3.2px;"/>
            <path d="M492.982,317.916L485.137,338.643L427.016,303.567L432.62,287.623L492.982,317.916Z" style="fill:rgb(249,249,249);fill-rule:nonzero;"/>
            <path d="M486.898,378.98L417.41,344.383C416.929,344.064 417.089,343.426 417.57,343.107L434.541,337.367C434.702,337.367 434.862,337.367 435.022,337.367L513.957,370.371C514.437,370.69 514.597,370.849 513.957,371.009L486.898,378.98C486.738,378.98 487.058,378.98 486.898,378.98Z" style="fill-opacity:0.0980392;fill-rule:nonzero;"/>
        </g>
        <g id="balloons">
            <g>
                <path id="path14796_14_" d="M450.873,130.26C451.673,130.1 451.833,128.825 456.797,135.68C456.637,136.318 450.392,138.231 449.752,137.594C448.951,128.825 450.072,130.419 450.873,130.26Z" style="fill:url(#_Radial6);fill-rule:nonzero;"/>
                <path id="path14798_14_" d="M468.965,86.893C471.687,102.996 461.92,129.303 447.991,131.535C433.421,133.927 416.289,112.084 413.727,95.981C411.005,79.878 420.932,63.137 436.303,60.586C451.353,58.194 466.243,70.949 468.965,86.893Z" style="fill:url(#_Radial7);fill-rule:nonzero;"/>
            </g>
            <g>
                <path id="path14796_13_" d="M487.058,115.113C487.858,115.113 488.499,114.156 491.541,121.809C491.221,122.447 484.176,122.447 483.696,121.65C484.976,113.2 486.417,115.113 487.058,115.113Z" style="fill:url(#_Radial8);fill-rule:nonzero;"/>
                <path id="path14798_13_" d="M516.518,76.848C515.398,92.951 500.027,116.229 485.617,115.273C471.047,114.316 459.359,89.125 460.479,72.862C461.6,56.759 475.21,42.729 490.58,43.686C505.791,44.642 517.479,60.745 516.518,76.848Z" style="fill:url(#_Radial9);fill-rule:nonzero;"/>
            </g>
            <g>
                <path id="path14796_12_" d="M520.521,138.391C521.322,138.391 521.962,137.434 524.524,145.565C524.044,146.203 517.159,145.565 516.678,144.768C518.76,136.159 519.881,138.231 520.521,138.391Z" style="fill:url(#_Radial10);fill-rule:nonzero;"/>
                <path id="path14798_12_" d="M555.265,102.518C552.864,118.621 535.572,140.623 521.482,138.391C507.072,136.159 497.465,110.171 499.867,94.227C502.268,78.124 516.839,65.209 532.369,67.601C547.9,69.993 557.827,86.415 555.265,102.518Z" style="fill:url(#_Radial11);fill-rule:nonzero;"/>
            </g>
            <g>
                <path id="path14796_11_" d="M463.682,106.663C464.482,106.504 464.642,105.228 469.606,112.084C469.446,112.722 462.561,114.316 461.92,113.678C461.28,105.228 463.041,106.982 463.682,106.663Z" style="fill:url(#_Radial12);fill-rule:nonzero;"/>
                <path id="path14798_11_" d="M483.696,62.977C486.257,79.08 476.33,105.228 462.401,107.46C447.831,109.852 430.859,87.849 428.297,71.746C425.735,55.643 435.822,38.902 451.193,36.511C466.564,34.119 481.294,46.874 483.696,62.977Z" style="fill:url(#_Radial13);fill-rule:nonzero;"/>
            </g>
            <g>
                <path id="path14796_10_" d="M502.909,123.723C503.709,124.042 504.51,122.925 505.471,131.376C505.15,131.854 498.106,129.941 497.945,129.143C501.468,121.172 502.108,123.404 502.909,123.723Z" style="fill:url(#_Radial14);fill-rule:nonzero;"/>
                <path id="path14798_10_" d="M541.496,94.705C536.052,110.011 514.757,128.346 501.468,123.723C487.538,118.78 483.055,91.516 488.499,76.211C493.943,60.905 510.754,50.86 525.485,56.122C539.895,60.905 546.939,79.24 541.496,94.705Z" style="fill:url(#_Radial15);fill-rule:nonzero;"/>
            </g>
            <path d="M502.909,123.723C502.909,123.723 476.17,210.615 476.17,241.227" style="fill:none;stroke:rgb(155,155,155);stroke-width:0.16px;stroke-miterlimit:10;"/>
            <path d="M451.513,130.419C451.513,130.419 474.729,208.702 476.17,241.227" style="fill:none;stroke:rgb(155,155,155);stroke-width:0.16px;stroke-miterlimit:10;"/>
            <path d="M520.521,138.391C520.521,138.391 481.294,205.992 476.17,240.59" style="fill:none;stroke:rgb(155,155,155);stroke-width:0.16px;stroke-miterlimit:10;"/>
            <path d="M487.858,115.432C487.858,115.432 476.17,209.978 476.17,241.706" style="fill:none;"/>
            <clipPath id="_clip16">
                <path d="M487.858,115.432C487.858,115.432 476.17,209.978 476.17,241.706"/>
            </clipPath>
            <g clip-path="url(#_clip16)">
                <path d="M463.682,106.663C463.682,106.663 465.885,120.121 468.458,141.265C471.563,166.776 475.207,203.477 476.17,241.227" style="fill:none;stroke:rgb(155,155,155);stroke-width:0.16px;stroke-miterlimit:10;"/>
            </g>
            <path d="M487.858,115.432C487.858,115.432 476.17,209.978 476.17,241.706" style="fill:none;stroke:rgb(155,155,155);stroke-width:0.16px;stroke-miterlimit:10;"/>
        </g>
    </g>
    <defs>
        <linearGradient id="_Linear1" x1="0" y1="0" x2="1" y2="0" gradientUnits="userSpaceOnUse" gradientTransform="matrix(1.72176e-14,-281.185,281.185,1.72176e-14,489.927,281.151)"><stop offset="0" style="stop-color:white;stop-opacity:1"/><stop offset="0.29" style="stop-color:rgb(222,242,255);stop-opacity:1"/><stop offset="1" style="stop-color:rgb(107,172,221);stop-opacity:1"/></linearGradient>
        <radialGradient id="_Radial2" cx="0" cy="0" r="1" gradientUnits="userSpaceOnUse" gradientTransform="matrix(59.2559,0,0,57.3572,619.018,163.586)"><stop offset="0" style="stop-color:white;stop-opacity:1"/><stop offset="0.12" style="stop-color:rgb(255,254,247);stop-opacity:0.87451"/><stop offset="0.31" style="stop-color:rgb(255,251,225);stop-opacity:0.686275"/><stop offset="0.54" style="stop-color:rgb(255,247,188);stop-opacity:0.454902"/><stop offset="0.81" style="stop-color:rgb(255,241,138);stop-opacity:0.184314"/><stop offset="1" style="stop-color:rgb(255,236,98);stop-opacity:0"/></radialGradient>
        <radialGradient id="_Radial3" cx="0" cy="0" r="1" gradientUnits="userSpaceOnUse" gradientTransform="matrix(350.433,0,0,-348.956,489.73,354.209)"><stop offset="0" style="stop-color:rgb(166,228,255);stop-opacity:1"/><stop offset="1" style="stop-color:rgb(18,109,166);stop-opacity:1"/></radialGradient>
        <radialGradient id="_Radial6" cx="0" cy="0" r="1" gradientUnits="userSpaceOnUse" gradientTransform="matrix(5.24447,-1.63064,-3.04358,-10.1854,477.086,50.8562)"><stop offset="0" style="stop-color:rgb(160,223,255);stop-opacity:1"/><stop offset="1" style="stop-color:rgb(0,166,212);stop-opacity:0.976471"/></radialGradient>
        <radialGradient id="_Radial7" cx="0" cy="0" r="1" gradientUnits="userSpaceOnUse" gradientTransform="matrix(23.3941,23.2447,22.4936,-24.8094,431.862,84.6189)"><stop offset="0" style="stop-color:rgb(145,232,255);stop-opacity:0.898039"/><stop offset="1" style="stop-color:rgb(46,141,233);stop-opacity:0.898039"/></radialGradient>
        <radialGradient id="_Radial8" cx="0" cy="0" r="1" gradientUnits="userSpaceOnUse" gradientTransform="matrix(4.55488,7.36525,1.85213,-4.36812,534.284,43.919)"><stop offset="0" style="stop-color:rgb(160,223,255);stop-opacity:0.694118"/><stop offset="1" style="stop-color:rgb(255,246,85);stop-opacity:0.894118"/></radialGradient>
        <radialGradient id="_Radial9" cx="0" cy="0" r="1" gradientUnits="userSpaceOnUse" gradientTransform="matrix(17.3205,28.0272,26.4873,-18.1058,480.917,66.1196)"><stop offset="0" style="stop-color:rgb(239,255,148);stop-opacity:0.627451"/><stop offset="1" style="stop-color:rgb(255,232,42);stop-opacity:0.898039"/></radialGradient>
        <radialGradient id="_Radial10" cx="0" cy="0" r="1" gradientUnits="userSpaceOnUse" gradientTransform="matrix(3.9468,7.708,2.19597,-4.20436,573.264,71.1125)"><stop offset="0" style="stop-color:rgb(160,223,255);stop-opacity:0.694118"/><stop offset="1" style="stop-color:rgb(255,21,21);stop-opacity:0.894118"/></radialGradient>
        <radialGradient id="_Radial11" cx="0" cy="0" r="1" gradientUnits="userSpaceOnUse" gradientTransform="matrix(15.0199,29.3138,27.8534,-15.944,520.828,88.791)"><stop offset="0" style="stop-color:rgb(255,202,202);stop-opacity:0.807843"/><stop offset="1" style="stop-color:rgb(189,30,30);stop-opacity:0.898039"/></radialGradient>
        <radialGradient id="_Radial12" cx="0" cy="0" r="1" gradientUnits="userSpaceOnUse" gradientTransform="matrix(6.10759,6.1504,0.813736,-4.66897,493.669,26.6979)"><stop offset="0" style="stop-color:rgb(160,223,255);stop-opacity:0.694118"/><stop offset="1" style="stop-color:rgb(0,191,12);stop-opacity:0.894118"/></radialGradient>
        <radialGradient id="_Radial13" cx="0" cy="0" r="1" gradientUnits="userSpaceOnUse" gradientTransform="matrix(23.232,23.4054,21.6941,-23.5971,446.703,60.4249)"><stop offset="0" style="stop-color:rgb(99,240,200);stop-opacity:0.898039"/><stop offset="1" style="stop-color:rgb(0,184,143);stop-opacity:0.898039"/></radialGradient>
        <radialGradient id="_Radial14" cx="0" cy="0" r="1" gradientUnits="userSpaceOnUse" gradientTransform="matrix(2.43249,8.3059,2.94719,-3.72091,567.498,67.3479)"><stop offset="0" style="stop-color:rgb(160,223,255);stop-opacity:0.694118"/><stop offset="1" style="stop-color:rgb(126,63,255);stop-opacity:0.894118"/></radialGradient>
        <radialGradient id="_Radial15" cx="0" cy="0" r="1" gradientUnits="userSpaceOnUse" gradientTransform="matrix(9.24653,31.5946,30.3574,-10.4727,510.06,74.7417)"><stop offset="0" style="stop-color:rgb(204,179,255);stop-opacity:0.85098"/><stop offset="0.58" style="stop-color:rgb(177,75,255);stop-opacity:0.882353"/><stop offset="1" style="stop-color:rgb(164,26,255);stop-opacity:0.898039"/></radialGradient>
    </defs>
</svg>
