<?xml version="1.0" encoding="UTF-8" standalone="no"?>
<!DOCTYPE svg PUBLIC "-//W3C//DTD SVG 1.1//EN" "http://www.w3.org/Graphics/SVG/1.1/DTD/svg11.dtd">
<svg viewBox="0 0 980 430" xmlns="http://www.w3.org/2000/svg" xmlns:serif="http://www.serif.com/" fill-rule="evenodd" clip-rule="evenodd">
  <path id="sky" d="M0 0h980v278.901L0 281.362V0z" fill="url(#_Linear1)" fill-rule="nonzero"/>
  <g id="sun">
    <ellipse cx="598.075" cy="160.45" rx="59.264" ry="57.421" fill="url(#_Radial2)"/>
    <ellipse cx="598.075" cy="162.747" rx="34.406" ry="34.288" fill="#ff0"/>
  </g>
  <g id="cloud_3" fill="#fff" fill-rule="nonzero">
    <path d="M925.093 160.619c0 10.426-8.315 18.706-18.785 18.706s-18.785-8.28-18.785-18.706c0-10.427 8.315-18.707 18.785-18.707 9.854-.307 18.785 8.28 18.785 18.707z"/>
    <path d="M942.338 161.845c0 8.587-7.083 15.947-16.014 15.947-8.622 0-16.013-7.053-16.013-15.947 0-8.586 7.083-15.946 16.013-15.946 8.931.613 16.014 7.053 16.014 15.946 0-.306 0-.306 0 0zm-47.116 1.534c0 5.213-4.312 9.2-9.239 9.2-5.235 0-9.238-4.294-9.238-9.2 0-5.214 4.311-9.2 9.238-9.2 5.235.306 9.239 4.293 9.239 9.2zm-26.176 0c0 2.76-2.156 4.906-4.927 4.906-2.772 0-4.927-2.146-5.235-4.906 0-2.76 2.155-4.907 4.927-5.214h.308c2.771.614 4.927 2.76 4.927 5.214zm89.305 0c0 2.76-2.156 4.906-4.927 4.906-2.772 0-4.927-2.146-4.927-4.906s2.155-4.907 4.927-5.214c2.771.614 4.927 2.76 4.927 5.214z"/>
  </g>
  <g id="cloud_2" fill="#fff">
    <g fill-rule="nonzero">
      <path d="M754.933 99.581c0 20.807-17.29 37.33-38.284 37.33-20.995 0-37.667-16.523-37.667-37.33s16.672-37.33 37.667-37.33c20.377 0 38.284 16.523 38.284 37.33z"/>
      <path d="M789.512 102.641c0 17.135-14.202 31.822-32.109 31.822-17.29 0-32.11-13.463-32.11-31.822 0-17.135 14.203-31.822 32.11-31.822 17.907.612 32.109 14.075 32.109 31.822zm-94.475 3.06c0 10.403-8.645 18.358-18.525 18.358-10.497 0-18.525-8.567-18.525-18.358 0-10.404 8.645-18.359 18.525-18.359 9.88.612 18.525 7.955 18.525 18.359z"/>
    </g>
    <ellipse cx="652.894" cy="71.366" rx="4.445" ry="4.43"/>
    <g fill-rule="nonzero">
      <path d="M786.454 75.573c2.512 14.843-10.05 27.566-26.381 29.686-17.587 2.121-32.662-8.481-35.174-21.204-2.513-14.843 8.793-27.566 25.124-29.686 18.843-3.181 33.918 7.421 36.431 21.204z"/>
      <path d="M835.446 69.212c3.769 16.963-11.306 31.806-30.149 34.987-20.1 2.12-37.687-9.542-41.455-25.445-3.769-16.964 11.306-31.807 30.149-34.987 20.099-3.181 38.943 8.481 41.455 25.445zm-97.985 13.783c1.256 8.481-5.025 15.903-16.331 18.023-10.05 1.061-20.099-4.24-21.356-13.782-1.256-8.482 5.025-16.964 15.075-18.024 12.562 0 22.612 4.241 22.612 13.783z"/>
      <path d="M871.877 72.393c2.512 12.722-8.794 24.385-22.612 26.505-16.331 2.12-28.894-7.422-31.406-19.084-2.512-12.723 8.794-24.385 22.612-26.505 16.331-3.181 30.149 5.301 31.406 19.084z"/>
    </g>
  </g>
  <g id="cloud-1" fill="#fff">
    <path d="M210.201 92.476c3.984 24.953-15.937 46.341-41.834 49.906-27.889 3.565-51.794-14.259-55.778-35.648-3.984-24.953 13.945-46.341 39.842-49.906 27.889-3.565 51.794 12.477 57.77 35.648z" fill-rule="nonzero"/>
    <path d="M287.892 78.217c5.976 28.517-17.929 53.471-47.81 58.818-31.873 3.565-59.762-16.042-65.739-42.777-3.984-28.518 17.929-53.471 47.81-58.818 29.882-1.783 59.763 17.823 65.739 42.777zM132.51 104.952c1.992 14.259-7.969 26.736-25.897 30.3-15.937 1.783-31.873-7.129-33.866-23.17-1.992-14.259 7.969-28.518 23.905-30.301 17.929-3.564 33.866 8.912 35.858 23.171z" fill-rule="nonzero"/>
    <path d="M321.757 97.823c3.985 21.388-13.944 40.994-35.857 44.559-25.897 3.565-45.818-12.477-49.802-32.083-3.984-21.388 13.944-40.994 35.857-44.559 23.905-3.565 47.81 12.477 49.802 32.083z" fill-rule="nonzero"/>
    <ellipse cx="100.749" cy="62.671" rx="14.322" ry="12.469"/>
  </g>
  <path id="mountains_back" d="M2.469 241.167c23.212-1.312 39.345-60.537 61.899-54.959 22.882 7.054 34.406 46.757 71.446 43.147 31.607-2.953 59.758-68.741 84.945-66.28 32.925-1.312 39.839 70.054 68.483 55.78 23.706-14.109 44.942-31.663 53.832-20.999 8.725 10.664 81.159 71.366 114.578 67.592 33.418-3.609 85.439-46.757 111.943-34.944 26.34 11.648 96.14 44.296 106.676 15.257 10.536-29.366 23.705-34.945 40.662-20.999 16.627 14.109 89.061-43.148 100.255-61.195 22.389-33.468 34.735-23.788 60.252-7.875 24.693 15.75 49.551 37.078 77.043 41.015 18.767 1.805 23.377-2.296 26.011 6.071v75.959L0 277.425v-36.258h2.469z" fill="#afa3b2" fill-rule="nonzero"/>
  <path id="mountains" d="M0 253.964c17.45-5.906 52.844-14.929 70.952-28.546 9.878-7.547 20.908-29.203 32.76-43.312 13.664-18.211 29.468-10.336 41.485 2.625 18.438 20.343 32.266 52.663 55.972 51.023 7.408-1.313 14.158-9.68 20.578-16.406 12.347-12.797 18.438-6.399 29.303 1.312 14.981 10.336 34.571 22.148 45.271 15.094 14.981-9.188 55.972-77.765 81.489-59.226 25.845 18.375 39.838 47.577 66.343 61.358 26.339 13.781 81.982-13.124 111.12-1.64 29.138 11.32 38.028 26.085 56.301 2.461 18.438-23.789 37.04-24.609 54.819-11.321 17.615 12.961 41.321-24.608 64.368-52.827 22.883-28.382 41.485-10.664 73.257 29.859 31.772 40.523 51.033 10.664 69.636-19.195 18.602-30.023 24.693-66.116 43.295-55.944 18.603 9.843 38.687 85.803 50.21 93.35 11.359 7.711 12.841 8.695 12.841 16.57v40.194l-980-.656v-24.773z" fill="#c0c4ca" fill-rule="nonzero"/>
  <path id="water" d="M0 278.711l979.982.456.044 150.864L0 430V278.711z" fill="url(#_Radial3)" fill-rule="nonzero"/>
  <path id="mountains_reflection" d="M-.013 298.916c17.615 4.266 52.857 10.828 71.13 20.508 10.042 5.25 21.236 20.671 33.089 30.679 13.829 12.961 29.632 7.383 41.814-1.805 18.603-14.273 32.431-37.241 56.302-36.257 7.572.985 14.322 7.055 20.742 11.648 12.347 8.86 18.438 4.594 29.467-.984 14.981-7.547 34.736-15.586 45.601-10.828 14.981 6.563 56.301 55.124 82.147 41.999 25.846-13.124 40.003-33.796 66.672-43.639 26.504-9.68 82.641 9.187 111.944 1.148 29.303-8.203 38.192-18.375 56.795-1.641 18.767 16.734 37.369 17.391 55.148 8.203 17.78-9.187 41.65 17.391 64.862 37.57 23.211 20.179 41.814 7.547 73.586-21.164 32.102-28.71 51.362-7.546 70.129 13.617 18.767 21.164 25.023 46.593 43.625 39.539 18.767-7.219 39.016-60.866 50.54-66.28 5.926-5.414 6.585-6.071 6.585-11.485S980 279.205 980 279.205l-980-.468-.013 20.179z" fill="#9b959a" fill-opacity=".1373" fill-rule="nonzero"/>
  <g id="beach" fill-rule="nonzero">
    <path d="M980 430H629.353C727.962 355.189 848.137 306.791 980 305.151V430z" fill="#fbb829"/>
    <path d="M738.827 430s79.513-96.959 212.529-123.701C827.559 314.01 697.672 363.556 629.353 430" fill="#fff065"/>
  </g>
  <g id="pasture" fill-rule="nonzero">
    <path id="field" d="M0 430V277.589C123.796 299.081 202.322 364.704 287.267 430H0z" fill="#abd224"/>
    <path d="M287.596 430c0-25.429-167.092-126.326-246.77-143.06C54.655 345.017 96.469 389.969 180.097 430c.165.164-.164 0 0 0" fill="#c3e64a"/>
  </g>
  <path id="towel" d="M963.867 378.813l-112.602 12.141c-.659 0-.988.656-.823 1.312l9.877 31.828c.165.492.659.82 1.153.656l117.54-16.734c.659-.164 1.153-.82.823-1.477l-14.98-27.069c-.33-.493-.659-.657-.988-.657z" fill="#d14fab" fill-rule="nonzero"/>
  <g id="mommy_duck" fill-rule="nonzero">
    <path d="M900.915 322.91s14.934-2.85 22.56 6.017c7.944 8.55 5.402 19.95 0 25.333-5.401 5.384-6.037 8.867-3.177 11.084 3.177 2.216 14.934-11.4 17.794-12.667 3.495-1.267 9.215 6.017 11.121 21.217 1.907 15.2 1.907 27.866-8.261 31.349-10.168 3.8-32.093 3.484-47.981 1.584-16.205-2.217-16.205-12.983-16.841-16.783-.635-3.8 2.542-16.467 10.804-19.95 7.944-3.8 4.131-14.567 1.906-17.1-2.224-2.85-4.448-4.434-4.448-4.434l3.177-11.083c.636-.317 1.907-7.917 13.346-14.567" fill="#fff065"/>
    <path d="M902.186 335.26c-.636 2.217.318 4.75 2.224 5.384 1.907.633 4.449-.634 5.084-2.85.636-2.217-.317-4.75-2.224-5.384-1.906-.633-4.448.634-5.084 2.85m-12.075-2.85c-.953 1.9-.953 3.8 0 4.117.954.633 2.542-.633 3.496-2.217.953-1.9 1.271-3.8.317-4.116-.953-.95-2.859.316-3.813 2.216" fill="#fff"/>
    <path d="M903.139 336.21c0 1.267.954 2.534 2.542 2.534 1.589 0 2.542-.95 2.542-2.534 0-1.266-1.271-2.533-2.542-2.533-1.271.633-2.542 1.583-2.542 2.533m-13.028-3.166c-.635 1.266-.953 2.533-.317 2.85.635.316 1.588-.317 2.542-1.267.635-1.267.953-2.533.317-2.85-.635-.317-1.906 0-2.542 1.267"/>
    <path d="M910.765 342.86s-5.401 1.267-8.579-2.216c-3.178-3.484-3.495-5.7-7.944-4.434-4.766.95-5.402 2.217-6.673 1.267-1.588-.633-4.766-.317-6.037 2.85-1.271 3.167 3.178 6.65 3.178 6.65s-2.542.317.317 2.85c3.178 2.217 8.897 4.433 13.981 4.433 5.085 0 12.711-5.7 11.757-11.4" fill="#f7a934"/>
    <path d="M908.859 345.71s-3.813 3.8-10.168 4.117c-6.355.317-14.935-2.85-15.57-4.117-.636-.95-4.449-5.7.635-6.65 5.402-1.266 6.991 6.334 12.075 7.284 5.084.95 13.028-.634 13.028-.634" fill="#d28011"/>
  </g>
  <g id="daddy_duck" fill-rule="nonzero">
    <path id="duck_1" d="M345.153 319.724s-12.84-2.297-19.754 5.25c-6.914 7.71-4.445 17.554 0 21.984 4.444 4.429 5.432 7.71 2.798 9.515-2.963 1.969-12.84-9.844-15.804-10.992-2.963-1.148-8.066 5.25-9.383 18.539-1.646 13.289-1.646 24.117 7.243 27.234 8.725 3.117 27.986 2.953 41.815 1.312 13.828-1.805 13.993-11.156 14.651-14.601.494-3.281-2.305-14.273-9.219-17.555-7.079-3.281-3.622-12.796-1.811-14.929 1.976-2.297 3.622-3.773 3.622-3.773l-2.799-9.68c-.329.164-2.304-9.843-11.359-12.304" fill="#fff065"/>
    <path d="M344.33 330.223c.659 1.969-.164 3.938-1.975 4.594-1.811.492-3.622-.492-4.28-2.625-.659-2.133.164-3.937 1.975-4.593 1.811-.329 3.622.82 4.28 2.624m10.372-2.296c.987 1.476.987 3.117.164 3.609s-2.305-.492-2.963-1.969c-.988-1.476-.988-2.953-.165-3.445.823-.656 2.14.164 2.964 1.805" fill="#fff"/>
    <path d="M343.343 331.372c0 1.148-.988 2.133-2.141 2.133-1.152 0-2.14-.985-2.14-2.133 0-1.149.988-2.133 2.14-2.133 1.317.164 2.141.984 2.141 2.133m11.194-2.953c.658.984.823 2.133.329 2.297-.494.328-1.481-.164-2.14-1.149-.658-.984-.823-1.968-.329-2.297.823-.328 1.646.329 2.14 1.149"/>
    <path d="M336.922 336.95s4.61 1.148 7.573-1.969c2.963-2.953 2.963-4.593 6.914-3.773 4.116.984 4.445 1.805 5.762 1.148 1.317-.656 3.951-.492 5.268 2.297 1.152 2.789-2.799 5.906-2.799 5.906s2.305.328-.329 2.461c-2.634 2.133-7.737 3.774-12.182 3.938-4.28 0-11.03-4.922-10.207-10.008" fill="#f7a934"/>
    <path d="M338.404 339.411s3.292 3.117 8.89 3.445c5.432.328 12.84-2.625 13.663-3.281.823-.82 3.951-4.594-.658-5.742-4.61-1.149-6.256 5.414-10.536 6.398-4.445.656-11.194-.82-11.359-.82" fill="#d28011"/>
  </g>
  <g id="baby_duck">
    <path d="M259.91 343.054s-2.77 1.133-2.597 8.238c.173 7.207 1.299 10.502 1.299 10.502h30.129s.865-4.324-.433-6.796c-1.212-2.574-4.935-8.031-3.81-11.12 1.212-3.089 4.589-3.089 4.589-3.089l-2.251-5.663s-1.126-4.016-3.636-5.766c-2.251-1.956-4.589-1.339-7.706 0-3.203 1.236-5.887 5.251-4.762 9.37 1.126 4.324 3.377 4.53 2.598 7.207-.779 2.575-5.801 4.119-8.745 1.751-3.03-2.265-2.683-4.942-4.675-4.634" fill="#fff065" fill-rule="nonzero"/>
    <path d="M284.065 336.362s.52 3.912 2.338 4.53c1.818.618 2.684 0 2.684 0l1.818-.412.26-.72s-1.818-.927-1.732-1.339c.087-.412 1.732-1.545 1.905-3.192.086-1.75-3.636 1.442-7.273 1.133" fill="#f7a934" fill-rule="nonzero"/>
    <path d="M285.537 338.112s1.472.824 2.424 1.133c1.039.206 1.819 0 1.819 0l-.52-.824-3.723-.309z" fill="#d28011" fill-rule="nonzero"/>
    <path id="ellipse3999" d="M285.009 335.653c-.746.517-1.941.092-2.668-.948-.726-1.041-.71-2.306.036-2.823.745-.517 1.941-.092 2.667.949.727 1.04.711 2.305-.035 2.822z" fill="#fff"/>
    <path id="ellipse4001" d="M284.497 334.646c-.418.177-.989-.221-1.273-.887-.284-.667-.175-1.352.243-1.529.418-.177.988.221 1.273.887.284.667.175 1.352-.243 1.529z"/>
    <clipPath id="_clip4">
      <path d="M284.497 334.646c-.418.177-.989-.221-1.273-.887-.284-.667-.175-1.352.243-1.529.418-.177.988.221 1.273.887.284.667.175 1.352-.243 1.529z"/>
    </clipPath>
    <g clip-path="url(#_clip4)">
      <path id="polygon4128" d="M493.046 318.111l-7.902 20.836-58.112-35.109 5.597-15.914 60.417 30.187z" fill="#f9f9f9" fill-rule="nonzero"/>
    </g>
  </g>
  <g id="flying_cart">
    <path id="cart_shadow" d="M486.954 379.306l-69.47-34.617c-.494-.328-.33-.984.164-1.312l16.956-5.743h.494l79.019 32.976c.494.329.659.493 0 .657l-27.163 8.039c-.164 0 .165 0 0 0z" fill-opacity=".1" fill-rule="nonzero"/>
    <g id="cart">
      <path d="M495.186 261.019c-8.725-12.469-14.652-19.523-19.261-22.148M468.846 254.784c1.811-11.648 2.963-10.499 7.408-15.913" fill="none" stroke="#9a9a9b" stroke-width="3.29"/>
      <path d="M455.676 247.136l63.051 14.601-12.182 68.249-61.569-24.773 10.7-58.077z" fill="#aaa" fill-rule="nonzero"/>
      <g id="duck" fill-rule="nonzero">
        <path d="M493.046 241.167c-.494.165-7.244.165-10.866 7.219-3.786 7.055.988 10.336.988 10.336s-.164 4.758-3.786 5.414c-3.622.656-7.079 3.445-7.408 8.859-.329 5.414 1.646 8.039 1.646 8.039l22.224 5.086s6.585-2.953 7.408-8.695c1.153-5.906-7.902-10.008-7.243-14.93.658-4.922 4.445-.492 5.103-10.171.329-9.516-7.737-11.157-8.066-11.157" fill="#fff065"/>
        <path d="M490.576 247.73s-6.585-.328-7.572 2.133c-.988 2.461 1.646 3.281 1.646 3.281l11.523 1.804s2.799-1.804.659-4.265c-1.976-1.641-6.585-3.117-6.256-2.953" fill="#f7a934"/>
        <path d="M483.991 251.667s4.116-1.148 5.433-.492c1.481.328 6.255 2.133 6.255 2.133s-2.963-2.133-5.432-2.953c-2.305-.985-6.091 0-6.256 1.312m1.646 1.149s-.329.328 1.647.82c1.646.492 7.572.984 7.572.984s1.153-.164-1.975-.984-7.244-.82-7.244-.82" fill="#d28011"/>
        <path d="M489.095 245.925c-.165.985-.824 1.805-1.976 1.641-1.152-.164-1.317-.985-1.152-1.969.164-.984.658-1.805 1.811-1.476 1.317.164 1.646.82 1.317 1.804z" fill="#fff"/>
        <path d="M488.601 246.089c-.165.492-.823.985-1.317.985-.494-.164-.823-.657-.659-1.477.165-.82.823-.984 1.317-.984.659 0 .988.492.659 1.476"/>
        <path d="M494.363 248.55c-.824-.492-1.153-1.476-.494-2.461.658-.984 1.317-1.148 2.304-.656.988.492 1.317 1.477.659 2.461-.988.984-1.646 1.148-2.469.656z" fill="#fff"/>
        <path d="M495.844 247.238c-.165.492-.823.984-1.317.984-.494-.164-.823-.656-.658-1.476.164-.821.823-.985 1.317-.985.658 0 .987.656.658 1.477"/>
      </g>
      <g id="cart1">
        <path d="M485.144 338.845l25.352-7.219-22.06-8.367-3.292 15.586z" fill="#d8d8d8" fill-rule="nonzero"/>
        <path d="M510.331 331.79l-1.811-12.468 10.042-57.421-20.084-.82-.494 5.578-9.548 56.928 21.895 8.203z" fill="#dbdcdd" fill-rule="nonzero"/>
        <path d="M455.676 247.136l.988 2.953-8.067 47.905 7.079-50.858z" fill="#c3c3c3" fill-rule="nonzero"/>
        <path d="M502.429 265.346l-3.622-4.265-10.865 62.67 14.487-58.405z" fill="#cecece" fill-rule="nonzero"/>
        <path d="M438.72 247.136l17.944 2.953-13.499 54.468-15.969-.985 5.598-15.914 5.926-40.522z" fill="#d4d4d4" fill-rule="nonzero"/>
        <path d="M438.555 247.136l63.709 18.046-9.218 52.827-8.067 20.672-58.112-35.109 5.597-15.914 6.091-40.522z" fill="#f2f2f2" fill-rule="nonzero"/>
        <path d="M456.335 261.737c2.963-1.641 15.639-21.656 19.59-22.312 1.646 5.742-.494 19.031 2.14 29.367" fill="none" stroke="#afafaf" stroke-width="3.29"/>
      </g>
    </g>
    <g id="balloons">
      <g fill-rule="nonzero">
        <path d="M450.902 130.263c.823-.164.988-1.476 5.926 5.414-.164.656-6.42 2.625-7.078 1.969-.823-8.695.329-7.219 1.152-7.383z" fill="url(#_Radial5)"/>
        <path d="M469.011 86.952c2.798 16.077-7.079 42.491-20.908 44.624-14.651 2.461-31.772-19.523-34.241-35.601-2.799-16.078 7.243-32.812 22.553-35.437 14.981-2.297 29.797 10.5 32.596 26.414z" fill="url(#_Radial6)"/>
      </g>
      <g fill-rule="nonzero">
        <path d="M487.119 115.17c.823 0 1.482-.985 4.445 6.726-.329.656-7.408.656-7.902-.164 1.317-8.531 2.799-6.562 3.457-6.562z" fill="url(#_Radial7)"/>
        <path d="M516.587 76.944c-1.153 16.078-16.463 39.374-30.95 38.39-14.651-.985-26.339-26.25-25.187-42.492 1.153-16.077 14.652-30.187 30.126-29.202 15.31.984 26.998 17.062 26.011 33.304z" fill="url(#_Radial8)"/>
        <path d="M520.538 138.466c.823 0 1.481-.984 3.95 7.219-.493.656-7.408 0-7.901-.82 2.14-8.696 3.292-6.563 3.951-6.399z" fill="url(#_Radial9)"/>
        <path d="M555.273 102.537c-2.469 16.078-19.755 38.062-33.748 35.929-14.487-2.297-24.035-28.218-21.565-44.132 2.469-16.078 16.956-29.038 32.43-26.577 15.64 2.296 25.517 18.702 22.883 34.78z" fill="url(#_Radial10)"/>
      </g>
      <g fill-rule="nonzero">
        <path d="M463.743 106.803c.823-.164.987-1.477 5.926 5.414-.165.656-7.079 2.297-7.737 1.64-.659-8.531 1.152-6.89 1.811-7.054z" fill="url(#_Radial11)"/>
        <path d="M483.662 62.999c2.634 16.078-7.408 42.327-21.236 44.46-14.652 2.461-31.608-19.687-34.077-35.765-2.634-16.078 7.572-32.812 22.882-35.273 15.31-2.297 30.126 10.5 32.431 26.578z" fill="url(#_Radial12)"/>
      </g>
      <g fill-rule="nonzero">
        <path d="M502.923 123.865c.823.328 1.646-.82 2.634 7.711-.329.492-7.408-1.477-7.573-2.297 3.457-8.039 4.116-5.742 4.939-5.414z" fill="url(#_Radial13)"/>
        <path d="M541.609 94.826c-5.432 15.258-26.669 33.633-40.003 29.039-13.993-4.922-18.438-32.156-13.005-47.577 5.432-15.422 22.224-25.43 37.04-20.18 14.322 4.758 21.401 23.133 15.968 38.718z" fill="url(#_Radial14)"/>
      </g>
      <path d="M502.923 123.865s-26.669 86.951-26.669 117.631M451.561 130.427s23.211 78.421 24.693 110.905M463.743 106.803s10.7 65.624 12.511 134.693M520.538 138.466s-39.181 67.593-44.284 102.209M487.942 115.498s-11.688 94.662-11.688 126.326" fill="none" stroke="#9b9b9b" stroke-width=".16" stroke-miterlimit="10"/>
    </g>
  </g>
  <defs>
    <linearGradient id="_Linear1" x2="1" gradientUnits="userSpaceOnUse" gradientTransform="matrix(0 -281.367 282.333 0 490.111 281.246)">
      <stop offset="0" stop-color="#fff"/>
      <stop offset=".2" stop-color="#f4fcff"/>
      <stop offset=".54" stop-color="#d7f3ff"/>
      <stop offset=".99" stop-color="#a9e5ff"/>
      <stop offset="1" stop-color="#a7e4ff"/>
    </linearGradient>
    <radialGradient id="_Radial2" cx="0" cy="0" r="1" gradientUnits="userSpaceOnUse" gradientTransform="matrix(59.2559 0 0 -57.4088 598.185 160.445)">
      <stop offset="0" stop-color="#fff"/>
      <stop offset=".12" stop-color="#fffef7" stop-opacity=".8784"/>
      <stop offset=".31" stop-color="#fffbe1" stop-opacity=".6902"/>
      <stop offset=".54" stop-color="#fff7bc" stop-opacity=".4549"/>
      <stop offset=".81" stop-color="#fff18a" stop-opacity=".1882"/>
      <stop offset="1" stop-color="#ffec62" stop-opacity="0"/>
    </radialGradient>
    <radialGradient id="_Radial3" cx="0" cy="0" r="1" gradientUnits="userSpaceOnUse" gradientTransform="matrix(350.533 0 0 349.333 489.959 354.581)">
      <stop offset="0" stop-color="#a6e8ff" stop-opacity=".898"/>
      <stop offset="1" stop-color="#00abc1"/>
    </radialGradient>
    <radialGradient id="_Radial5" cx="0" cy="0" r="1" gradientUnits="userSpaceOnUse" gradientTransform="matrix(5.24494 -1.63208 3.04385 10.1959 477.129 50.8864)">
      <stop offset="0" stop-color="#a0dfff"/>
      <stop offset="1" stop-color="#00a6d4" stop-opacity=".9804"/>
    </radialGradient>
    <radialGradient id="_Radial6" cx="0" cy="0" r="1" gradientUnits="userSpaceOnUse" gradientTransform="matrix(23.3962 23.2652 -22.4956 24.8314 431.901 84.6595)">
      <stop offset="0" stop-color="#cbedf6" stop-opacity=".9"/>
      <stop offset="1" stop-color="#2e8de9" stop-opacity=".9"/>
    </radialGradient>
    <radialGradient id="_Radial7" cx="0" cy="0" r="1" gradientUnits="userSpaceOnUse" gradientTransform="matrix(4.55528 7.37176 -1.8523 4.37198 534.332 43.9235)">
      <stop offset="0" stop-color="#a0dfff" stop-opacity=".698"/>
      <stop offset="1" stop-color="#fff655" stop-opacity=".898"/>
    </radialGradient>
    <radialGradient id="_Radial8" cx="0" cy="0" r="1" gradientUnits="userSpaceOnUse" gradientTransform="matrix(17.322 28.052 -26.4897 18.1218 480.96 66.1439)">
      <stop offset="0" stop-color="#efff94" stop-opacity=".6282"/>
      <stop offset="1" stop-color="#ffe82a" stop-opacity=".9"/>
    </radialGradient>
    <radialGradient id="_Radial9" cx="0" cy="0" r="1" gradientUnits="userSpaceOnUse" gradientTransform="matrix(3.94715 7.71481 -2.19617 4.20808 573.315 71.141)">
      <stop offset="0" stop-color="#a0dfff" stop-opacity=".698"/>
      <stop offset="1" stop-color="#ff1515" stop-opacity=".898"/>
    </radialGradient>
    <radialGradient id="_Radial10" cx="0" cy="0" r="1" gradientUnits="userSpaceOnUse" gradientTransform="matrix(15.0213 29.3397 -27.8559 15.9581 520.875 88.8354)">
      <stop offset="0" stop-color="#ffcaca" stop-opacity=".8082"/>
      <stop offset="1" stop-color="#ff1515" stop-opacity=".9"/>
    </radialGradient>
    <radialGradient id="_Radial11" cx="0" cy="0" r="1" gradientUnits="userSpaceOnUse" gradientTransform="matrix(6.10813 6.15584 -.8138 4.6731 493.713 26.6872)">
      <stop offset="0" stop-color="#a0dfff" stop-opacity=".698"/>
      <stop offset="1" stop-color="#00bf0c" stop-opacity=".898"/>
    </radialGradient>
    <radialGradient id="_Radial12" cx="0" cy="0" r="1" gradientUnits="userSpaceOnUse" gradientTransform="matrix(23.2341 23.4261 -21.696 23.618 446.743 60.4445)">
      <stop offset="0" stop-color="#9ef0bd" stop-opacity=".9"/>
      <stop offset="1" stop-color="#4dac39" stop-opacity=".9"/>
    </radialGradient>
    <radialGradient id="_Radial13" cx="0" cy="0" r="1" gradientUnits="userSpaceOnUse" gradientTransform="matrix(2.43271 8.31324 -2.94745 3.7242 567.549 67.3732)">
      <stop offset="0" stop-color="#a0dfff" stop-opacity=".698"/>
      <stop offset="1" stop-color="#7e3fff" stop-opacity=".898"/>
    </radialGradient>
    <radialGradient id="_Radial14" cx="0" cy="0" r="1" gradientUnits="userSpaceOnUse" gradientTransform="matrix(9.24736 31.6225 -30.3601 10.482 510.106 74.7736)">
      <stop offset="0" stop-color="#ccb3ff" stop-opacity=".8067"/>
      <stop offset="1" stop-color="#a41aff" stop-opacity=".85"/>
    </radialGradient>
  </defs>
</svg>