<svg xmlns="http://www.w3.org/2000/svg" xmlns:serif="http://www.serif.com/" xmlns:xlink="http://www.w3.org/1999/xlink" fill-rule="evenodd" stroke-linecap="round" stroke-miterlimit="10" clip-rule="evenodd" viewBox="0 0 1369 603">
  <path fill="url(#_Radial1)" d="M-.7-.2h1370.3v604.4H-.7z"/>
  <path fill="#fff" fill-rule="nonzero" d="M1316.2 27.4l2.5 5.1 5.6.8-4 3.9.9 5.5-5-2.6-4.9 2.6.9-5.5-4-3.9 5.5-.8 2.5-5.1zM182 61.8l2.5 5 5.6.8-4.1 3.9 1 5.6-5-2.6-5 2.6 1-5.6-4-3.9 5.5-.8 2.5-5zM592.4 74.1l2.5 5.1 5.6.8-4 3.9.9 5.5-5-2.6-4.9 2.6.9-5.5-4-3.9 5.6-.8 2.4-5.1zM1262.8 54.6l1.6 3.3 3.6.5-2.6 2.6.6 3.6-3.2-1.7-3.3 1.7.6-3.6-2.6-2.6 3.6-.5 1.7-3.3zM1297.8 353l1.6 3.3 3.7.5-2.6 2.6.6 3.6-3.3-1.7-3.2 1.7.6-3.6-2.7-2.6 3.7-.5 1.6-3.3zM1082 19.9l1.6 3.3 3.6.5-2.6 2.6.6 3.6-3.2-1.7-3.3 1.7.6-3.6-2.6-2.6 3.6-.5 1.7-3.3zM553.7 57.4l1.6 3.3 3.6.5-2.6 2.6.6 3.6-3.2-1.7-3.3 1.7.6-3.6-2.6-2.6 3.6-.5 1.7-3.3zM401.4 32.4l1.6 3.3 3.7.5-2.7 2.6.7 3.6-3.3-1.7-3.2 1.7.6-3.6-2.7-2.6 3.7-.5 1.6-3.3z"/>
  <circle cx="1315.6" cy="74.2" r="2" fill="#0ff"/>
  <circle cx="1215.8" cy="22.9" r="2" fill="#fff"/>
  <circle cx="1018.6" cy="67.4" r="2" fill="#fff"/>
  <circle cx="933.6" cy="64.6" r="2" fill="#fff"/>
  <circle cx="920.6" cy="115.7" r="2" fill="#fff"/>
  <circle cx="21.4" cy="37.1" r="2" fill="#fff"/>
  <circle cx="58.7" cy="54.3" r="2" fill="#ff0"/>
  <circle cx="300.5" cy="98" r="2" fill="#fff"/>
  <circle cx="41.5" cy="230.4" r="2" fill="#fff"/>
  <circle cx="289.4" cy="131" r="2" fill="#0ff"/>
  <circle cx="205.2" cy="42.4" r="2" fill="#fff" fill-opacity=".51"/>
  <circle cx="1344.1" cy="381.6" r="2" fill="#ff0"/>
  <circle cx="488" cy="123.3" r="2" fill="#fff" fill-opacity=".51"/>
  <circle cx="342.6" cy="122.9" r="2" fill="#fff" fill-opacity=".51"/>
  <circle cx="69.7" cy="244" r="2" fill="#fff" fill-opacity=".51"/>
  <circle cx="157.1" cy="41" r="2" fill="#fff" fill-opacity=".51"/>
  <circle cx="571.9" cy="51.4" r="2" fill="#fff"/>
  <circle cx="155.2" cy="180.8" r="2" fill="#fff"/>
  <circle cx="739.4" cy="24.9" r="2" fill="#fff"/>
  <circle cx="60.7" cy="290.5" r="2" fill="#fff"/>
  <circle cx="973.9" cy="483.4" r="2" fill="#fff"/>
  <circle cx="1179.5" cy="290.5" r="2" fill="#fff"/>
  <circle cx="1198.7" cy="286.6" r="2" fill="#fff"/>
  <circle cx="1161.8" cy="413.4" r="2" fill="#fff"/>
  <circle cx="970.1" cy="232.3" r="1.9" fill="#fff" fill-opacity=".51"/>
  <circle cx="1035.6" cy="246.1" r="2.1" fill="#fff"/>
  <circle cx="897.7" cy="95.2" r="2.1" fill="#fff"/>
  <circle cx="1346" cy="327.5" r="2.1" fill="#fff"/>
  <circle cx="1243.7" cy="201.2" r="2.3" fill="#0ff"/>
  <circle cx="283.3" cy="235.9" r="2.3" fill="#fff" fill-opacity=".51"/>
  <circle cx="417.6" cy="35.1" r="2.3" fill="#fff"/>
  <circle cx="1350" cy="307.7" r="1.8" fill="#fff"/>
  <circle cx="1330" cy="308.5" r="1.8" fill="#fff"/>
  <circle cx="425.8" cy="127" r="1.7" fill="#fff"/>
  <circle cx="975.9" cy="148.1" r="1.7" fill="#fff"/>
  <circle cx="1308.2" cy="160" r="1.7" fill="#fff"/>
  <circle cx="175.2" cy="296.8" r="1.7" fill="#fff"/>
  <path fill="url(#_Radial2)" fill-rule="nonzero" d="M323.3 411.2c-66.8-35.1-72.6-35.1-142.3 4.1-99.1 52.1-181.6 95-181.6 95v93.8h673.8c-66.5-35.5-299.1-165.8-349.9-192.9z"/>
  <path fill="url(#_Radial3)" fill-rule="nonzero" d="M1239.6 401.4c-40.2 17.2-80 46.6-276.8 159.4-162.4-78.8-154.8-84-201-62.8-46.2 21.2-72.7 32.9-151.7 72.6 9.3 5.2 18.7 10.4 28.2 15.6 12 6.5 22.3 13.8 34.8 18h696.5V453.6c-43.6-29.8-89.8-69.5-130-52.2z"/>
  <path fill="url(#_Linear4)" fill-rule="nonzero" d="M-50.4 285.4c0-1.5 568.3-141.7 568.3-141.7l53.6 7.2L676.9 415l-42.1 39-512.1 148.4H-50.4v-317z"/>
  <g>
    <g fill-rule="nonzero">
      <path fill="url(#_Linear5)" d="M616.9 424.4s-113.3-11-218.6 45.2l16.2 7.1s-65.3 8.7-125.2 70.4c78.6 13.3 111.3 7.4 146.6-11.9l-11.1 15.3s108.2 10.3 210.4-71.2l-18.3-54.9z"/>
      <path fill="url(#_Linear6)" d="M617.3 433.4s-106.1-.7-174.2 35.7l17.9 7.5s-59.6 9.8-98.3 49.6c50.9 8.6 83.1-1.8 105.9-14.2l-7.6 17.5s59.4 5.6 168.2-60.5l-11.9-35.6z"/>
    </g>
    <path fill="#eb1753" fill-rule="nonzero" d="M1012 384.9S683.6 489.4 626 507.2c-3.6 1.1-7.4.2-10.1-2.3-22.4-21.3-27.3-65.4-28.3-83.5-.3-4.7 2.7-9 7.2-10.4l383.8-121.6 33.4 95.5z"/>
    <path fill="#940069" fill-rule="nonzero" d="M1011.6 383.6l-32.5-93c-.2-.7-1-1.1-1.7-.8l-190.9 60.5c-.5.1-.8.5-.9 1-1.2 5.9-1.8 11.9-1.9 17.7 0 1 1.1 1.7 2 1.2 37.9-21.5 155.9-69.9 163.9-16.4 8.1 54.1-140.5 84.5-145.3 77.7-.4-.2-.8-.1-1.1 0 0 0-.1 0-.1.1-.7.3-1 1.3-.6 1.9 3 4.8 6.3 9.5 9.9 13.9.4.4.9.6 1.5.4 92.3-29.3 184.9-58.7 197-62.6.6-.1.9-.9.7-1.6z"/>
    <path fill="#940069" fill-rule="nonzero" d="M768.8 376.2c5-1.6 9.9-3.2 14.9-4.9 0-6.9.7-13.9 2.1-20.9l-23.1 7.3v.1l-152 48.1c22.1-3.2 44.3-6.8 67.1-3.7 19 3 32 22 27 41-6.3 22.5-23.1 37.7-41 52.2 24.9-7.8 60.4-19.1 98.8-31.3 16.4-5.2 33.3-10.6 50.3-15.9-4.1-5.1-7.9-10.4-11.3-16-12.5 5.6-26.4 10.7-34.9 23 8.5-12.3 22.4-17.4 34.9-23-11.3-18.5-18-39.3-18-60.9-4.9 1.7-9.9 3.3-14.8 4.9z"/>
    <path fill="#eb1753" fill-rule="nonzero" d="M959 267.8c14.7 4.1 113.4 37.2 113.4 37.2 3.1 1.3 4.4 5.1 2.6 8 0 0-59.4 87.8-67.5 98.7-6.5 8.8-36.3-18.6-49.4-62.5-13.1-43.9-13.8-85.4.9-81.4z"/>
    <path fill="#ffe0f5" d="M1028.55 299.711c.909-2.722 10.742-1.896 21.944 1.843 11.203 3.739 19.561 8.985 18.652 11.707-.909 2.723-10.742 1.897-21.944-1.843-11.203-3.739-19.561-8.985-18.652-11.707zM1018.04 292.358a4.802 4.802 0 0 1 6.265 2.612 4.803 4.803 0 0 1-2.611 6.266 4.803 4.803 0 0 1-6.266-2.612 4.803 4.803 0 0 1 2.612-6.266z"/>
    <g>
      <path fill="url(#_Linear7)" fill-rule="nonzero" d="M782.9 45.2s-21.3.9-29.7 15.3c-6.5 12.6-1.6 27.3 10 36.5 7.9 6.7 7.8 11.6 4.9 14.8-4.7 4.8-20.6 10.1-27-6.9-5.8-12.2-21.1 12-6.9 43.3 14.2 31.4 52.8 32.3 81.8 13.4 22.1-12.4 24.6-45.1 4.5-57.1-13.4-8.6-14.3-17.3-12-21.5 2.3-4.2 4.6-7.4 4.6-7.4l-7.7-14.7c-.4.3-7.3-15-22.5-15.7"/>
      <g fill="#ff0" fill-rule="nonzero">
        <path d="M754.5 129.8c2.8-3.2 3-7.9-4.4-14.4-3.3-1.4-6.3-4.3-8.5-9.3-.7-1.1-1.3-2.2-1.8-3.3-4.6-4.9-12.1 5.2-11.4 21.9 6.8 14.8 21.6 9.7 26.1 5.1zM820.4 104.5c-13.4-8.6-14.3-17.3-12-21.5 2.3-4.2 4.6-7.4 4.6-7.4l-7.7-14.7c-.3.3-7.1-15-22.3-15.7 0 0-21.3.9-29.7 15.3-1.3 2.6-2.2 5.2-2.6 7.9 5.3-13.6 15.1-16.4 30.2-14 15.1 2.4 10.6 24.8 10.9 24.5l7.7 14.7s-2.3 3.2-4.6 7.4-1.4 12.9 12 21.5c12.8 7.6 16.4 23.6 11.7 37.4 19.6-13.4 21.1-43.9 1.8-55.4z"/>
      </g>
      <path fill="#ff8700" fill-opacity=".459" fill-rule="nonzero" d="M820.4 104.5c-5-3.2-8.2-6.4-10.3-9.4-1.6.4-3.3 1-4.9 1.7-15 6-19 21-12 35 5 9-4 20-13 16-.9-.4-1.8-.9-2.6-1.4l-6.6 27.5c14.7 1.3 30.9-3.2 44.9-12.3 22.1-12.4 24.6-45.1 4.5-57.1z"/>
      <path fill="#452a00" fill-rule="nonzero" d="M784.2 64.5c.4 1.8-.8 3.7-2.6 4-1.8.3-3.7-.8-4-2.6-.4-1.8.8-3.7 2.6-4 1.7-.2 3.6.8 4 2.6m16.8-8.8c1.3 1.3 2 3 1.3 3.4-.7.7-2.4.2-3.7-1.1-1.3-1.3-2-2.8-1.3-3.4.9-.7 2.5 0 3.7 1.1"/>
      <path fill="#ff9603" fill-rule="nonzero" d="M775.6 75.7s7.8.2 11.4-5.7c3.6-5.9 3-8.4 9.7-8.5 7 .1 7.8 1.3 9.6-.2 1.8-1.5 6.2-2.2 9.2 1.7 2.7 3.9-.4 9.6-.4 9.6s6.4 4.7 1.8 10c-5.5 6-14.6 5.7-21 5.1-6.3-.8-19.8-3.6-20.3-12"/>
      <path fill="#662c00" fill-rule="nonzero" d="M779 78.9s3.8 4.4 20.1 5.5c16.3 1 18.2-8.2 14.1-11 2-2.5 5.5-10.8-1-11-7.8-.2-10.4 14.3-17.9 17.6-7.4 3.1-15-1.1-15.3-1.1"/>
      <path fill="#662c00" fill-rule="nonzero" d="M813.4 73.5c-10.1 8.1-20.9 9.3-31.8 7.2 2.7 1.4 8 3.1 17.5 3.7 16.1 1 18.2-8 14.3-10.9z"/>
      <path fill="none" stroke="#452a00" stroke-width="1.87" d="M774.8 62.4s.3-3.4 3.3-4.3M795.2 51.4s3.2-1.1 5.3 1.2"/>
      <g>
        <path fill="url(#_Linear8)" fill-rule="nonzero" d="M715.7 42.8s-22.8-1.5-33.4 12.8c-8.4 12.6-4.9 28.8 6.3 40 7.6 8 6.9 13.2 3.5 16.3-5.6 4.6-23.1 8.4-27.9-10.5-4.7-13.7-23.9 10.3-12.5 45.3 11.5 35 52.5 40.6 85.5 23.8 25-10.6 31.4-45.1 11.5-60.2-13.2-10.8-13-19.6-11.6-24.6 1.4-5.1 5-10.1 5-10.1l-4.4-13.5c-.5.3-5.9-16.8-22-19.3"/>
        <g fill="#ff0" fill-rule="nonzero">
          <path d="M652.1 105.9c4.9 18.9 22.3 15.1 27.9 10.5.3-.2.5-.5.8-.8-6.6.1-13.8-3.1-16.7-14.2-2.3-6.8-8.2-4.3-12.2 4.1.1.2.2.3.2.4zM748.6 110.3c-13.2-10.8-13-19.6-11.6-24.6 1.4-5 5-10.1 5-10.1l-4.4-13.5c-.3.3-5.8-16.8-21.9-19.3 0 0-14.1-.9-25.3 5.7 7.3-1.6 13.3-1.2 13.3-1.2 16.1 2.5 21.6 19.6 21.9 19.3l4.4 13.5s-3.6 5-5 10.1-1.6 13.9 11.6 24.6c20 15.1 13.5 49.7-11.5 60.2-.9.5-1.9.9-2.8 1.4 5-1.5 10-3.4 14.8-5.9 25-10.5 31.5-45 11.5-60.2z"/>
        </g>
        <path fill="#ff8700" fill-opacity=".459" fill-rule="nonzero" d="M748.6 110.3c-5.9-4.8-9.1-9.2-10.8-13.1-14.4 1.9-27.8 9-30.6 23.6-3 12 5 24 1 36-2.7 9.2-7.8 16.6-14.4 22.5 14 1.4 29.4-1.7 43.3-8.7 25-10.6 31.5-45.1 11.5-60.3z"/>
        <path fill="none" stroke="#452a00" stroke-width="2" d="M704.6 60.8c1.3-4.9 5.1-1.8 5.8-3.7M733 51.3c-4.8-2.2-5.1 2.6-7.1 2"/>
        <path fill="#452a00" fill-rule="nonzero" d="M714.8 63.4c.2 2-1.3 3.8-3.2 4-2 .2-3.8-1.3-4-3.2-.2-2 1.3-3.8 3.2-4 1.9 0 3.7 1.3 4 3.2m18.9-7.4c1.3 1.5 1.8 3.5 1 3.8-.8.6-2.5 0-3.8-1.6-1.3-1.5-1.8-3.2-1-3.8 1-.6 2.6.4 3.8 1.6"/>
        <path fill="#ff9603" fill-rule="nonzero" d="M704.3 74.3s8.3 1.1 12.8-4.7c4.5-5.8 4.2-8.6 11.3-8 7.4.9 10.9 3.2 13.1 1.8 2.1-1.3 7.6-3.7 4.8 4.2-2.1.8-2.4 1-2.7 1.6 2.7 4.7-10.3 17-18.4 18.7-10.4 1.9-21.4-4.5-20.9-13.6"/>
        <path fill="#452a00" fill-rule="nonzero" d="M707.6 78.2s11.7 11.2 24.7.9c5.2-4.4 10.4-9.5 14-11.4-4.3.8-14.2 10.9-22.6 13.4-8.2 2.5-15.9-2.9-16.1-2.9"/>
      </g>
      <g fill-rule="nonzero">
        <path fill="url(#_Linear9)" d="M745.8 93.3s-20.8-2.7-31.4 9.9c-8.4 11.1-6.1 26.2 3.6 37.1 6.6 7.8 5.6 12.6 2.3 15.2-5.4 3.9-21.7 6.4-25.1-11.2-3.6-12.9-22.5 8.1-14 41 8.6 32.9 46 40.3 77.3 26.7 23.5-8.3 31.4-39.7 13.9-54.8-11.6-10.6-10.9-18.7-9.3-23.3 1.6-4.6 5.2-9 5.2-9l-3.3-12.7c-.5.4-4.6-15.7-19.2-18.9"/>
        <g fill="#ff0">
          <path d="M688.2 148.9c3.4 17.7 19.7 15.1 25.1 11.2.8-.6 1.5-1.4 1.9-2.3-7.1 1.8-17.5.3-20.1-13.4-1.6-5.7-6.1-4.8-10 .8 1.4.2 2.5 1.4 3.1 3.7zM772.3 157.3c-11.6-10.6-10.9-18.7-9.3-23.3 1.6-4.6 5.2-9 5.2-9l-3.3-12.7c-.3.2-4.4-15.8-19.1-19 0 0-18.4-2.3-29.4 7.8 10.4-4.8 22.5-3.3 22.5-3.3 14.7 3.2 18.7 19.3 19.1 19l3.3 12.7s-3.6 4.4-5.2 9-2.3 12.7 9.3 23.3c14.5 12.5 11.6 36.2-3.3 48.7 20.7-10.2 26.8-39 10.2-53.2z"/>
        </g>
        <path fill="#452a00" d="M743.8 112.2c.1 1.8-1.4 3.4-3.2 3.5-1.8.1-3.4-1.4-3.5-3.2-.1-1.8 1.4-3.4 3.2-3.5 1.8.2 3.4 1.4 3.5 3.2m17.8-5.7c1.1 1.5 1.5 3.3.7 3.6-.8.5-2.3-.2-3.4-1.7s-1.4-3-.7-3.6c1-.5 2.4.5 3.4 1.7"/>
        <path fill="#ff9603" d="M733.6 121.7s7.6 1.5 12-3.6 4.3-7.7 10.9-6.7c6.8 1.2 9.9 3.5 11.9 2.4s7.2-3 4.2 4.1c-2 .6-2.2.8-2.6 1.3 2.2 4.4-10.5 15.1-18 16.2-9.7 1.1-19.4-5.4-18.4-13.7"/>
        <path fill="#452a00" d="M736.3 125.4s10.1 10.9 22.7 2.2c5-3.7 10.1-8.2 13.6-9.7-4 .5-13.7 9.2-21.5 11.1-7.8 1.8-14.5-3.6-14.8-3.6"/>
      </g>
      <g>
        <path fill="url(#_Linear10)" fill-rule="nonzero" d="M672.6 85.6s-22.8-1.1-33.2 13.4c-8.2 12.8-4.4 28.9 7 39.9 7.7 7.9 7.1 13.1 3.7 16.3-5.5 4.7-22.9 8.8-28.1-10-5-13.6-23.7 10.7-11.7 45.5s53.1 39.7 85.9 22.4c24.8-11 30.7-45.6 10.4-60.4-13.4-10.5-13.6-19.9-10.7-24.1 2.9-4.3 5.6-7.5 5.6-7.5l-6.8-16.4c-.2.1-6-16.9-22.1-19.1"/>
        <g fill="#ff0" fill-rule="nonzero">
          <path d="M619.8 146.3c4.9 17.8 20.7 15.1 27.1 10.8-7.3 3.4-20.5 3.9-24.9-12-1.6-4.3-4.5-4.8-7.4-2.4 2.1-.7 4 .4 5.2 3.6zM706.7 152.5c-13.4-10.5-13.6-19.9-10.7-24.1 2.9-4.3 5.6-7.5 5.6-7.5l-6.8-16.4c-.3.3-6.1-16.7-22.2-19 0 0-14.1-.7-25.2 6.1 10.7-5.5 23-4.9 23-4.9 16.1 2.2 21.9 19.3 22.2 19l6.8 16.4s-2.7 3.2-5.6 7.5c-2.9 4.3-2.7 13.6 10.7 24.1 19 13.9 14.9 45.4-6.2 58.2 23-11.8 28-45 8.4-59.4z"/>
        </g>
        <path fill="#452a00" fill-rule="nonzero" d="M672 106.2c.2 2-1.2 3.8-3.2 4.1-2 .2-3.8-1.2-4.1-3.2-.2-2 1.2-3.8 3.2-4.1 2 .1 3.9 1.3 4.1 3.2m18.8-7.7c1.3 1.5 1.9 3.4 1 3.8-.8.7-2.5 0-3.9-1.5-1.3-1.5-1.8-3.1-1-3.8 1.1-.6 2.7.3 3.9 1.5"/>
        <path fill="#ff9603" fill-rule="nonzero" d="M661.7 117.3s8.3 1 12.7-4.9c4.4-5.9 4-8.6 11.2-8.2 7.4.8 8.2 2.1 10.3.7 2.1-1.4 6.9-1.7 9.7 2.7 2.5 4.5-3.5 10.9-3.5 10.9s4 .1 0 4.2c-4 4.2-12.6 8.3-20.3 9.5-7.6 1.4-20.4-5.8-20.1-14.9"/>
        <path fill="#452a00" fill-rule="nonzero" d="M665.1 121.1s6.1 5.7 15.9 5.3c9.8-.4 19.9-6.4 21.2-7.9 2.4-2.5 6.9-11 0-11.8-8.3-1-12.5 14.3-20.8 16.9-8.4 2.8-16.1-2.5-16.3-2.5"/>
        <path fill="none" stroke="#452a00" stroke-width="2" d="M662.1 103s.7-3.6 3.9-4.3M685 93.4s3.5-.8 5.5 1.8"/>
      </g>
      <g>
        <path fill="url(#_Linear11)" fill-rule="nonzero" d="M828.3 91.1s-19.8-2.8-30.1 9.1c-8.2 10.5-6.2 24.9 2.9 35.4 6.1 7.5 5.2 12 2 14.5-5.2 3.6-20.7 5.9-23.8-11-3.3-12.3-21.6 7.4-13.9 38.9 7.8 31.4 43.3 38.9 73.3 26.4 22.5-7.6 30.4-37.4 13.9-52-10.9-10.3-10.3-18.4-7.4-21.9 2.9-3.5 5.5-6.1 5.5-6.1l-4.6-14.9c-.2.2-3.8-15.1-17.8-18.4"/>
        <path fill="#ff0" fill-rule="nonzero" d="M852.8 152.4c-10.9-10.3-10.3-18.4-7.4-21.9 2.9-3.5 5.5-6.1 5.5-6.1l-4.6-14.9c-.3.2-4-15.1-17.9-18.4 0 0-19.8-2.8-30.1 9.1-.9 1.2-1.7 2.4-2.4 3.7-.7 3.8-3.1 12.2 9 28.2 12.1 16.1 15 30.1 6.4 43.7-7.2 11.5-16.7 20.5-27.6 27.3 15 9.1 36.2 9.2 55.1 1.3 22.6-7.7 30.5-37.4 14-52z"/>
        <path fill="#452a00" fill-rule="nonzero" d="M826.2 109.2c.1 1.7-1.4 3.2-3.1 3.3-1.7.1-3.2-1.4-3.3-3.1-.1-1.7 1.4-3.2 3.1-3.3 1.7.1 3.2 1.3 3.3 3.1m17.1-5.3c1 1.4 1.3 3.2.6 3.4-.7.5-2.2-.2-3.2-1.6-1-1.4-1.3-2.9-.6-3.4.9-.5 2.1.4 3.2 1.6"/>
        <path fill="none" stroke="#452a00" stroke-width="1.76" d="M817.8 105.6s.9-3.1 3.8-3.4M838.6 99s3.1-.4 4.7 2"/>
        <path fill="#ff9603" fill-rule="nonzero" d="M817.2 118s7.7 2.1 12.7-2.9c5-4.9 5-7.6 11.7-6.1 6.9 1.8 10 4.4 12.2 3.3 2.1-1 7.6-2.5 4 4.5-2.1.5-2.4.6-2.8 1.2 2 4.8-11.9 14.8-19.8 15.4-10 .6-19.5-6.9-18-15.4"/>
        <path fill="#452a00" fill-rule="nonzero" d="M819.9 122.1s9.6 12.1 23.3 3.9c5.5-3.5 11-7.7 14.7-9.1-4.2.2-14.8 8.5-23 9.9-8.2 1.4-14.8-4.7-15-4.7"/>
      </g>
      <g>
        <path fill="url(#_Linear12)" fill-rule="nonzero" d="M882.2 253.9l-237.3 66.6L586.6 174l272.9-23.7 22.7 103.6z"/>
        <path fill="none" stroke="#eb1753" stroke-width="5" d="M644.9 320.5l239.3-67.3"/>
        <path fill="#ccdaff" fill-rule="nonzero" d="M861.2 158l-1.7-7.7-273 23.7 58.4 146.5 50-14c-4.4-78.1 12.6-136.1 166.3-148.5z"/>
        <path fill="#eb1753" fill-rule="nonzero" stroke="#eb1753" stroke-width="5" d="M586.6 174l283.7-23.7"/>
        <g fill="none" stroke="#7a70ff" stroke-linejoin="round" stroke-width="2.07">
          <path d="M614.4 197.1l233.8-20.4M625.5 226.6l227.8-31.3M638.3 257.4L858 214.3M649 287.3l213.9-51.4"/>
        </g>
        <path fill="url(#_Linear13)" fill-rule="nonzero" d="M662.4 368.9c-2.2 0-4.2-1.3-5.1-3.5L573.4 156l-49.1-4.2c-3-.3-5.3-2.9-5-5.9.3-3 2.9-5.3 5.9-5l52.4 4.5c2.1.2 3.9 1.5 4.6 3.4l85.1 212.5c1.1 2.8-.2 6-3.1 7.2-.4.3-1.1.4-1.8.4z"/>
        <path fill="#eb1753" fill-rule="nonzero" stroke="#eb1753" stroke-width="3" d="M566.3 144.4l-41-3.5c-3-.3-5.7 2-5.9 5-.3 3 2 5.7 5 5.9l40.9 3.5c-.1-3.6.3-7.3 1-10.9z"/>
        <path fill="#a3431a" fill-rule="nonzero" d="M831.4 317.935c-1.4.742-9.2 7.05-4.1 19.495l27.7-8.698s-4.3-13.187-6.4-16.402l-17.2 5.605z"/>
        <path fill="#2f4c7a" fill-rule="nonzero" d="M655.2 377.3c-2.4 0-4.5-1.5-5.3-3.9-.9-2.9.8-6 3.7-6.9 0 0 83.425-17.89 124.219-30.208C824.402 322.225 933.1 282.1 933.1 282.1c2.9-.9 6 .8 6.9 3.7.9 2.9-.8 6-3.7 6.9 0 0-108.524 38.375-155.107 52.441C740.21 357.517 656.8 377.1 656.8 377.1c-.6.1-1.1.2-1.6.2z"/>
        <path fill="#28335e" d="M648.322 357.378c10.995-8.873 27.126-7.15 35.999 3.845 8.873 10.995 7.15 27.126-3.845 35.999-10.996 8.873-27.126 7.15-35.999-3.845-8.873-10.995-7.15-27.126 3.845-35.999z"/>
        <path fill="#72368c" fill-rule="nonzero" d="M663.8 387.113c5.3-10.7-2.8-26.1-13.1-31.5-7.6 4.8-12.4 13.4-11.9 23 .5 9.7 6.3 17.9 14.5 21.8 4.2-3.8 7.7-8.2 10.5-13.3z"/>
        <path fill="#fff" d="M657.554 368.818c4.681-3.778 11.549-3.045 15.327 1.637 3.778 4.681 3.045 11.549-1.637 15.327-4.681 3.778-11.55 3.045-15.328-1.637-3.777-4.681-3.044-11.549 1.638-15.327z"/>
        <path fill="#28335e" d="M873.768 287.532c10.996-8.873 27.126-7.15 35.999 3.846 8.873 10.995 7.15 27.125-3.845 35.998-10.995 8.873-27.126 7.15-35.999-3.845-8.873-10.995-7.15-27.126 3.845-35.999z"/>
        <path fill="#fff" d="M883 298.972c4.682-3.778 11.55-3.044 15.328 1.637 3.778 4.682 3.044 11.55-1.638 15.328-4.681 3.778-11.549 3.044-15.327-1.637-3.778-4.682-3.045-11.55 1.637-15.328z"/>
      </g>
      <path fill="#eb1753" fill-rule="nonzero" d="M801.5 79.9s8.3 1.4 9.8-.1c1.6-1.5-1.6-3.7-1.6-3.7s-3.4 2.7-8.2 3.8z"/>
    </g>
    <g>
      <clipPath id="a">
        <path d="M761.2 337.754s-35-20.723-40.9 26.901c-5.9 47.625 48.3 131.468 88.9 82.322 0 0-12.5 3.802-19.4 5.894-29.3-6.369-61.3-60.173-45.5-109.794l16.9-5.323z" clip-rule="nonzero"/>
      </clipPath>
      <g clip-path="url(#a)">
        <use width="89.344" height="128.649" x="725.146" y="334.176" transform="matrix(.9927 0 0 .99728 0 0)" xlink:href="#_Image15"/>
      </g>
      <clipPath id="b">
        <path d="M789.7 452.775c-29.3-6.369-61.2-60.172-45.5-109.793l17-5.228s-7.7-4.563-16.5-4.468c-33.3 36.312 6.8 101.999 20.7 112.74 13.9 10.742 9.6 12.453 7.2 14.354 12.2 3.898 25 .761 36.6-13.403-.1 0-12.6 3.707-19.5 5.798z" clip-rule="nonzero"/>
      </clipPath>
      <g clip-path="url(#b)">
        <use width="77.395" height="128.639" x="737.528" y="334.219" transform="matrix(.99224 0 0 .9972 0 0)" xlink:href="#_Image17"/>
      </g>
      <clipPath id="c">
        <path d="M778.7 332.525s-35-20.723-40.9 26.902c-5.9 47.625 48.3 131.467 88.9 82.322 0 0-12.642 3.237-19.542 5.329-29.3-6.369-61.158-59.608-45.358-109.229l16.9-5.324z" clip-rule="nonzero"/>
      </clipPath>
      <g clip-path="url(#c)">
        <use width="89.344" height="128.649" x="742.774" y="328.933" transform="matrix(.9927 0 0 .99728 0 0)" xlink:href="#_Image19"/>
      </g>
      <clipPath id="d">
        <path d="M807.2 447.547c-29.3-6.369-61.3-60.172-45.5-109.793l17-5.229s-6.7-3.992-14.7-4.467c-27.7 17.871-10.4 89.26 17.4 111.789 10.4 8.651 6 12.168 4 13.499 13.5 6.274 28.1 4.373 41.3-11.597-.1 0-12.6 3.707-19.5 5.798z" clip-rule="nonzero"/>
      </clipPath>
      <g clip-path="url(#d)">
        <use width="76.731" height="128.621" x="752.6" y="329.024" transform="matrix(.9965 0 0 .99706 0 0)" xlink:href="#_Image21"/>
      </g>
      <clipPath id="e">
        <path d="M796.4 327.297s-35-20.723-40.9 26.902c-5.9 47.625 48.3 131.467 88.9 82.321 0 0-12.5 3.803-19.4 5.894-29.3-6.369-61.3-60.173-45.5-109.794l16.9-5.323z" clip-rule="nonzero"/>
      </clipPath>
      <g clip-path="url(#e)">
        <use width="89.344" height="128.649" x="760.604" y="323.691" transform="matrix(.9927 0 0 .99728 0 0)" xlink:href="#_Image23"/>
      </g>
      <clipPath id="f">
        <path d="M824.9 442.319c-29.3-6.369-61.3-60.173-45.5-109.794l17-5.228s-6.7-3.992-14.7-4.468c-27.7 17.871-10.4 89.261 17.4 111.79 10.4 8.651 6 12.168 4 13.499 13.5 6.273 28.1 4.372 41.3-11.598 0 0-12.6 3.708-19.5 5.799z" clip-rule="nonzero"/>
      </clipPath>
      <g clip-path="url(#f)">
        <use width="76.731" height="128.621" x="770.362" y="323.781" transform="matrix(.9965 0 0 .99706 0 0)" xlink:href="#_Image25"/>
      </g>
      <g>
        <clipPath id="g">
          <path d="M813.3 322.924s-35-20.628-40.9 26.997c-5.8 47.625 48.5 131.372 89 82.132 0 0-12.5 3.802-19.4 5.893-29.3-6.369-61.3-60.077-45.7-109.698l17-5.324z" clip-rule="nonzero"/>
        </clipPath>
        <g clip-path="url(#g)">
          <use width="89.428" height="128.572" x="776.905" y="319.541" transform="matrix(.99365 0 0 .99668 0 0)" xlink:href="#_Image27"/>
        </g>
        <clipPath id="h">
          <path d="M841.8 437.946c-29.3-6.369-61.3-60.172-45.5-109.793l17-5.229s-6.7-3.992-14.7-4.467c-27.7 17.871-10.4 89.26 17.4 111.789 10.4 8.651 6 12.168 4 13.499 13.5 6.274 28.1 4.373 41.3-11.597-.1-.095-12.6 3.707-19.5 5.798z" clip-rule="nonzero"/>
        </clipPath>
        <g clip-path="url(#h)">
          <use width="76.731" height="128.621" x="787.321" y="319.395" transform="matrix(.9965 0 0 .99706 0 0)" xlink:href="#_Image29"/>
        </g>
        <clipPath id="i">
          <path d="M830.8 317.696s-35-20.628-40.9 26.997c-5.9 47.625 48.5 131.372 89 82.131 0 0-12.5 3.803-19.4 5.894-29.3-6.369-61.3-60.078-45.7-109.699l17-5.323z" clip-rule="nonzero"/>
        </clipPath>
        <g clip-path="url(#i)">
          <use width="89.442" height="128.572" x="794.383" y="314.296" transform="matrix(.9938 0 0 .99668 0 0)" xlink:href="#_Image31"/>
        </g>
        <clipPath id="j">
          <path d="M859.5 432.718c-29.3-6.369-61.3-60.173-45.5-109.794l17-5.228s-6.7-3.992-14.7-4.468c-27.7 17.871-10.4 89.261 17.4 111.79 10.4 8.651 6 12.168 4 13.499 13.5 6.273 28.1 4.372 41.3-11.598 0-.095-12.6 3.708-19.5 5.799z" clip-rule="nonzero"/>
        </clipPath>
        <g clip-path="url(#j)">
          <use width="76.731" height="128.621" x="805.083" y="314.151" transform="matrix(.9965 0 0 .99706 0 0)" xlink:href="#_Image33"/>
        </g>
        <clipPath id="k">
          <path d="M848.5 312.468s-35-20.628-40.9 26.997c-5.9 47.624 48.5 131.372 89 82.131 0 0-12.5 3.802-19.4 5.894-29.3-6.369-61.3-60.078-45.7-109.699l17-5.323z" clip-rule="nonzero"/>
        </clipPath>
        <g clip-path="url(#k)">
          <use width="89.442" height="128.572" x="812.193" y="309.05" transform="matrix(.9938 0 0 .99668 0 0)" xlink:href="#_Image35"/>
        </g>
        <clipPath id="l">
          <path d="M877.2 427.49c-29.3-6.369-61.3-59.412-45.5-109.033l17-5.989S842 308.475 834 308c-27.7 17.871-10.4 89.261 17.4 111.79 10.4 8.65 6 12.167 4 13.498 13.5 6.274 28.1 4.373 41.3-11.597 0-.095-12.6 3.707-19.5 5.799z" clip-rule="nonzero"/>
        </clipPath>
        <g clip-path="url(#l)">
          <use width="76.731" height="128.621" x="822.846" y="308.908" transform="matrix(.9965 0 0 .99706 0 0)" xlink:href="#_Image37"/>
        </g>
      </g>
    </g>
  </g>
  <path fill="#fff" fill-rule="nonzero" d="M1117.8 351.5l43.5 27.3-45.1-24.6c-.8-.4-1.1-1.4-.6-2.2.3-.7 1.3-.9 2.2-.5-.1 0-.1 0 0 0zM109.3 90.3l-58.5 15.1 58-17c.5-.2 1.1.1 1.2.7.2.4-.1 1-.7 1.2zM319.8 501.1c-34.4 9-53.4 15.2-73 33.3 24-4.7 48.8-12.4 73-33.3zM270.3 554.1c-13.3-5.1-25.8 3.4-32.9 11.6 22.9-3.3 24.1-6.6 32.9-11.6z"/>
  <use width="296" height="322" transform="matrix(.99719 0 0 .99887 959.68 11.986)" xlink:href="#_Image38"/>
  <path fill="#fff" fill-rule="nonzero" d="M1183.43 218.167a66.305 66.305 0 0 1-25.473 5.095c-36.34 0-66.249-29.909-66.249-66.249 0-26.692 16.133-50.892 40.775-61.154 2.078-.993 5.059-2.077 7.136-3.071a73.984 73.984 0 0 0-48.868 4.065c-30.758 12.339-51.019 42.311-51.019 75.453 0 44.596 36.692 81.298 81.297 81.298a81.378 81.378 0 0 0 32.953-6.983 76.08 76.08 0 0 0 38.752-34.687 47.714 47.714 0 0 1-9.304 6.233z" serif:id="moon"/>
  <g fill="#fff" fill-opacity=".5" fill-rule="nonzero">
    <path d="M1308.52 580.366c0 .03-.082.117-.244.259a1.836 1.836 0 0 0-.428.595 7.734 7.734 0 0 0-.404 1.099c-.137.457-.333 1.144-.587 2.059l-.427 1.571c-.519 1.882-.839 3.209-.961 3.982a.736.736 0 0 1-.245.435c-.132.117-.33.175-.595.175-.061 0-.277-.429-.648-1.289-.371-.859-.857-2.006-1.457-3.44a39.498 39.498 0 0 0-1.113-2.387c-.377-.738-.631-1.162-.763-1.274-.173-.132-.26-.275-.26-.427 0-.072.069-.168.206-.29.138-.122.277-.183.42-.183.091 0 .158.017.198.053.041.036.097.104.168.206.132.193.351.613.656 1.259.305.645.615 1.35.931 2.112l1.251 3.036c.396.936.625 1.485.686 1.648.02-.193.114-.651.282-1.373.168-.722.369-1.536.603-2.441.346-1.312.628-2.347.847-3.104.218-.758.424-1.361.617-1.808.173-.397.321-.666.443-.809.122-.142.259-.213.412-.213.051 0 .132.078.244.236.112.158.168.262.168.313zM1316.1 589.901a.439.439 0 0 1-.122.312.42.42 0 0 1-.321.13.468.468 0 0 1-.259-.069.214.214 0 0 1-.107-.19l.031-1.053c.05-1.251.076-2.273.076-3.066 0-1.16-.081-1.971-.244-2.434-.163-.462-.351-.694-.565-.694-.478 0-1.078.74-1.8 2.22a60.291 60.291 0 0 0-2.09 4.844 1.928 1.928 0 0 1-.206.411c-.086.133-.175.199-.267.199-.223 0-.335-.071-.335-.214 0-.62-.026-1.782-.077-3.486-.05-1.703-.091-2.825-.122-3.364-.091-1.82-.178-2.944-.259-3.371a12.528 12.528 0 0 1-.122-.687c0-.101.056-.178.168-.228.112-.051.254-.077.427-.077.142 0 .247.323.313.969.066.646.114 1.472.145 2.479l.015.427c.02.316.035 1.218.046 2.708.01 1.49.015 2.586.015 3.288.468-1.17.908-2.212 1.319-3.128.412-.915.888-1.772 1.427-2.57.539-.799 1.037-1.198 1.495-1.198.386 0 .712.323.976.969.265.646.397 1.609.397 2.891 0 .569.01 1.363.03 2.38l.016 1.602zM1323.75 585.797c.071 0 .106.076.106.229 0 .183-.134.584-.404 1.205-.269.62-.676 1.195-1.22 1.724-.544.529-1.213.793-2.006.793-.651 0-1.195-.203-1.633-.61-.437-.407-.656-1.033-.656-1.877 0-.793.183-1.579.55-2.357.366-.778.844-1.413 1.434-1.907.589-.493 1.2-.739 1.83-.739.377 0 .694.083.954.251.259.168.389.41.389.725 0 .356-.201.702-.603 1.037-.402.336-.923.631-1.564.885a9.56 9.56 0 0 1-1.983.549 5.433 5.433 0 0 0-.183 1.373c0 .59.14 1.048.42 1.373.279.326.679.488 1.197.488.783 0 1.419-.279 1.907-.839a7.964 7.964 0 0 0 1.327-2.128c.051-.117.097-.175.138-.175zm-1.343-2.395c0-.163-.084-.29-.252-.382a1.21 1.21 0 0 0-.587-.137c-.386 0-.758.127-1.114.381-.355.255-.653.56-.892.916s-.394.671-.465.946a5.48 5.48 0 0 0 1.48-.397 6.386 6.386 0 0 0 1.304-.702c.351-.254.526-.463.526-.625zM1331.37 588.711a.425.425 0 0 0 .123.221c.071.076.106.14.106.191 0 .122-.051.261-.152.419-.102.158-.204.237-.305.237-.173 0-.305-.107-.397-.321a1.876 1.876 0 0 1-.137-.747c0-.244.015-.977.045-2.197l.016-.58c0-.234-.061-.402-.183-.503a32.535 32.535 0 0 1-1.282 2.013 8.1 8.1 0 0 1-1.51 1.61c-.61.503-1.251.755-1.922.755-.326 0-.577-.102-.755-.305-.178-.203-.267-.468-.267-.793 0-.407.183-.964.549-1.671.366-.707.834-1.424 1.403-2.151.57-.727 1.139-1.325 1.709-1.792.376-.306.676-.511.9-.618a1.41 1.41 0 0 1 .595-.16c.163 0 .33.05.503.152s.321.244.443.427.183.392.183.626c0 .315-.087.615-.259.9l.259-.076c.112 0 .178.137.198.411.01.163.023.494.038.992l.038 1.236.031.976c.01.315.02.565.03.748zm-5.385.274c.549 0 1.078-.203 1.587-.61a7.2 7.2 0 0 0 1.365-1.457c.402-.564.847-1.258 1.335-2.082.122-.305.183-.636.183-.992a.858.858 0 0 0-.191-.557.623.623 0 0 0-.511-.236c-.254 0-.579.173-.976.518-.458.387-.941.903-1.449 1.549a12.844 12.844 0 0 0-1.266 1.915c-.336.63-.504 1.128-.504 1.495 0 .305.142.457.427.457zM1339.89 583.371a.441.441 0 0 1-.221.397c-.148.091-.415.163-.801.213l-1.571.275-.992.168c0 .529.008 1.083.023 1.663.015.579.038 1.088.069 1.525.04.59.111 1.043.213 1.358.102.315.158.493.168.534 0 .102-.064.196-.191.282a.64.64 0 0 1-.358.13.224.224 0 0 1-.153-.054.442.442 0 0 1-.107-.175c-.061-.142-.119-.407-.175-.793a16.721 16.721 0 0 1-.13-1.282 32.95 32.95 0 0 1-.068-1.457 55.68 55.68 0 0 1-.023-1.609 30.71 30.71 0 0 0-1.755.335c-.539.112-.859.168-.961.168a.601.601 0 0 1-.343-.107.33.33 0 0 1-.16-.289c0-.133.046-.219.137-.26.092-.04.244-.061.458-.061.152 0 .376-.028.671-.084.295-.056.483-.094.565-.114a61.019 61.019 0 0 1 1.388-.259c0-.214-.01-.494-.031-.839-.02-.468-.03-.824-.03-1.068 0-.397.012-.705.038-.923.025-.219.074-.415.145-.588a.453.453 0 0 1 .457-.305c.092 0 .153.015.184.046.03.031.045.086.045.168 0 .061-.025.239-.076.534a7.187 7.187 0 0 0-.076 1.174c0 .377.01.799.03 1.267l.016.412c.457-.072 1.362-.26 2.715-.565.081-.02.15-.091.206-.213.056-.123.114-.184.175-.184.112 0 .227.064.344.191.117.127.175.257.175.389zM1345.9 583.264c0 .092-.064.196-.191.313-.127.117-.236.176-.328.176a.303.303 0 0 1-.206-.092 1.765 1.765 0 0 1-.221-.259.93.93 0 0 0-.282-.26.684.684 0 0 0-.359-.106c-.295 0-.691.389-1.19 1.167-.498.778-.986 1.757-1.464 2.936.01.234.028.529.053.885.026.356.043.621.054.793l.045.611c0 .142-.03.267-.091.373-.061.107-.173.161-.336.161-.173 0-.285-.232-.335-.695-.051-.462-.082-1.136-.092-2.021-.01-.224-.018-.544-.023-.961a68.229 68.229 0 0 0-.038-1.495c-.031-.875-.046-1.5-.046-1.876 0-.234.143-.351.427-.351.173 0 .277.073.313.221.036.147.053.43.053.847v2.425c.306-.783.636-1.459.992-2.029.356-.569.704-1.004 1.045-1.304.341-.3.643-.45.908-.45.224 0 .437.051.641.152.203.102.366.232.488.389.122.158.183.308.183.45zM1347.99 580.137c0 .153-.168.229-.504.229-.173 0-.348-.071-.526-.214-.178-.142-.267-.259-.267-.351 0-.112.053-.218.16-.32a.477.477 0 0 1 .328-.153l.115.039c.076.025.165.094.267.206.081.081.173.188.274.32.102.132.153.213.153.244zm.381 9.596c0 .101-.043.18-.129.236a.459.459 0 0 1-.298.069c-.142-.01-.247-.239-.313-.687-.066-.447-.134-1.296-.206-2.547a232.05 232.05 0 0 1-.167-4.241c0-.112.017-.196.053-.252.036-.056.104-.084.206-.084.234 0 .381.097.442.29.061.193.092.564.092 1.114l-.015 1.8c0 1.027.03 1.851.091 2.471 0 .031.046.356.137.976.072.428.107.712.107.855zM1355.8 587.551c0 .448-.181.877-.542 1.289-.361.412-.836.743-1.426.992a4.7 4.7 0 0 1-1.846.374c-.438 0-.732-.041-.885-.122-.153-.082-.229-.194-.229-.336 0-.092.117-.252.351-.481.234-.228.392-.343.473-.343.122 0 .183.026.183.076 0 .041-.025.082-.076.123-.051.04-.077.076-.077.106 0 .041.064.082.191.122.127.041.282.061.465.061.428 0 .857-.078 1.29-.236.432-.158.785-.364 1.06-.618.274-.254.412-.524.412-.808 0-.275-.087-.494-.26-.656a1.574 1.574 0 0 0-.648-.359 26.784 26.784 0 0 0-1.304-.328 21.105 21.105 0 0 1-1.564-.404c-.371-.117-.669-.265-.893-.443a.832.832 0 0 1-.335-.679c0-.488.239-.935.717-1.342a5.525 5.525 0 0 1 1.647-.961c.621-.234 1.099-.351 1.434-.351.346 0 .519.102.519.305a.852.852 0 0 1-.122.404.393.393 0 0 1-.366.222.37.37 0 0 1-.198-.069.395.395 0 0 0-.214-.069c-.203 0-.524.066-.961.199-.437.132-.834.33-1.19.595-.356.264-.534.584-.534.961 0 .244.14.424.42.541.279.117.801.262 1.563.435.092.031.183.053.275.069.091.015.173.033.244.053.783.183 1.383.392 1.8.626.417.233.626.584.626 1.052z"/>
  </g>
  <defs>
    <radialGradient id="_Radial1" cx="0" cy="0" r="1" gradientTransform="translate(1057.35 181.371) scale(527.34)" gradientUnits="userSpaceOnUse">
      <stop offset="0" stop-color="#ff9dfd"/>
      <stop offset="0" stop-color="#ff9dfd"/>
      <stop offset=".1" stop-color="#eb8cf3"/>
      <stop offset=".54" stop-color="#9543ca"/>
      <stop offset=".85" stop-color="#5f16b0"/>
      <stop offset="1" stop-color="#4a04a6"/>
    </radialGradient>
    <radialGradient id="_Radial2" cx="0" cy="0" r="1" gradientTransform="matrix(-98.839 237.019 -881.745 -367.725 468.178 475.594)" gradientUnits="userSpaceOnUse">
      <stop offset="0" stop-color="#bd70ff"/>
      <stop offset="0" stop-color="#bd70ff"/>
      <stop offset=".11" stop-color="#a45eee"/>
      <stop offset=".31" stop-color="#773ed1"/>
      <stop offset=".51" stop-color="#5525ba"/>
      <stop offset=".69" stop-color="#3b13a9"/>
      <stop offset=".86" stop-color="#2c089f"/>
      <stop offset="1" stop-color="#27049c"/>
    </radialGradient>
    <radialGradient id="_Radial3" cx="0" cy="0" r="1" gradientTransform="matrix(-88.9265 340.199 -777.905 -203.346 987.901 349.355)" gradientUnits="userSpaceOnUse">
      <stop offset="0" stop-color="#fd91ff"/>
      <stop offset="0" stop-color="#fd91ff"/>
      <stop offset=".18" stop-color="#ce72e9"/>
      <stop offset=".47" stop-color="#8743c8"/>
      <stop offset=".72" stop-color="#5321b0"/>
      <stop offset=".9" stop-color="#330ca2"/>
      <stop offset="1" stop-color="#27049c"/>
    </radialGradient>
    <linearGradient id="_Linear4" x2="1" gradientTransform="rotate(162.428 281.956 181.992) scale(346.757)" gradientUnits="userSpaceOnUse">
      <stop offset="0" stop-color="#fff"/>
      <stop offset="1" stop-color="#fff" stop-opacity="0"/>
    </linearGradient>
    <linearGradient id="_Linear5" x2="1" gradientTransform="scale(333.2707) rotate(-17.253 5.916 -1.981)" gradientUnits="userSpaceOnUse">
      <stop offset="0" stop-color="#fffaf1"/>
      <stop offset="1" stop-color="#fd0"/>
    </linearGradient>
    <linearGradient id="_Linear6" x2="1" gradientTransform="scale(199.0684) rotate(-20.257 8.325 -4.557)" gradientUnits="userSpaceOnUse">
      <stop offset="0" stop-color="#ffda29"/>
      <stop offset=".01" stop-color="#ffda29"/>
      <stop offset=".22" stop-color="#ffd426"/>
      <stop offset=".51" stop-color="#ffc21f"/>
      <stop offset=".84" stop-color="#ffa514"/>
      <stop offset="1" stop-color="#ff950d"/>
    </linearGradient>
    <linearGradient id="_Linear7" x2="1" gradientTransform="rotate(154.39 394.328 140.394) scale(59.2236)" gradientUnits="userSpaceOnUse">
      <stop offset="0" stop-color="#ffea0e"/>
      <stop offset=".17" stop-color="#ffe40d"/>
      <stop offset=".38" stop-color="#ffd40b"/>
      <stop offset=".62" stop-color="#ffb907"/>
      <stop offset=".88" stop-color="#ff9403"/>
      <stop offset="1" stop-color="#ff8100"/>
    </linearGradient>
    <linearGradient id="_Linear8" x2="1" gradientTransform="rotate(167.542 357.027 93.27) scale(38.8727)" gradientUnits="userSpaceOnUse">
      <stop offset="0" stop-color="#ffea0e"/>
      <stop offset="1" stop-color="#ff8100"/>
    </linearGradient>
    <linearGradient id="_Linear9" x2="1" gradientTransform="scale(-79.666) rotate(-21.448 -9.596 24.468)" gradientUnits="userSpaceOnUse">
      <stop offset="0" stop-color="#ffea0e"/>
      <stop offset="1" stop-color="#ff8100"/>
    </linearGradient>
    <linearGradient id="_Linear10" x2="1" gradientTransform="rotate(161.966 332.73 128.12) scale(61.9899)" gradientUnits="userSpaceOnUse">
      <stop offset="0" stop-color="#ffea0e"/>
      <stop offset="1" stop-color="#ff8100"/>
    </linearGradient>
    <linearGradient id="_Linear11" x2="1" gradientTransform="rotate(81.404 323.74 538.66) scale(23.7053)" gradientUnits="userSpaceOnUse">
      <stop offset="0" stop-color="#ffea0e"/>
      <stop offset="1" stop-color="#ff8100"/>
    </linearGradient>
    <linearGradient id="_Linear12" x2="1" gradientTransform="rotate(-171.074 452.859 93.62) scale(298.4831)" gradientUnits="userSpaceOnUse">
      <stop offset="0" stop-color="#fff"/>
      <stop offset=".18" stop-color="#f7f7ff"/>
      <stop offset=".65" stop-color="#e6e6ff"/>
      <stop offset="1" stop-color="#e0e0ff"/>
    </linearGradient>
    <linearGradient id="_Linear13" x2="1" gradientTransform="scale(16.7394) rotate(-21.413 57.58 -88.408)" gradientUnits="userSpaceOnUse">
      <stop offset="0" stop-color="#ed69ff"/>
      <stop offset="0" stop-color="#ed69ff"/>
      <stop offset=".14" stop-color="#cb63e9"/>
      <stop offset=".45" stop-color="#8456ba"/>
      <stop offset=".7" stop-color="#504c97"/>
      <stop offset=".89" stop-color="#304682"/>
      <stop offset="1" stop-color="#24447a"/>
    </linearGradient>
  </defs>
</svg>
