<svg xmlns="http://www.w3.org/2000/svg" fill-rule="evenodd" stroke-linecap="round" stroke-miterlimit="10" clip-rule="evenodd" viewBox="0 0 1369 603">
  <path fill="url(#_Radial1)" d="M-.7-.2h1370.3v604.4H-.7z"/>
  <path fill="#fff" fill-rule="nonzero" d="M1316.2 27.4l2.5 5.1 5.6.8-4 3.9.9 5.5-5-2.6-4.9 2.6.9-5.5-4-3.9 5.5-.8 2.5-5.1zM182 61.8l2.5 5 5.6.8-4.1 3.9 1 5.6-5-2.6-5 2.6 1-5.6-4-3.9 5.5-.8 2.5-5zm410.4 12.3l2.5 5.1 5.6.8-4 3.9.9 5.5-5-2.6-4.9 2.6.9-5.5-4-3.9 5.6-.8 2.4-5.1zm670.4-19.5l1.6 3.3 3.6.5-2.6 2.6.6 3.6-3.2-1.7-3.3 1.7.6-3.6-2.6-2.6 3.6-.5 1.7-3.3zm35 298.4l1.6 3.3 3.7.5-2.6 2.6.6 3.6-3.3-1.7-3.2 1.7.6-3.6-2.7-2.6 3.7-.5 1.6-3.3zM1082 19.9l1.6 3.3 3.6.5-2.6 2.6.6 3.6-3.2-1.7-3.3 1.7.6-3.6-2.6-2.6 3.6-.5 1.7-3.3zM553.7 57.4l1.6 3.3 3.6.5-2.6 2.6.6 3.6-3.2-1.7-3.3 1.7.6-3.6-2.6-2.6 3.6-.5 1.7-3.3zm-152.3-25l1.6 3.3 3.7.5-2.7 2.6.7 3.6-3.3-1.7-3.2 1.7.6-3.6-2.7-2.6 3.7-.5 1.6-3.3z"/>
  <circle cx="1315.6" cy="74.2" r="2" fill="#0ff"/>
  <circle cx="1215.8" cy="22.9" r="2" fill="#fff"/>
  <circle cx="1018.6" cy="67.4" r="2" fill="#fff"/>
  <circle cx="933.6" cy="64.6" r="2" fill="#fff"/>
  <circle cx="920.6" cy="115.7" r="2" fill="#fff"/>
  <circle cx="21.4" cy="37.1" r="2" fill="#fff"/>
  <circle cx="58.7" cy="54.3" r="2" fill="#ff0"/>
  <circle cx="300.5" cy="98" r="2" fill="#fff"/>
  <circle cx="41.5" cy="230.4" r="2" fill="#fff"/>
  <circle cx="289.4" cy="131" r="2" fill="#0ff"/>
  <circle cx="205.2" cy="42.4" r="2" fill="#fff" fill-opacity=".498"/>
  <circle cx="1344.1" cy="381.6" r="2" fill="#ff0"/>
  <circle cx="488" cy="123.3" r="2" fill="#fff" fill-opacity=".498"/>
  <circle cx="342.6" cy="122.9" r="2" fill="#fff" fill-opacity=".498"/>
  <circle cx="69.7" cy="244" r="2" fill="#fff" fill-opacity=".498"/>
  <circle cx="157.1" cy="41" r="2" fill="#fff" fill-opacity=".498"/>
  <circle cx="571.9" cy="51.4" r="2" fill="#fff"/>
  <circle cx="155.2" cy="180.8" r="2" fill="#fff"/>
  <circle cx="739.4" cy="24.9" r="2" fill="#fff"/>
  <circle cx="60.7" cy="290.5" r="2" fill="#fff"/>
  <circle cx="973.9" cy="483.4" r="2" fill="#fff"/>
  <circle cx="1179.5" cy="290.5" r="2" fill="#fff"/>
  <circle cx="1198.7" cy="286.6" r="2" fill="#fff"/>
  <circle cx="1161.8" cy="413.4" r="2" fill="#fff"/>
  <circle cx="970.1" cy="232.3" r="1.9" fill="#fff" fill-opacity=".498"/>
  <circle cx="1035.6" cy="246.1" r="2.1" fill="#fff"/>
  <circle cx="897.7" cy="95.2" r="2.1" fill="#fff"/>
  <circle cx="1346" cy="327.5" r="2.1" fill="#fff"/>
  <circle cx="1243.7" cy="201.2" r="2.3" fill="#0ff"/>
  <circle cx="283.3" cy="235.9" r="2.3" fill="#fff" fill-opacity=".498"/>
  <circle cx="417.6" cy="35.1" r="2.3" fill="#fff"/>
  <circle cx="1350" cy="307.7" r="1.8" fill="#fff"/>
  <circle cx="1330" cy="308.5" r="1.8" fill="#fff"/>
  <circle cx="425.8" cy="127" r="1.7" fill="#fff"/>
  <circle cx="975.9" cy="148.1" r="1.7" fill="#fff"/>
  <circle cx="1308.2" cy="160" r="1.7" fill="#fff"/>
  <circle cx="175.2" cy="296.8" r="1.7" fill="#fff"/>
  <path fill="url(#_Radial2)" fill-rule="nonzero" d="M323.3 411.2c-66.8-35.1-72.6-35.1-142.3 4.1-99.1 52.1-181.6 95-181.6 95v93.8h673.8c-66.5-35.5-299.1-165.8-349.9-192.9z"/>
  <path fill="url(#_Radial3)" fill-rule="nonzero" d="M1239.6 401.4c-40.2 17.2-80 46.6-276.8 159.4-162.4-78.8-154.8-84-201-62.8-46.2 21.2-72.7 32.9-151.7 72.6a3614.94 3614.94 0 0 0 28.2 15.6c12 6.5 22.3 13.8 34.8 18h696.5V453.6c-43.6-29.8-89.8-69.5-130-52.2z"/>
  <path fill="url(#_Linear4)" fill-rule="nonzero" d="M-50.4 285.4c0-1.5 568.3-141.7 568.3-141.7l53.6 7.2L676.9 415l-42.1 39-512.1 148.4H-50.4v-317z"/>
  <g>
    <g fill-rule="nonzero">
      <path fill="url(#_Linear5)" d="M616.9 424.4s-113.3-11-218.6 45.2l16.2 7.1s-65.3 8.7-125.2 70.4c78.6 13.3 111.3 7.4 146.6-11.9l-11.1 15.3s108.2 10.3 210.4-71.2l-18.3-54.9z"/>
      <path fill="url(#_Linear6)" d="M617.3 433.4s-106.1-.7-174.2 35.7l17.9 7.5s-59.6 9.8-98.3 49.6c50.9 8.6 83.1-1.8 105.9-14.2l-7.6 17.5s59.4 5.6 168.2-60.5l-11.9-35.6z"/>
    </g>
    <path fill="#eb1753" fill-rule="nonzero" d="M1012 384.9S683.6 489.4 626 507.2c-3.6 1.1-7.4.2-10.1-2.3-22.4-21.3-27.3-65.4-28.3-83.5-.3-4.7 2.7-9 7.2-10.4l383.8-121.6 33.4 95.5z"/>
    <path fill="#940069" fill-rule="nonzero" d="M1011.6 383.6l-32.5-93c-.2-.7-1-1.1-1.7-.8l-190.9 60.5c-.5.1-.8.5-.9 1a97.631 97.631 0 0 0-1.9 17.7c0 1 1.1 1.7 2 1.2 37.9-21.5 155.9-69.9 163.9-16.4 8.1 54.1-140.5 84.5-145.3 77.7-.4-.2-.8-.1-1.1 0l-.1.1c-.7.3-1 1.3-.6 1.9 3 4.8 6.3 9.5 9.9 13.9.4.4.9.6 1.5.4l197-62.6c.6-.1.9-.9.7-1.6z"/>
    <path fill="#940069" fill-rule="nonzero" d="M768.8 376.2l14.9-4.9c0-6.9.7-13.9 2.1-20.9l-23.1 7.3v.1l-152 48.1c22.1-3.2 44.3-6.8 67.1-3.7 19 3 32 22 27 41-6.3 22.5-23.1 37.7-41 52.2l98.8-31.3 50.3-15.9c-4.1-5.1-7.9-10.4-11.3-16-12.5 5.6-26.4 10.7-34.9 23 8.5-12.3 22.4-17.4 34.9-23a117.012 117.012 0 0 1-18-60.9l-14.8 4.9z"/>
    <path fill="#eb1753" fill-rule="nonzero" d="M959 267.8c14.7 4.1 113.4 37.2 113.4 37.2a5.51 5.51 0 0 1 3.43 5.095A5.503 5.503 0 0 1 1075 313c-.542.872-59.4 87.8-67.5 98.7-6.5 8.8-36.3-18.6-49.4-62.5-13.1-43.9-13.8-85.4.9-81.4z"/>
    <path fill="#ffe0f5" d="M1028.67 299.805c.911-2.722 10.744-1.889 21.944 1.859 11.201 3.747 19.555 9 18.644 11.721-.91 2.722-10.743 1.889-21.944-1.859-11.2-3.748-19.555-9-18.644-11.721zM1018.08 292.4a4.803 4.803 0 0 1 6.267 2.609 4.802 4.802 0 0 1-2.608 6.267 4.802 4.802 0 0 1-6.267-2.609 4.802 4.802 0 0 1 2.608-6.267z"/>
    <path fill="url(#_Linear7)" fill-rule="nonzero" d="M782.9 45.2s-21.3.9-29.7 15.3c-6.5 12.6-1.6 27.3 10 36.5 7.9 6.7 7.8 11.6 4.9 14.8-4.7 4.8-20.6 10.1-27-6.9-5.8-12.2-21.1 12-6.9 43.3 14.2 31.4 52.8 32.3 81.8 13.4 22.1-12.4 24.6-45.1 4.5-57.1-13.4-8.6-14.3-17.3-12-21.5 2.3-4.2 4.6-7.4 4.6-7.4l-7.7-14.7c-.4.3-7.3-15-22.5-15.7"/>
    <path fill="#ff0" fill-rule="nonzero" d="M754.5 129.8c2.8-3.2 3-7.9-4.4-14.4a16.71 16.71 0 0 1-8.5-9.3l-1.8-3.3c-4.6-4.9-12.1 5.2-11.4 21.9 6.8 14.8 21.6 9.7 26.1 5.1zm65.9-25.3c-13.4-8.6-14.3-17.3-12-21.5 2.3-4.2 4.6-7.4 4.6-7.4l-7.7-14.7c-.3.3-7.1-15-22.3-15.7 0 0-21.3.9-29.7 15.3a26.206 26.206 0 0 0-2.6 7.9c5.3-13.6 15.1-16.4 30.2-14 15.1 2.4 10.6 24.8 10.9 24.5l7.7 14.7s-2.3 3.2-4.6 7.4-1.4 12.9 12 21.5c12.8 7.6 16.4 23.6 11.7 37.4 19.6-13.4 21.1-43.9 1.8-55.4z"/>
    <path fill="#ff8700" fill-opacity=".498" fill-rule="nonzero" d="M820.4 104.5c-5-3.2-8.2-6.4-10.3-9.4-1.6.4-3.3 1-4.9 1.7-15 6-19 21-12 35 5 9-4 20-13 16l-2.6-1.4-6.6 27.5a72.61 72.61 0 0 0 44.9-12.3c22.1-12.4 24.6-45.1 4.5-57.1z"/>
    <path fill="#452a00" fill-rule="nonzero" d="M784.2 64.5c.4 1.8-.8 3.7-2.6 4-1.8.3-3.7-.8-4-2.6-.4-1.8.8-3.7 2.6-4 1.7-.2 3.6.8 4 2.6m16.8-8.8c1.3 1.3 2 3 1.3 3.4-.7.7-2.4.2-3.7-1.1-1.3-1.3-2-2.8-1.3-3.4.9-.7 2.5 0 3.7 1.1"/>
    <path fill="#ff9603" fill-rule="nonzero" d="M775.6 75.7s7.8.2 11.4-5.7c3.6-5.9 3-8.4 9.7-8.5 7 .1 7.8 1.3 9.6-.2 1.8-1.5 6.2-2.2 9.2 1.7 2.7 3.9-.4 9.6-.4 9.6s6.4 4.7 1.8 10c-5.5 6-14.6 5.7-21 5.1-6.3-.8-19.8-3.6-20.3-12"/>
    <path fill="#662c00" fill-rule="nonzero" d="M779 78.9s3.8 4.4 20.1 5.5c16.3 1 18.2-8.2 14.1-11 2-2.5 5.5-10.8-1-11-7.8-.2-10.4 14.3-17.9 17.6-7.4 3.1-15-1.1-15.3-1.1"/>
    <path fill="#662c00" fill-rule="nonzero" d="M813.4 73.5a36.924 36.924 0 0 1-31.8 7.2c2.7 1.4 8 3.1 17.5 3.7 16.1 1 18.2-8 14.3-10.9z"/>
    <path fill="none" stroke="#452a00" stroke-width="1.9" d="M774.8 62.4s.3-3.4 3.3-4.3m17.1-6.7s3.2-1.1 5.3 1.2"/>
    <path fill="url(#_Linear8)" fill-rule="nonzero" d="M715.7 42.8s-22.8-1.5-33.4 12.8c-8.4 12.6-4.9 28.8 6.3 40 7.6 8 6.9 13.2 3.5 16.3-5.6 4.6-23.1 8.4-27.9-10.5-4.7-13.7-23.9 10.3-12.5 45.3 11.5 35 52.5 40.6 85.5 23.8 25-10.6 31.4-45.1 11.5-60.2-13.2-10.8-13-19.6-11.6-24.6 1.4-5.1 5-10.1 5-10.1l-4.4-13.5c-.5.3-5.9-16.8-22-19.3"/>
    <path fill="#ff0" fill-rule="nonzero" d="M652.1 105.9c4.9 18.9 22.3 15.1 27.9 10.5l.8-.8c-6.6.1-13.8-3.1-16.7-14.2-2.3-6.8-8.2-4.3-12.2 4.1l.2.4zm96.5 4.4c-13.2-10.8-13-19.6-11.6-24.6 1.4-5 5-10.1 5-10.1l-4.4-13.5c-.3.3-5.8-16.8-21.9-19.3 0 0-14.1-.9-25.3 5.7 7.3-1.6 13.3-1.2 13.3-1.2 16.1 2.5 21.6 19.6 21.9 19.3l4.4 13.5s-3.6 5-5 10.1-1.6 13.9 11.6 24.6c20 15.1 13.5 49.7-11.5 60.2l-2.8 1.4c5-1.5 10-3.4 14.8-5.9 25-10.5 31.5-45 11.5-60.2z"/>
    <path fill="#ff8700" fill-opacity=".498" fill-rule="nonzero" d="M748.6 110.3a35.699 35.699 0 0 1-10.8-13.1c-14.4 1.9-27.8 9-30.6 23.6-3 12 5 24 1 36a48.001 48.001 0 0 1-14.4 22.5c14 1.4 29.4-1.7 43.3-8.7 25-10.6 31.5-45.1 11.5-60.3z"/>
    <path fill="none" stroke="#452a00" stroke-width="2" d="M704.6 60.8c1.3-4.9 5.1-1.8 5.8-3.7m22.6-5.8c-4.8-2.2-5.1 2.6-7.1 2"/>
    <path fill="#452a00" fill-rule="nonzero" d="M714.8 63.4c.2 2-1.3 3.8-3.2 4-2 .2-3.8-1.3-4-3.2-.2-2 1.3-3.8 3.2-4 1.9 0 3.7 1.3 4 3.2m18.9-7.4c1.3 1.5 1.8 3.5 1 3.8-.8.6-2.5 0-3.8-1.6-1.3-1.5-1.8-3.2-1-3.8 1-.6 2.6.4 3.8 1.6"/>
    <path fill="#ff9603" fill-rule="nonzero" d="M704.3 74.3s8.3 1.1 12.8-4.7c4.5-5.8 4.2-8.6 11.3-8 7.4.9 10.9 3.2 13.1 1.8 2.1-1.3 7.6-3.7 4.8 4.2-2.1.8-2.4 1-2.7 1.6 2.7 4.7-10.3 17-18.4 18.7-10.4 1.9-21.4-4.5-20.9-13.6"/>
    <path fill="#452a00" fill-rule="nonzero" d="M707.6 78.2s11.7 11.2 24.7.9c5.2-4.4 10.4-9.5 14-11.4-4.3.8-14.2 10.9-22.6 13.4-8.2 2.5-15.9-2.9-16.1-2.9"/>
    <g fill-rule="nonzero">
      <path fill="url(#_Linear9)" d="M745.8 93.3s-20.8-2.7-31.4 9.9c-8.4 11.1-6.1 26.2 3.6 37.1 6.6 7.8 5.6 12.6 2.3 15.2-5.4 3.9-21.7 6.4-25.1-11.2-3.6-12.9-22.5 8.1-14 41 8.6 32.9 46 40.3 77.3 26.7 23.5-8.3 31.4-39.7 13.9-54.8-11.6-10.6-10.9-18.7-9.3-23.3 1.6-4.6 5.2-9 5.2-9l-3.3-12.7c-.5.4-4.6-15.7-19.2-18.9"/>
      <path fill="#ff0" d="M688.2 148.9c3.4 17.7 19.7 15.1 25.1 11.2a6.002 6.002 0 0 0 1.9-2.3c-7.1 1.8-17.5.3-20.1-13.4-1.6-5.7-6.1-4.8-10 .8 1.4.2 2.5 1.4 3.1 3.7zm84.1 8.4c-11.6-10.6-10.9-18.7-9.3-23.3 1.6-4.6 5.2-9 5.2-9l-3.3-12.7c-.3.2-4.4-15.8-19.1-19 0 0-18.4-2.3-29.4 7.8 10.4-4.8 22.5-3.3 22.5-3.3 14.7 3.2 18.7 19.3 19.1 19l3.3 12.7s-3.6 4.4-5.2 9-2.3 12.7 9.3 23.3c14.5 12.5 11.6 36.2-3.3 48.7 20.7-10.2 26.8-39 10.2-53.2z"/>
      <path fill="#452a00" d="M743.8 112.2a3.416 3.416 0 0 1-3.2 3.5 3.416 3.416 0 0 1-3.5-3.2 3.416 3.416 0 0 1 3.2-3.5c1.8.2 3.4 1.4 3.5 3.2m17.8-5.7c1.1 1.5 1.5 3.3.7 3.6-.8.5-2.3-.2-3.4-1.7s-1.4-3-.7-3.6c1-.5 2.4.5 3.4 1.7"/>
      <path fill="#ff9603" d="M733.6 121.7s7.6 1.5 12-3.6 4.3-7.7 10.9-6.7c6.8 1.2 9.9 3.5 11.9 2.4s7.2-3 4.2 4.1c-2 .6-2.2.8-2.6 1.3 2.2 4.4-10.5 15.1-18 16.2-9.7 1.1-19.4-5.4-18.4-13.7"/>
      <path fill="#452a00" d="M736.3 125.4s10.1 10.9 22.7 2.2c5-3.7 10.1-8.2 13.6-9.7-4 .5-13.7 9.2-21.5 11.1-7.8 1.8-14.5-3.6-14.8-3.6"/>
    </g>
    <g>
      <path fill="url(#_Linear10)" fill-rule="nonzero" d="M672.6 85.6s-22.8-1.1-33.2 13.4c-8.2 12.8-4.4 28.9 7 39.9 7.7 7.9 7.1 13.1 3.7 16.3-5.5 4.7-22.9 8.8-28.1-10-5-13.6-23.7 10.7-11.7 45.5s53.1 39.7 85.9 22.4c24.8-11 30.7-45.6 10.4-60.4-13.4-10.5-13.6-19.9-10.7-24.1 2.9-4.3 5.6-7.5 5.6-7.5l-6.8-16.4c-.2.1-6-16.9-22.1-19.1"/>
      <path fill="#ff0" fill-rule="nonzero" d="M619.8 146.3c4.9 17.8 20.7 15.1 27.1 10.8-7.3 3.4-20.5 3.9-24.9-12-1.6-4.3-4.5-4.8-7.4-2.4 2.1-.7 4 .4 5.2 3.6zm86.9 6.2c-13.4-10.5-13.6-19.9-10.7-24.1 2.9-4.3 5.6-7.5 5.6-7.5l-6.8-16.4c-.3.3-6.1-16.7-22.2-19 0 0-14.1-.7-25.2 6.1 10.7-5.5 23-4.9 23-4.9 16.1 2.2 21.9 19.3 22.2 19l6.8 16.4s-2.7 3.2-5.6 7.5c-2.9 4.3-2.7 13.6 10.7 24.1 19 13.9 14.9 45.4-6.2 58.2 23-11.8 28-45 8.4-59.4z"/>
      <path fill="#452a00" fill-rule="nonzero" d="M672 106.2c.2 2-1.2 3.8-3.2 4.1-2 .2-3.8-1.2-4.1-3.2-.2-2 1.2-3.8 3.2-4.1 2 .1 3.9 1.3 4.1 3.2m18.8-7.7c1.3 1.5 1.9 3.4 1 3.8-.8.7-2.5 0-3.9-1.5-1.3-1.5-1.8-3.1-1-3.8 1.1-.6 2.7.3 3.9 1.5"/>
      <path fill="#ff9603" fill-rule="nonzero" d="M661.7 117.3s8.3 1 12.7-4.9c4.4-5.9 4-8.6 11.2-8.2 7.4.8 8.2 2.1 10.3.7a7.105 7.105 0 0 1 3.507-.927 7.11 7.11 0 0 1 6.193 3.627c2.5 4.5-3.5 10.9-3.5 10.9s4 .1 0 4.2c-4 4.2-12.6 8.3-20.3 9.5-7.6 1.4-20.4-5.8-20.1-14.9"/>
      <path fill="#452a00" fill-rule="nonzero" d="M665.1 121.1s6.1 5.7 15.9 5.3c9.8-.4 19.9-6.4 21.2-7.9 2.4-2.5 6.9-11 0-11.8-8.3-1-12.5 14.3-20.8 16.9-8.4 2.8-16.1-2.5-16.3-2.5"/>
      <path fill="none" stroke="#452a00" stroke-width="2" d="M662.1 103s.7-3.6 3.9-4.3m19-5.3s3.5-.8 5.5 1.8"/>
    </g>
    <g>
      <path fill="url(#_Linear11)" fill-rule="nonzero" d="M828.3 91.1s-19.8-2.8-30.1 9.1c-8.2 10.5-6.2 24.9 2.9 35.4 6.1 7.5 5.2 12 2 14.5-5.2 3.6-20.7 5.9-23.8-11-3.3-12.3-21.6 7.4-13.9 38.9 7.8 31.4 43.3 38.9 73.3 26.4 22.5-7.6 30.4-37.4 13.9-52-10.9-10.3-10.3-18.4-7.4-21.9a98.044 98.044 0 0 1 5.5-6.1l-4.6-14.9c-.2.2-3.8-15.1-17.8-18.4"/>
      <path fill="#ff0" fill-rule="nonzero" d="M852.8 152.4c-10.9-10.3-10.3-18.4-7.4-21.9a98.044 98.044 0 0 1 5.5-6.1l-4.6-14.9c-.3.2-4-15.1-17.9-18.4 0 0-19.8-2.8-30.1 9.1-.9 1.2-1.7 2.4-2.4 3.7-.7 3.8-3.1 12.2 9 28.2 12.1 16.1 15 30.1 6.4 43.7a85.608 85.608 0 0 1-27.6 27.3c15 9.1 36.2 9.2 55.1 1.3 22.6-7.7 30.5-37.4 14-52z"/>
      <path fill="#452a00" fill-rule="nonzero" d="M826.2 109.2c.1 1.7-1.4 3.2-3.1 3.3-1.7.1-3.2-1.4-3.3-3.1-.1-1.7 1.4-3.2 3.1-3.3 1.7.1 3.2 1.3 3.3 3.1m17.1-5.3c1 1.4 1.3 3.2.6 3.4-.7.5-2.2-.2-3.2-1.6-1-1.4-1.3-2.9-.6-3.4.9-.5 2.1.4 3.2 1.6"/>
      <path fill="none" stroke="#452a00" stroke-width="1.8" d="M817.8 105.6s.9-3.1 3.8-3.4m17-3.2s3.1-.4 4.7 2"/>
      <path fill="#ff9603" fill-rule="nonzero" d="M817.2 118s7.7 2.1 12.7-2.9c5-4.9 5-7.6 11.7-6.1 6.9 1.8 10 4.4 12.2 3.3 2.1-1 7.6-2.5 4 4.5-2.1.5-2.4.6-2.8 1.2 2 4.8-11.9 14.8-19.8 15.4-10 .6-19.5-6.9-18-15.4"/>
      <path fill="#452a00" fill-rule="nonzero" d="M819.9 122.1s9.6 12.1 23.3 3.9c5.5-3.5 11-7.7 14.7-9.1-4.2.2-14.8 8.5-23 9.9-8.2 1.4-14.8-4.7-15-4.7"/>
    </g>
    <g>
      <path fill="url(#_Linear12)" fill-rule="nonzero" d="M882.2 253.9l-237.3 66.6L586.6 174l272.9-23.7 22.7 103.6z"/>
      <path fill="none" stroke="#eb1753" stroke-width="5" d="M644.9 320.5l239.3-67.3"/>
      <path fill="#ccdaff" fill-rule="nonzero" d="M861.2 158l-1.7-7.7-273 23.7 58.4 146.5 50-14c-4.4-78.1 12.6-136.1 166.3-148.5z"/>
      <path fill="#eb1753" fill-rule="nonzero" stroke="#eb1753" stroke-width="5" d="M586.6 174l283.7-23.7"/>
      <path fill="none" stroke="#7a70ff" stroke-linejoin="round" stroke-width="2.1" d="M614.4 197.1l233.8-20.4m-222.7 49.9l227.8-31.3m-215 62.1L858 214.3m-209 73l213.9-51.4"/>
      <path fill="url(#_Linear13)" fill-rule="nonzero" d="M662.4 368.9a5.51 5.51 0 0 1-5.1-3.5L573.4 156l-49.1-4.2a5.518 5.518 0 0 1-4.465-5.402c0-2.966 2.4-5.425 5.365-5.498l52.4 4.5c2.1.2 3.9 1.5 4.6 3.4l85.1 212.5c1.1 2.8-.2 6-3.1 7.2-.4.3-1.1.4-1.8.4z"/>
      <path fill="#eb1753" fill-rule="nonzero" stroke="#eb1753" stroke-width="3" d="M566.3 144.4l-41-3.5c-3-.3-5.7 2-5.9 5-.3 3 2 5.7 5 5.9l40.9 3.5c-.1-3.6.3-7.3 1-10.9z"/>
      <path fill="#a3431a" fill-rule="nonzero" d="M830.4 318.4c-1.4.9-10.2 4.7-5.1 19.8l32.7-10.7s-8.3-9-10.4-12.9l-17.2 3.8z"/>
      <path fill="#2f4c7a" fill-rule="nonzero" d="M655.2 377.3a5.513 5.513 0 0 1-5.3-3.9c-.9-2.9.8-6 3.7-6.9 0 0 82.849-16.121 123.18-28.3 46.583-14.067 156.32-56.1 156.32-56.1 2.9-.9 6 .8 6.9 3.7.9 2.9-.8 6-3.7 6.9 0 0-110.102 40.777-156.686 54.844C739.305 359.716 656.8 377.1 656.8 377.1l-1.6.2z"/>
      <path fill="#28335e" d="M646.324 352.477c10.996-8.873 27.127-7.149 35.999 3.847 8.873 10.996 7.149 27.127-3.847 35.999-10.996 8.873-27.127 7.149-35.999-3.847-8.873-10.996-7.149-27.127 3.847-35.999z"/>
      <path fill="#72368c" fill-rule="nonzero" d="M661.8 382.2c5.3-10.7-2.8-26.1-13.1-31.5a25.526 25.526 0 0 0-12.104 21.698A25.537 25.537 0 0 0 651.3 395.5c4.2-3.8 7.7-8.2 10.5-13.3z"/>
      <path fill="#fff" d="M655.555 363.917c4.682-3.778 11.55-3.044 15.328 1.638 3.778 4.682 3.044 11.55-1.638 15.328-4.682 3.778-11.55 3.044-15.328-1.638-3.778-4.682-3.044-11.55 1.638-15.328z"/>
      <path fill="#28335e" d="M876.739 282.536c10.996-8.872 27.127-7.148 35.999 3.848 8.873 10.995 7.149 27.126-3.847 35.998-10.996 8.873-27.126 7.149-35.999-3.847-8.873-10.996-7.149-27.126 3.847-35.999z"/>
      <path fill="#fff" d="M885.97 293.977c4.682-3.778 11.55-3.044 15.328 1.638 3.778 4.681 3.044 11.549-1.638 15.327-4.682 3.778-11.55 3.044-15.328-1.638-3.778-4.682-3.044-11.55 1.638-15.327z"/>
    </g>
    <path fill="#eb1753" fill-rule="nonzero" d="M801.5 79.9s8.3 1.4 9.8-.1c1.6-1.5-1.6-3.7-1.6-3.7s-3.4 2.7-8.2 3.8z"/>
    <g fill-rule="nonzero">
      <path fill="url(#_Linear14)" d="M763.526 339.754s-33.271-20.723-38.879 26.901c-5.609 47.625 45.913 131.468 84.507 82.322l-18.441 5.894c-27.852-6.369-58.271-60.173-43.252-109.794l16.065-5.323z"/>
      <path fill="url(#_Linear15)" d="M790.618 454.775c-27.853-6.369-58.176-60.172-43.252-109.793l16.16-5.228s-7.32-4.563-15.685-4.468c-31.655 36.312 6.464 101.999 19.677 112.74 13.214 10.742 9.126 12.453 6.845 14.354 11.597 3.898 23.765.761 34.791-13.403l-18.536 5.798z"/>
      <path fill="url(#_Linear16)" d="M780.161 334.525s-33.27-20.723-38.879 26.902c-5.608 47.625 45.914 131.467 84.508 82.322l-18.442 5.893c-27.852-6.369-58.271-60.172-43.252-109.793l16.065-5.324z"/>
      <path fill="url(#_Linear17)" d="M807.253 449.547c-27.852-6.369-58.271-60.172-43.252-109.793l16.16-5.229s-6.369-3.992-13.973-4.467c-26.332 17.871-9.887 89.26 16.54 111.789 9.886 8.651 5.704 12.168 3.802 13.499 12.833 6.274 26.712 4.373 39.26-11.597l-18.537 5.798z"/>
      <path fill="url(#_Linear18)" d="M796.987 329.297s-33.271-20.723-38.879 26.902c-5.609 47.625 45.913 131.467 84.507 82.321l-18.441 5.894c-27.853-6.369-58.272-60.173-43.252-109.794l16.065-5.323z"/>
      <path fill="url(#_Linear19)" d="M824.079 444.319c-27.853-6.369-58.272-60.173-43.252-109.794l16.16-5.228s-6.369-3.992-13.974-4.468c-26.331 17.871-9.886 89.261 16.54 111.79 9.887 8.651 5.704 12.168 3.803 13.499 12.833 6.273 26.712 4.372 39.259-11.598l-18.536 5.799z"/>
      <path fill="url(#_Linear20)" d="M813.052 324.924s-33.271-20.628-38.879 26.997c-5.514 47.625 46.103 131.372 84.602 82.132l-18.441 5.893c-27.852-6.369-58.271-60.077-43.442-109.698l16.16-5.324z"/>
      <path fill="url(#_Linear21)" d="M840.144 439.946c-27.853-6.369-58.272-60.172-43.252-109.793l16.16-5.229s-6.369-3.992-13.974-4.467c-26.331 17.871-9.886 89.26 16.54 111.789 9.887 8.651 5.704 12.168 3.803 13.499 12.833 6.274 26.712 4.373 39.259-11.597-.095-.095-11.977 3.707-18.536 5.798z"/>
      <path fill="url(#_Linear22)" d="M829.687 319.696s-33.271-20.628-38.879 26.997c-5.609 47.625 46.104 131.372 84.603 82.131l-18.442 5.894c-27.852-6.369-58.271-60.078-43.442-109.699l16.16-5.323z"/>
      <path fill="url(#_Linear23)" d="M856.969 434.718c-27.852-6.369-58.271-60.173-43.252-109.794l16.16-5.228s-6.369-3.992-13.973-4.468c-26.332 17.871-9.887 89.261 16.54 111.79 9.886 8.651 5.704 12.168 3.802 13.499 12.833 6.273 26.712 4.372 39.26-11.598l-18.537 5.799z"/>
      <path fill="url(#_Linear24)" d="M846.181 314.577s-32.939-20.737-38.547 26.888c-5.609 47.624 46.103 131.372 84.602 82.131l-18.441 5.894c-27.853-6.369-57.272-60.078-42.442-109.699l14.828-5.214z"/>
      <path fill="url(#_Linear25)" d="M873.795 429.49c-27.853-6.369-57.272-60.173-42.252-109.794l14.16-5.228s-5.369-3.993-12.974-4.468c-26.331 17.871-9.886 89.261 16.541 111.79 9.886 8.65 5.703 12.167 3.802 13.498 12.833 6.274 26.712 4.373 39.259-11.597l-18.536 5.799z"/>
    </g>
  </g>
  <path fill="#fff" fill-rule="nonzero" d="M1117.8 351.5l43.5 27.3-45.1-24.6a1.502 1.502 0 0 1-.6-2.2c.3-.7 1.3-.9 2.2-.5-.1 0-.1 0 0 0zM109.3 90.3l-58.5 15.1 58-17a.903.903 0 0 1 1.2.7c.2.4-.1 1-.7 1.2zm210.5 410.8c-34.4 9-53.4 15.2-73 33.3 24-4.7 48.8-12.4 73-33.3zm-49.5 53c-13.3-5.1-25.8 3.4-32.9 11.6 22.9-3.3 24.1-6.6 32.9-11.6zM1183.4 218.2a66.303 66.303 0 0 1-23.217 4.198c-36.371 0-66.3-29.929-66.3-66.3 0-25.815 15.078-49.38 38.517-60.198l7.2-3.1a74.012 74.012 0 0 0-48.8 4c-30.747 12.379-50.996 42.355-51 75.5.358 44.57 37.126 81.044 81.697 81.044A81.704 81.704 0 0 0 1154 246.6a76.019 76.019 0 0 0 38.7-34.7c-2.8 2.5-6 4.6-9.3 6.3z"/>
  <path fill="#fff" fill-opacity=".498" fill-rule="nonzero" d="M1308.5 580.4l-.2.2-.4.6-.5 1.1c0 .5-.3 1.2-.5 2l-.5 1.6a41.373 41.373 0 0 0-1.2 4.5l-.6.1-.6-1.2a300.616 300.616 0 0 1-2.6-5.9l-.7-1.2c-.2-.2-.3-.3-.3-.5l.2-.3.4-.1h.2l.2.2.6 1.3 1 2 1.2 3.1.7 1.7.3-1.4c.728-2.764 1.562-5.5 2.5-8.2l.4-.2.3.3.1.3zm7.6 9.5l-.1.3-.3.1h-.3l-.1-.2v-1a75.247 75.247 0 0 0-.1-5.6c-.2-.4-.4-.7-.6-.7-.5 0-1 .8-1.8 2.3a61.433 61.433 0 0 0-2.6 5.4c-.2 0-.3 0-.3-.2a133.49 133.49 0 0 0-.4-11.1l.4-.1c.2 0 .3.3.3 1l.2 2.4v.5a80.028 80.028 0 0 1 0 6 75.558 75.558 0 0 1 2.8-5.7c.5-.8 1-1.2 1.5-1.2.4 0 .7.3 1 1 .2.6.4 1.5.4 2.8v4zm7.6-4.1c.1 0 .2 0 .2.2l-.5 1.2c-.2.7-.6 1.2-1.2 1.8-.5.5-1.2.7-2 .7-.6 0-1.2-.2-1.6-.6-.4-.4-.7-1-.7-1.8s.2-1.6.6-2.4c.4-.8.8-1.4 1.4-1.9.6-.5 1.2-.7 1.8-.7.4 0 .7 0 1 .2.3.2.4.4.4.7 0 .4-.2.7-.6 1-.4.4-1 .7-1.6 1l-2 .5-.1 1.4c0 .6.1 1 .4 1.4.3.3.7.4 1.2.4.8 0 1.4-.2 1.9-.8a8.004 8.004 0 0 0 1.3-2.1l.1-.2zm-1.3-2.4c0-.2 0-.3-.2-.4l-.6-.1c-.4 0-.8.1-1.1.4a3.507 3.507 0 0 0-1.4 1.8c.5 0 1-.2 1.5-.4s1-.4 1.3-.7c.3-.2.5-.4.5-.6zm9 5.3l.2.4-.1.4-.4.3c-.1 0-.3-.1-.3-.3l-.2-.8V586l-.1-.5-1.3 2a8.021 8.021 0 0 1-1.5 1.7 2.998 2.998 0 0 1-2 .7 1.003 1.003 0 0 1-.7-.3c-.2-.2-.2-.5-.2-.8 0-.4.1-1 .5-1.7a14.001 14.001 0 0 1 3.1-3.9l1-.6.5-.2c.2 0 .3 0 .5.2.2 0 .3.2.5.4l.1.6c0 .3 0 .6-.2 1l.2-.2c.2 0 .2.2.2.5.059.732.092 1.466.1 2.2v1.7l.1-.1zm-5.4.3c.5 0 1-.2 1.6-.6a31.112 31.112 0 0 0 2.7-3.5l.2-1-.2-.6a.6.6 0 0 0-.5-.2c-.3 0-.6.1-1 .5l-1.5 1.5c-.5.7-.9 1.3-1.2 2-.4.6-.5 1-.5 1.4 0 .3.1.5.4.5zm13.9-5.6c0 .1 0 .3-.2.4l-.8.2-1.6.3-1 .1c.041 1.537.141 3.071.3 4.6l.2.5c0 .1 0 .2-.2.3l-.4.1h-.1l-.1-.2-.2-.8a15.164 15.164 0 0 1-.2-2.7v-1.7c-.907.128-1.808.294-2.7.5h-.4a.302.302 0 0 1-.1-.3v-.3h.5l.7-.2h.6l1.4-.3v-.9a25.65 25.65 0 0 1 0-2v-.5c.2-.2.3-.3.5-.3h.2v3.6a51.196 51.196 0 0 0 2.9-.8l.2-.2s.2 0 .3.2l.2.4zm6-.1s0 .2-.2.3l-.3.2-.2-.1-.2-.3-.3-.3a.698.698 0 0 0-.4 0c-.3 0-.7.3-1.2 1.1s-1 1.8-1.4 3v1.6l.1.6v.4l-.4.2c-.2 0-.3-.3-.4-.7a23.833 23.833 0 0 1 0-3 63.265 63.265 0 0 0-.2-3.4c0-.2.2-.3.5-.3.1 0 .3 0 .3.2v3.3l1-2 1-1.4c.4-.3.7-.4 1-.4l.6.1.5.4.2.5zm2.1-3.2c0 .2-.2.3-.5.3l-.5-.2-.3-.4c0-.1 0-.2.2-.3l.3-.2h.1l.3.3c.149.153.283.321.4.5zm.4 9.6c0 .1 0 .2-.2.3h-.3l-.3-.6a31.67 31.67 0 0 1-.3-5c-.003-.667-.003-1.333 0-2l.2-.2c.2 0 .4.1.5.3v2.9c.016 1.442.149 2.88.4 4.3zm7.4-2.1c0 .4-.2.8-.5 1.2-.4.5-.9.8-1.5 1-.6.3-1.2.4-1.8.4l-.9-.1c-.2-.1-.2-.2-.2-.4 0 0 0-.2.3-.4l.5-.4.2.1-.1.1v.1l.1.2h.5c.835 0 1.646-.282 2.3-.8.3-.3.4-.6.4-.9 0-.2 0-.4-.2-.6l-.7-.4a27.213 27.213 0 0 0-2.8-.7l-1-.4a.799.799 0 0 1-.3-.7c0-.5.3-1 .8-1.4.4-.4 1-.7 1.6-1l1.4-.3c.4 0 .6.1.6.3 0 .2 0 .3-.2.4 0 .2-.2.3-.3.3l-.2-.1h-.2l-1 .1-1.2.6c-.3.3-.5.6-.5 1 0 .2.1.4.4.5.646.263 1.316.464 2 .6l1.9.6c.4.2.6.6.6 1v.1z"/>
  <defs>
    <radialGradient id="_Radial1" cx="0" cy="0" r="1" gradientTransform="translate(1057.3 181.4) scale(527.34)" gradientUnits="userSpaceOnUse">
      <stop offset="0" stop-color="#ff9dfd"/>
      <stop offset="0" stop-color="#ff9dfd"/>
      <stop offset=".1" stop-color="#eb8cf3"/>
      <stop offset=".5" stop-color="#9543ca"/>
      <stop offset=".8" stop-color="#5f16b0"/>
      <stop offset="1" stop-color="#4a04a6"/>
    </radialGradient>
    <radialGradient id="_Radial2" cx="0" cy="0" r="1" gradientTransform="matrix(-98.839 237.019 -881.745 -367.725 468.2 475.6)" gradientUnits="userSpaceOnUse">
      <stop offset="0" stop-color="#bd70ff"/>
      <stop offset="0" stop-color="#bd70ff"/>
      <stop offset=".1" stop-color="#a45eee"/>
      <stop offset=".3" stop-color="#773ed1"/>
      <stop offset=".5" stop-color="#5525ba"/>
      <stop offset=".7" stop-color="#3b13a9"/>
      <stop offset=".9" stop-color="#2c089f"/>
      <stop offset="1" stop-color="#27049c"/>
    </radialGradient>
    <radialGradient id="_Radial3" cx="0" cy="0" r="1" gradientTransform="matrix(-88.9265 340.199 -777.905 -203.346 987.9 349.4)" gradientUnits="userSpaceOnUse">
      <stop offset="0" stop-color="#fd91ff"/>
      <stop offset="0" stop-color="#fd91ff"/>
      <stop offset=".2" stop-color="#ce72e9"/>
      <stop offset=".5" stop-color="#8743c8"/>
      <stop offset=".7" stop-color="#5321b0"/>
      <stop offset=".9" stop-color="#330ca2"/>
      <stop offset="1" stop-color="#27049c"/>
    </radialGradient>
    <linearGradient id="_Linear4" x2="1" gradientTransform="scale(-346.757) rotate(-17.6 460.732 -66.597)" gradientUnits="userSpaceOnUse">
      <stop offset="0" stop-color="#fff"/>
      <stop offset="1" stop-color="#fff" stop-opacity="0"/>
    </linearGradient>
    <linearGradient id="_Linear5" x2="1" gradientTransform="rotate(-17.3 465917.079 -71241.446) scale(333.2709)" gradientUnits="userSpaceOnUse">
      <stop offset="0" stop-color="#fffaf1"/>
      <stop offset="1" stop-color="#fd0"/>
    </linearGradient>
    <linearGradient id="_Linear6" x2="1" gradientTransform="scale(199.0683) rotate(-20.3 1218.725 -221.3)" gradientUnits="userSpaceOnUse">
      <stop offset="0" stop-color="#ffda29"/>
      <stop offset="0" stop-color="#ffda29"/>
      <stop offset=".2" stop-color="#ffd426"/>
      <stop offset=".5" stop-color="#ffc21f"/>
      <stop offset=".8" stop-color="#ffa514"/>
      <stop offset="1" stop-color="#ff950d"/>
    </linearGradient>
    <linearGradient id="_Linear7" x2="1" gradientTransform="scale(-59.2236) rotate(-25.6 89.04 6.705)" gradientUnits="userSpaceOnUse">
      <stop offset="0" stop-color="#ffea0e"/>
      <stop offset=".2" stop-color="#ffe40d"/>
      <stop offset=".4" stop-color="#ffd40b"/>
      <stop offset=".6" stop-color="#ffb907"/>
      <stop offset=".9" stop-color="#ff9403"/>
      <stop offset="1" stop-color="#ff8100"/>
    </linearGradient>
    <linearGradient id="_Linear8" x2="1" gradientTransform="scale(-38.87274) rotate(-12.5 173.28 62.48)" gradientUnits="userSpaceOnUse">
      <stop offset="0" stop-color="#ffea0e"/>
      <stop offset="1" stop-color="#ff8100"/>
    </linearGradient>
    <linearGradient id="_Linear9" x2="1" gradientTransform="rotate(158.6 -331.598 -3562.229) scale(79.666)" gradientUnits="userSpaceOnUse">
      <stop offset="0" stop-color="#ffea0e"/>
      <stop offset="1" stop-color="#ff8100"/>
    </linearGradient>
    <linearGradient id="_Linear10" x2="1" gradientTransform="rotate(162 -87.428 -2524.477) scale(61.9899)" gradientUnits="userSpaceOnUse">
      <stop offset="0" stop-color="#ffea0e"/>
      <stop offset="1" stop-color="#ff8100"/>
    </linearGradient>
    <linearGradient id="_Linear11" x2="1" gradientTransform="scale(23.70533) rotate(81.4 -39.135 -22.682)" gradientUnits="userSpaceOnUse">
      <stop offset="0" stop-color="#ffea0e"/>
      <stop offset="1" stop-color="#ff8100"/>
    </linearGradient>
    <linearGradient id="_Linear12" x2="1" gradientTransform="scale(-298.4828) rotate(8.9 -961.615 -94.647)" gradientUnits="userSpaceOnUse">
      <stop offset="0" stop-color="#fff"/>
      <stop offset=".2" stop-color="#f7f7ff"/>
      <stop offset=".7" stop-color="#e6e6ff"/>
      <stop offset="1" stop-color="#e0e0ff"/>
    </linearGradient>
    <linearGradient id="_Linear13" x2="1" gradientTransform="matrix(15.5853 -6.10782 6.10782 15.5853 1467 2445.76)" gradientUnits="userSpaceOnUse">
      <stop offset="0" stop-color="#ed69ff"/>
      <stop offset="0" stop-color="#ed69ff"/>
      <stop offset=".1" stop-color="#cb63e9"/>
      <stop offset=".5" stop-color="#8456ba"/>
      <stop offset=".7" stop-color="#504c97"/>
      <stop offset=".9" stop-color="#304682"/>
      <stop offset="1" stop-color="#24447a"/>
    </linearGradient>
    <linearGradient id="_Linear14" x2="1" gradientTransform="rotate(65.7 -35120.942 -22001.186) scale(138.005)" gradientUnits="userSpaceOnUse">
      <stop offset="0" stop-color="#ffeb38"/>
      <stop offset="1" stop-color="#e35b48"/>
    </linearGradient>
    <linearGradient id="_Linear15" x2="1" gradientTransform="matrix(56.0784 124.2 -124.2 56.0784 -40194.2 18835.4)" gradientUnits="userSpaceOnUse">
      <stop offset="0" stop-color="#ffeb38"/>
      <stop offset="1" stop-color="#e35b48"/>
    </linearGradient>
    <linearGradient id="_Linear16" x2="1" gradientTransform="rotate(65.7 -34519.833 -21616.552) scale(138.005)" gradientUnits="userSpaceOnUse">
      <stop offset="0" stop-color="#ffeb38"/>
      <stop offset="1" stop-color="#e35b48"/>
    </linearGradient>
    <linearGradient id="_Linear17" x2="1" gradientTransform="scale(135.5075) rotate(65.7 -250.113 -156.487)" gradientUnits="userSpaceOnUse">
      <stop offset="0" stop-color="#ffeb38"/>
      <stop offset="1" stop-color="#e35b48"/>
    </linearGradient>
    <linearGradient id="_Linear18" x2="1" gradientTransform="rotate(65.7 -33918.187 -21223.269) scale(138.005)" gradientUnits="userSpaceOnUse">
      <stop offset="0" stop-color="#ffeb38"/>
      <stop offset="1" stop-color="#e35b48"/>
    </linearGradient>
    <linearGradient id="_Linear19" x2="1" gradientTransform="scale(135.5075) rotate(65.7 -245.69 -153.69)" gradientUnits="userSpaceOnUse">
      <stop offset="0" stop-color="#ffeb38"/>
      <stop offset="1" stop-color="#e35b48"/>
    </linearGradient>
    <linearGradient id="_Linear20" x2="1" gradientTransform="rotate(65.7 -33419.005 -20902.182) scale(138.005)" gradientUnits="userSpaceOnUse">
      <stop offset="0" stop-color="#ffeb38"/>
      <stop offset="1" stop-color="#e35b48"/>
    </linearGradient>
    <linearGradient id="_Linear21" x2="1" gradientTransform="scale(135.5075) rotate(65.7 -242.116 -151.285)" gradientUnits="userSpaceOnUse">
      <stop offset="0" stop-color="#ffeb38"/>
      <stop offset="1" stop-color="#e35b48"/>
    </linearGradient>
    <linearGradient id="_Linear22" x2="1" gradientTransform="rotate(65.7 -32817.768 -20514.12) scale(138.005)" gradientUnits="userSpaceOnUse">
      <stop offset="0" stop-color="#ffeb38"/>
      <stop offset="1" stop-color="#e35b48"/>
    </linearGradient>
    <linearGradient id="_Linear23" x2="1" gradientTransform="scale(135.5075) rotate(65.7 -237.764 -148.457)" gradientUnits="userSpaceOnUse">
      <stop offset="0" stop-color="#ffeb38"/>
      <stop offset="1" stop-color="#e35b48"/>
    </linearGradient>
    <linearGradient id="_Linear24" x2="1" gradientTransform="rotate(65.7 -32214.54 -20122.297) scale(138.005)" gradientUnits="userSpaceOnUse">
      <stop offset="0" stop-color="#ffeb38"/>
      <stop offset="1" stop-color="#e35b48"/>
    </linearGradient>
    <linearGradient id="_Linear25" x2="1" gradientTransform="rotate(65.7 -31629.025 -19728.767) scale(135.5086)" gradientUnits="userSpaceOnUse">
      <stop offset="0" stop-color="#ffeb38"/>
      <stop offset="1" stop-color="#e35b48"/>
    </linearGradient>
  </defs>
</svg>
