<?xml version="1.0" encoding="UTF-8" standalone="no"?>
<!DOCTYPE svg PUBLIC "-//W3C//DTD SVG 1.1//EN" "http://www.w3.org/Graphics/SVG/1.1/DTD/svg11.dtd">
<svg width="512px" height="512px" version="1.1" xmlns="http://www.w3.org/2000/svg" xmlns:xlink="http://www.w3.org/1999/xlink" xml:space="preserve" xmlns:serif="http://www.serif.com/" style="fill-rule:evenodd;clip-rule:evenodd;stroke-linecap:round;stroke-linejoin:round;stroke-miterlimit:1.5;">
		<g transform="matrix(0.133562,0,0,0.11142,-178.062,-118.244)">
				<path d="M4778.74,2294.44C4778.74,2187.23 4743.21,2084.4 4679.97,2008.59C4616.72,1932.78 4530.94,1890.18 4441.5,1890.18L2150.23,1890.18C2060.79,1890.18 1975.01,1932.78 1911.77,2008.59C1848.52,2084.4 1812.99,2187.23 1812.99,2294.44L1812.99,3785.67C1812.99,3785.67 1759.94,4561.23 1725.02,5071.82C1717.32,5184.4 1749.27,5295.71 1813.12,5378.78C1876.97,5461.85 1966.9,5509.11 2061.13,5509.11L4530.87,5509.11C4625.12,5509.11 4715.07,5461.84 4778.92,5378.74C4842.77,5295.65 4874.7,5184.31 4866.98,5071.72C4831.95,4561.13 4778.74,3785.67 4778.74,3785.67L4778.74,2294.44Z" style="fill:rgb(151,149,167);"/>
		</g>
		<g transform="matrix(0.130782,0,0,0.10751,-185.346,-110.853)">
				<path d="M4778.74,2309.15C4778.74,2077.76 4624.54,1890.18 4434.33,1890.18L2157.4,1890.18C1967.19,1890.18 1812.99,2077.76 1812.99,2309.15L1812.99,3609.33C1812.99,3609.33 1757.92,4496.81 1723.07,5058.62C1715.85,5174.88 1748.79,5289.54 1813.96,5375.03C1879.14,5460.53 1970.65,5509.11 2066.5,5509.11L4525.52,5509.11C4621.38,5509.11 4712.9,5460.51 4778.08,5375C4843.25,5289.49 4876.18,5174.8 4868.94,5058.52C4833.97,4496.71 4778.74,3609.33 4778.74,3609.33L4778.74,2309.15Z" style="fill:url(#_Linear1);"/>
		</g>
		<g transform="matrix(0.130782,0,0,0.154917,-196.789,-94.7733)">
				<path d="M2875.99,1581.97L2875.99,1299.31C2875.99,1299.31 2875.99,833.953 3403.5,833.953C3891.01,833.953 3891.01,1299.31 3891.01,1299.31L3891.01,1581.97" style="fill:none;stroke:rgb(87,85,108);stroke-width:221.76px;"/>
		</g>
		<defs>
				<linearGradient id="_Linear1" x1="0" y1="0" x2="1" y2="0" gradientUnits="userSpaceOnUse" gradientTransform="matrix(1949.81,2195.14,-1804.53,2371.87,2732.38,3021.61)"><stop offset="0" style="stop-color:white;stop-opacity:1"/><stop offset="1" style="stop-color:rgb(183,181,199);stop-opacity:1"/></linearGradient>
		</defs>
</svg>
