<svg xmlns="http://www.w3.org/2000/svg" width="512" height="512" viewBox="0 0 512 512" preserveAspectRatio="none slice">
  <path d="M135.45 92.475l310.236 18.938 14.488 337.565-328.385-72.12z" fill="#aaa"/>
  <path fill="#ed3c32" d="M282.022 61.244l98.414 14.36-42.802 132.082-98.414-14.36z"/>
  <path d="M344.274 502.067L461.38 449.98l-111.07-22.037z" fill="#ccc"/>
  <path d="M461.38 449.905l-15.7-338.477-95.445 11.993 2.49 26.858v278.466zM135.198 92.558l6.744 12.873v233.39z" fill="#c3c3c3"/>
  <path d="M370.796 141.013l-20.486-17.78-1.207 306.513z" fill="#cecece"/>
  <path d="M55.06 105.825h86.925l-20.524 269.45-76.586 8.064z" fill="#d4d4d4"/>
  <g transform="translate(0 -540.362)">
    <path d="M327.3 706.008l-69.575-19.103-49.47 44.863.4-60.804-66.713-25.17 69.82-18.477 8.24-60.42 42.754 49.386 71.803-12.17-43.398 48.997z" fill="#fbb829"/>
    <ellipse transform="matrix(.86176 .50732 -.64994 .75998 0 0)" cx="685.849" cy="462.917" rx="60.594" ry="82.089" fill="#97c000"/>
    <path d="M136.57 588.866L95.653 756.6l134.213-85.636z" fill="#3ba5c6"/>
  </g><g>
    <path d="M54.523 105.904l316.31 35.058-22.938 362.608-303.03-120.202z" fill="#f0f0f0"/>
    <path d="M145.55 151.832c4.94 8.852 2.19 66.006 47.948 75.745 32.32 6.878 48.934-12.844 71.986-64.555" fill="none" stroke="#afafaf" stroke-width="12.317"/>
  </g>
</svg>