<svg viewBox="0 0 512 512" xmlns="http://www.w3.org/2000/svg" xml:space="preserve" style="fill-rule:evenodd;clip-rule:evenodd;stroke-linejoin:round;stroke-miterlimit:2">
	<path d="M63.036 21.692c3.6-.28 7.35.81 10.43 2.66 3.53 2.91 1.99 7.88.65 11.5-.89 3.06-4.21 5.02-7.32 4.3-4.01-.53-9.45-2.06-9.71-6.94.36-4.25 1.25-10.02 5.95-11.52Z" style="fill:#3bc6bd;fill-rule:nonzero" transform="translate(-102.068 -90.429) scale(5.99654)"/>
	<path d="M32.033 34.382c3.71-2.37 7.75.44 10.7 2.69 2.68 1.75 4.05 5.52 2.37 8.4-1.91 3.55-4.6 8.23-9.36 7.51-3.39-1.13-6.85-3.12-8.81-6.19-1.5-4.78 1.58-9.48 5.1-12.41Z" style="fill:#7d3cff;fill-rule:nonzero" transform="translate(-102.068 -90.429) scale(5.99654)"/>
	<path d="M82.031 47.652c3.32-.87 7.08-1.3 10.36-.12 3.74 1.68 3.77 6.24 3.78 9.73.47 3.73-2.75 7.3-6.49 7.29-2.97.15-6.41.67-8.88-1.4-2.71-2.12-2.37-5.91-2.5-8.98-.25-2.68 1.2-5.49 3.73-6.52Z" style="fill:#97c000;fill-rule:nonzero" transform="translate(-102.068 -90.429) scale(5.99654)"/>
	<path d="M36.931 67.857c2.51-1.26 5.78-.73 7.61 1.46 2.21 2.51 5.16 5.37 4.58 9.04-.66 3.32-3.75 5.33-6.31 7.19-2.55 1.93-6.48 1.63-8.57-.86-2.52-2.73-5.89-6.19-4.37-10.26 1.46-2.93 4.31-4.94 7.06-6.57Z" style="fill:#ee328d;fill-rule:nonzero" transform="translate(-102.068 -90.429) scale(5.99654)"/>
	<path d="M69.968 74.46c2.49-.58 5.41.32 6.59 2.72 1.32 2.74 2.82 5.67 2.69 8.79-.57 3.97-4.73 5.52-8.08 6.53-2.91 1.02-6.8.4-8.23-2.65-1.28-2.7-2.73-5.6-2.57-8.65.81-4.47 5.86-5.71 9.6-6.74Z" style="fill:#ffb413;fill-rule:nonzero" transform="translate(-102.068 -90.429) scale(5.99654)"/>
</svg>
