<?xml version="1.0" encoding="UTF-8" standalone="no"?>
<svg xmlns:rdf="http://www.w3.org/1999/02/22-rdf-syntax-ns#" xmlns="http://www.w3.org/2000/svg" height="110pt" width="400pt" version="1.1" xmlns:cc="http://creativecommons.org/ns#" xmlns:dc="http://purl.org/dc/elements/1.1/" viewBox="0 0 400 110">
<path fill="#3ba5c6" d="m63 21.7c3.6-0.28 7.35 0.81 10.4 2.66 3.53 2.91 1.99 7.88 0.65 11.5-0.89 3.06-4.21 5.02-7.32 4.3-4.01-0.53-9.45-2.06-9.71-6.94 0.36-4.25 1.25-10 5.95-11.5z"/>
<path fill="#9b9b9b" d="m154 32h8.14c0.01 2.66 0.03 5.31 0.04 7.97-2.68-0.02-5.37-0.03-8.05-0.05-0.04-2.64-0.06-5.28-0.13-7.92z"/>
<path fill="#d13cab" d="m32 34.4c3.71-2.37 7.75 0.44 10.7 2.69 2.68 1.75 4.05 5.52 2.37 8.4-1.91 3.55-4.6 8.23-9.36 7.51-3.39-1.13-6.85-3.12-8.81-6.19-1.5-4.78 1.58-9.48 5.1-12.4z"/>
<path fill="#9b9b9b" d="m178 36.7c2 0.1 5 0.1 8 0.1v8.1c4 0 8 0 12 0.1v7.6c-4 0-8 0-12-0.1 0 6.5-1 13 0 19.5 0 2 1 3.7 3 3.8 3 0.3 6 0.2 9 0.2v8.3c-4-0.1-9 0.4-13-0.9-4-1.8-7-5.8-7-10.4v-20.4h-4v-7.6c1-0.1 2-0.2 4-0.2v-8.1z"/>
<path fill="#9b9b9b" d="m354 36.8c2.7-0.02 5.41-0.03 8.13-0.04 0 2.69-0.01 5.38-0.02 8.06 4.02 0.1 8.04 0.1 12.1 0.1 0.01 2.57 0.02 5.14 0.05 7.71-4.05-0.03-8.09-0.04-12.1-0.09 0.32 6.97-0.44 14 0.34 20.9 2.16 4.25 7.96 1.94 11.8 2.55 0 2.75 0 5.49 0.02 8.24-4.17-0.13-8.56 0.6-12.5-0.97-4.38-1.93-7.63-6.42-7.58-11.3-0.14-6.48 0.01-13 0.04-19.4-1.35 0.01-2.7 0.03-4.04 0.04-0.03-2.57-0.02-5.13-0.05-7.7h4.03c-0.01-2.71-0.04-5.41-0.07-8.11z"/>
<path fill="#9b9b9b" d="m123 44.8h8v29.2c5 3.7 11 1.3 16 2v8.2c-7-0.4-14 1.7-19-2.8-4-2.4-5-6.4-5-10.4v-26.2z"/>
<path fill="#9b9b9b" d="m154 44.7c3-0.1 6-0.1 8-0.1v27.5c0 2.4 3 3.3 4 4.5v8.1c-2-0.9-6-1.5-8-3.8-3-2.5-4-6.2-4-9.8v-26.4z"/>
<path d="m275 55.9c-3 0-5 0.1-7 0.4-7 1.3-12 7.3-12 13.7v20c0 8 7 15 15 15h25v-10c-9-0.2-17 0.4-26-0.2-4-1.1-3-6.2-4-9.5h30v-16.5c-1-6.6-7-12.5-14-12.7-2-0.2-5-0.2-7-0.2zm1 9.6c2 0 4 0.2 6 0.4 5 1.1 3 6.2 4 9.2-7 0.2-13 0.1-20 0 1-3 0-7.1 3-8.9 2-0.5 4-0.7 7-0.7z" transform="scale(.8)" fill="#9b9b9b"/>
<path d="m244 56c-0.11-5.11 3.92-9.74 8.79-10.9 4.62-0.52 9.31-0.52 13.9 0.04 4.14 0.954 7 4.33 8.3 8.22 0.349 1.04 0.473 2.46-0.527 3.32-2.54 0.03-3.84-0.102-6.37-0.102-1.27-1.48-2.09-3.99-4.4-3.94-3.23-0.2-6.6-0.49-9.75 0.38-2.93 1.98-1.63 6-1.95 8.96 0.4 4.2-0.92 8.86 0.91 12.8 3.89 2.59 9.3 1.2 13.6 0.4 0.27-1.04 0.55-2.07 0.83-3.11 2.72 0 3.1 0.0919 5.84 0.122 1.83 0.448 1.9 2.46 1.68 3.33-0.839 3.33-2.53 5.56-5.67 7.2-4.16 2.16-9.08 1.67-13.6 1.53-5.87-0.21-11.4-5.13-11.6-11.1-0.24-5.69-0.17-11.4-0.06-17.1z" fill="#9b9b9b"/>
<path d="m366 55.9c-4.11 0.0203-0.997-0.0649-5.11-0.0461 0.0125 3.2 0.006 6.51-0.0312 9.7 8.61 0.338 10-0.275 18.6 0.25 4.24 0.775 3.68 6.12 4.09 9.34-6.02 0.188-12.1-0.388-18.1 0.625-6.66 1.09-12.2 7.41-11.8 14.2-0.3 7.9 6.75 15 14.6 15.2 8.24 0.288 16.5-0.05 24.7 0.0625-0.15-11.8 0.106-23.6-0.0937-35.3 0.138-7.59-7-14.4-14.6-13.9-4.11-0.1-8.23-0.114-12.3-0.0938zm8.78 29.3c2.82 0.0219 5.63 0.156 8.44 0.0938 0.0125 3.24 0.0125 6.48 0.0625 9.72-5.34-0.138-10.7 0.338-16-0.25-4.26-0.775-4.64-7.24-0.875-9 2.77-0.488 5.59-0.584 8.41-0.562z" transform="scale(.8)" fill="#9b9b9b"/>
<path d="m326 47.5c4.18-3.84 10.3-2.58 15.5-2.69 3.66-0.105 1.86 7.42 1.86 7.42 0.0375 0.542-4.47 0.859-11.3 0.232-1.13 1.65-2.42 3.39-2.19 5.52-0.02 8.77 0.04 17.5 0.04 26.3-2.74-0.04-5.46-0.06-8.19-0.09 0.08-9.07-0.05-18.1 0.02-27.2-0.06-3.6 1.41-7.22 4.27-9.49z" fill="#9b9b9b"/>
<path fill="#97c000" d="m82 47.7c3.32-0.87 7.08-1.3 10.4-0.12 3.74 1.68 3.77 6.24 3.78 9.73 0.47 3.73-2.75 7.3-6.49 7.29-2.97 0.15-6.41 0.67-8.88-1.4-2.71-2.12-2.37-5.91-2.5-8.98-0.25-2.68 1.2-5.49 3.73-6.52z"/>
<path fill="#ed3c32" d="m36.9 67.9c2.51-1.26 5.78-0.73 7.61 1.46 2.21 2.51 5.16 5.37 4.58 9.04-0.66 3.32-3.75 5.33-6.31 7.19-2.55 1.93-6.48 1.63-8.57-0.86-2.52-2.73-5.89-6.19-4.37-10.3 1.46-2.93 4.31-4.94 7.06-6.57z"/>
<path fill="#fbb829" d="m70 74.5c2.49-0.58 5.41 0.32 6.59 2.72 1.32 2.74 2.82 5.67 2.69 8.79-0.57 3.97-4.73 5.52-8.08 6.53-2.91 1.02-6.8 0.4-8.23-2.65-1.28-2.7-2.73-5.6-2.57-8.65 0.81-4.47 5.86-5.71 9.6-6.74z"/>
</svg>