<svg viewBox="0 0 512 110" xmlns="http://www.w3.org/2000/svg" fill-rule="evenodd" clip-rule="evenodd" stroke-linejoin="round" stroke-miterlimit="2">
  <defs/>
  <path d="M56.775 3.796c5.207-.405 10.631 1.171 15.042 3.847 5.106 4.209 2.879 11.397.94 16.633-1.287 4.426-6.089 7.261-10.587 6.219-5.8-.766-13.668-2.979-14.044-10.037.521-6.147 1.808-14.464 8.606-16.633l.043-.029z" fill="#3ba5c6" fill-rule="nonzero"/>
  <path d="M188.392 18.693h11.773c.015 3.847.044 7.68.058 11.528-3.876-.029-7.767-.044-11.643-.073-.058-3.818-.086-7.636-.188-11.455z" fill="#9b9b9b" fill-rule="nonzero"/>
  <path d="M11.939 22.164c5.366-3.427 11.209.637 15.476 3.891 3.876 2.531 5.857 7.984 3.428 12.149-2.763 5.135-6.654 11.904-13.538 10.862-4.903-1.634-9.908-4.512-12.742-8.953-2.17-6.913 2.285-13.711 7.376-17.934v-.015z" fill="#d13cab" fill-rule="nonzero"/>
  <path d="M223.104 25.491c2.893.145 7.232.145 11.571.145v11.715c5.785 0 11.571 0 17.356.145v10.992c-5.785 0-11.571 0-17.356-.145 0 9.401-1.446 18.803 0 28.204 0 2.892 1.446 5.351 4.339 5.496 4.339.434 8.678.289 13.017.289v12.005c-5.785-.145-13.017.578-18.802-1.302-5.786-2.603-10.125-8.389-10.125-15.042V48.488h-5.785V37.496c1.446-.145 2.893-.29 5.785-.29V25.491zM477.66 25.636c3.905-.029 7.825-.044 11.759-.058 0 3.89-.015 7.781-.029 11.657 5.814.145 11.628.145 17.5.145.015 3.717.029 7.434.073 11.151-5.858-.043-11.701-.058-17.501-.13.463 10.081-.636 20.249.492 30.228 3.124 6.147 11.513 2.806 17.067 3.689 0 3.977 0 7.94.029 11.917-6.032-.188-12.381.868-18.08-1.403-6.335-2.791-11.035-9.285-10.963-16.343-.202-9.372.015-18.803.058-28.059-1.953.014-3.905.043-5.843.058-.044-3.717-.029-7.42-.073-11.137h5.829c-.014-3.92-.058-7.825-.101-11.73l-.217.015zM143.556 37.206h11.57v42.233c7.232 5.352 15.91 1.881 23.142 2.893v11.86c-10.124-.578-20.249 2.459-27.481-4.05-5.785-3.471-7.231-9.256-7.231-15.042V37.206zM188.392 37.062c4.339-.145 8.678-.145 11.571-.145v39.774c0 3.472 4.339 4.773 5.785 6.509v11.715c-2.892-1.301-8.678-2.169-11.57-5.496-4.339-3.616-5.786-8.967-5.786-14.174V37.062zM283.851 37.091c-3.472 0-5.786.115-8.1.462-8.099 1.505-13.885 8.447-13.885 15.852v23.142c0 9.256 8.1 17.356 17.356 17.356h28.927V82.332c-10.414-.231-19.67.463-30.084-.231-4.628-1.273-3.471-7.174-4.628-10.993h34.712V52.017c-1.157-7.637-8.099-14.464-16.199-14.695-2.314-.231-5.785-.231-8.099-.231zm1.157 11.107c2.314 0 4.628.232 6.942.463 5.785 1.273 3.471 7.174 4.628 10.645-8.099.232-15.042.116-23.141 0 1.157-3.471 0-8.215 3.471-10.298 2.314-.578 4.628-.81 8.1-.81zM318.563 53.405c-.159-7.39 5.669-14.087 12.713-15.765 6.682-.752 13.465-.752 20.104.058 5.988 1.38 10.125 6.263 12.005 11.889.505 1.504.684 3.558-.762 4.802-3.674.043-5.554-.148-9.214-.148-1.837-2.14-3.022-5.771-6.364-5.698-4.671-.29-9.545-.709-14.101.549-4.238 2.864-2.358 8.678-2.821 12.96.579 6.074-1.33 12.814 1.316 18.513 5.627 3.746 13.451 1.735 19.671.578.39-1.504.795-2.994 1.2-4.498 3.934 0 4.484.133 8.447.177 2.647.647 2.748 3.558 2.43 4.816-1.214 4.816-3.66 8.041-8.201 10.413-6.017 3.125-13.133 2.416-19.67 2.213-8.49-.303-16.489-7.419-16.778-16.054-.347-8.23-.246-16.488-.087-24.732l.112-.073zM389.144 37.091c-4.756.023-1.154-.075-5.913-.054.015 3.703.007 7.533-.036 11.224 9.963.391 11.571-.318 21.522.289 4.906.897 4.258 7.081 4.732 10.807-6.965.218-14-.449-20.943.723-7.706 1.262-14.116 8.574-13.653 16.431-.347 9.141 7.81 17.356 16.893 17.587 9.534.333 19.092-.058 28.58.073-.174-13.654.122-27.307-.109-40.845.16-8.782-8.099-16.662-16.893-16.083-4.756-.116-9.523-.132-14.232-.109l.052-.043zm10.159 33.902c3.263.025 6.514.18 9.766.108.014 3.749.014 7.498.072 11.247-6.179-.16-12.381.391-18.513-.289-4.929-.897-5.369-8.377-1.012-10.414 3.205-.565 6.468-.676 9.731-.65l-.044-.002zM437.162 41.111c6.046-5.554 14.898-3.731 22.419-3.89 5.293-.152 2.69 10.732 2.69 10.732.054.784-6.465 1.242-16.344.335-1.634 2.387-3.5 4.903-3.167 7.984-.029 12.684.058 25.311.058 38.039-3.963-.058-7.897-.087-11.846-.131.116-13.118-.072-26.178.029-39.34-.087-5.207 2.039-10.442 6.176-13.726l-.015-.003z" fill="#9b9b9b" fill-rule="nonzero"/>
  <path d="M84.256 41.401c4.802-1.259 10.24-1.881 15.042-.174 5.409 2.43 5.453 9.025 5.467 14.073.68 5.395-3.977 10.558-9.387 10.544-4.295.217-9.271.969-12.843-2.025-3.92-3.066-3.428-8.548-3.616-12.988-.362-3.876 1.736-7.941 5.395-9.43h-.058z" fill="#97c000" fill-rule="nonzero"/>
  <path d="M19.026 70.617c3.63-1.823 8.36-1.056 11.007 2.111 3.196 3.631 7.463 7.767 6.624 13.075-.955 4.802-5.424 7.709-9.127 10.399-3.688 2.792-9.372 2.358-12.395-1.243-3.644-3.949-8.519-8.953-6.32-14.898 2.112-4.237 6.234-7.145 10.211-9.502v.058z" fill="#ed3c32" fill-rule="nonzero"/>
  <path d="M66.9 80.163c3.601-.839 7.825.462 9.531 3.934 1.909 3.963 4.079 8.2 3.891 12.713-.825 5.742-6.841 7.984-11.687 9.445-4.208 1.475-9.835.578-11.903-3.833-1.851-3.905-3.948-8.1-3.717-12.511 1.172-6.465 8.476-8.259 13.885-9.748z" fill="#fbb829" fill-rule="nonzero"/>
</svg>